SplineFontDB: 3.0
FontName: Samim-Bold
FullName: Samim Bold
FamilyName: Samim
Weight: Bold
Copyright: Copyright (c) 2003 by Bitstream, Inc. All Rights Reserved.\nDejaVu changes are in public domain\nCopyright (c) 2015 by Saber Rastikerdar. All Rights Reserved.\nNon-Arabic(Latin) glyphs and data are imported from Open Sans font under the Apache License, Version 2.0.
Version: 3.1.0
ItalicAngle: 0
UnderlinePosition: -200
UnderlineWidth: 100
Ascent: 1638
Descent: 410
InvalidEm: 0
LayerCount: 2
Layer: 0 1 "Back" 1
Layer: 1 1 "Fore" 0
XUID: [1021 502 1027637223 15701598]
UniqueID: 4254684
UseUniqueID: 1
FSType: 0
OS2Version: 1
OS2_WeightWidthSlopeOnly: 0
OS2_UseTypoMetrics: 1
CreationTime: 1431850356
ModificationTime: 1553436378
PfmFamily: 33
TTFWeight: 700
TTFWidth: 5
LineGap: 0
VLineGap: 0
Panose: 2 11 6 3 3 8 4 2 2 4
OS2TypoAscent: 2150
OS2TypoAOffset: 0
OS2TypoDescent: -1000
OS2TypoDOffset: 0
OS2TypoLinegap: 0
OS2WinAscent: 2150
OS2WinAOffset: 0
OS2WinDescent: 1000
OS2WinDOffset: 0
HheadAscent: 2150
HheadAOffset: 0
HheadDescent: -1000
HheadDOffset: 0
OS2SubXSize: 1331
OS2SubYSize: 1433
OS2SubXOff: 0
OS2SubYOff: 286
OS2SupXSize: 1331
OS2SupYSize: 1433
OS2SupXOff: 0
OS2SupYOff: 983
OS2StrikeYSize: 102
OS2StrikeYPos: 530
OS2CapHeight: 1638
OS2XHeight: 1082
OS2Vendor: '    '
OS2CodePages: 600001ff.dfff0000
Lookup: 1 9 0 "'fina' Terminal Forms in Arabic lookup 9" { "'fina' Terminal Forms in Arabic lookup 9 subtable"  } ['fina' ('arab' <'KUR ' 'SND ' 'URD ' 'dflt' > ) ]
Lookup: 1 9 0 "'medi' Medial Forms in Arabic lookup 11" { "'medi' Medial Forms in Arabic lookup 11 subtable"  } ['medi' ('arab' <'KUR ' 'SND ' 'URD ' 'dflt' > ) ]
Lookup: 1 9 0 "'init' Initial Forms in Arabic lookup 13" { "'init' Initial Forms in Arabic lookup 13 subtable"  } ['init' ('arab' <'KUR ' 'SND ' 'URD ' 'dflt' > ) ]
Lookup: 4 1 1 "'rlig' Required Ligatures in Arabic lookup 14" { "'rlig' Required Ligatures in Arabic lookup 14 subtable"  } ['rlig' ('arab' <'KUR ' 'dflt' > ) ]

StartChar: exclam
Encoding: 33 33 1
Width: 559
VWidth: 2210
GlyphClass: 2
Flags: W
LayerCount: 2
Fore
SplineSet
112.986328125 170.211914062 m 128,-1,1
 112.986328125 239.184570312 112.986328125 239.184570312 162.813476562 289.012695312 c 128,-1,2
 212.533203125 338.733398438 212.533203125 338.733398438 280.421875 337.658203125 c 0,3,4
 297.252929688 337.924804688 297.252929688 337.924804688 313.34375 334.853515625 c 128,-1,5
 329.434570312 331.782226562 329.434570312 331.782226562 344.21484375 325.57421875 c 128,-1,6
 358.995117188 319.3671875 358.995117188 319.3671875 372.513671875 310.189453125 c 128,-1,7
 386.03125 301.01171875 386.03125 301.01171875 398.030273438 289.012695312 c 0,8,9
 422.255859375 264.786132812 422.255859375 264.786132812 435.056640625 234.383789062 c 128,-1,10
 447.857421875 203.98046875 447.857421875 203.98046875 447.857421875 170.211914062 c 0,11,12
 447.857421875 101.240234375 447.857421875 101.240234375 398.030273438 51.4130859375 c 128,-1,13
 348.309570312 1.6923828125 348.309570312 1.6923828125 280.421875 2.7685546875 c 0,14,15
 212.534179688 1.6923828125 212.534179688 1.6923828125 162.813476562 51.4130859375 c 128,-1,0
 112.986328125 101.240234375 112.986328125 101.240234375 112.986328125 170.211914062 c 128,-1,1
138.411132812 1440.36035156 m 1,16,-1
 420.546875 1440.36035156 l 1,17,-1
 398.189453125 454.459960938 l 5,18,-1
 161.88671875 454.459960938 l 5,19,-1
 138.411132812 1440.36035156 l 1,16,-1
EndSplineSet
EndChar

StartChar: period
Encoding: 46 46 2
Width: 561
VWidth: 2210
GlyphClass: 2
Flags: W
LayerCount: 2
Fore
SplineSet
112.986328125 170.211914062 m 128,-1,1
 112.986328125 239.184570312 112.986328125 239.184570312 162.813476562 289.012695312 c 128,-1,2
 212.533203125 338.733398438 212.533203125 338.733398438 280.421875 337.658203125 c 0,3,4
 297.252929688 337.924804688 297.252929688 337.924804688 313.34375 334.853515625 c 128,-1,5
 329.434570312 331.782226562 329.434570312 331.782226562 344.21484375 325.57421875 c 128,-1,6
 358.995117188 319.3671875 358.995117188 319.3671875 372.513671875 310.189453125 c 128,-1,7
 386.03125 301.01171875 386.03125 301.01171875 398.030273438 289.012695312 c 0,8,9
 422.255859375 264.786132812 422.255859375 264.786132812 435.056640625 234.383789062 c 128,-1,10
 447.857421875 203.98046875 447.857421875 203.98046875 447.857421875 170.211914062 c 0,11,12
 447.857421875 101.240234375 447.857421875 101.240234375 398.030273438 51.4130859375 c 128,-1,13
 348.309570312 1.6923828125 348.309570312 1.6923828125 280.421875 2.7685546875 c 0,14,15
 212.534179688 1.6923828125 212.534179688 1.6923828125 162.813476562 51.4130859375 c 128,-1,0
 112.986328125 101.240234375 112.986328125 101.240234375 112.986328125 170.211914062 c 128,-1,1
EndSplineSet
EndChar

StartChar: colon
Encoding: 58 58 3
Width: 561
VWidth: 2210
GlyphClass: 2
Flags: W
LayerCount: 2
Fore
SplineSet
112.986328125 850.211914062 m 128,-1,1
 112.986328125 919.184570312 112.986328125 919.184570312 162.813476562 969.012695312 c 128,-1,2
 212.533203125 1018.73339844 212.533203125 1018.73339844 280.421875 1017.65820312 c 0,3,4
 290.061523438 1017.81054688 290.061523438 1017.81054688 299.481445312 1016.86425781 c 128,-1,5
 308.90234375 1015.91796875 308.90234375 1015.91796875 317.912109375 1013.91308594 c 128,-1,6
 326.921875 1011.90722656 326.921875 1011.90722656 335.619140625 1008.8671875 c 128,-1,7
 344.31640625 1005.82617188 344.31640625 1005.82617188 352.563476562 1001.79003906 c 128,-1,8
 360.810546875 997.752929688 360.810546875 997.752929688 368.6484375 992.74609375 c 128,-1,9
 376.487304688 987.739257812 376.487304688 987.739257812 383.8359375 981.798828125 c 128,-1,10
 391.184570312 975.859375 391.184570312 975.859375 398.030273438 969.012695312 c 0,11,12
 422.255859375 944.786132812 422.255859375 944.786132812 435.056640625 914.383789062 c 128,-1,13
 447.857421875 883.98046875 447.857421875 883.98046875 447.857421875 850.211914062 c 0,14,15
 447.857421875 781.240234375 447.857421875 781.240234375 398.030273438 731.413085938 c 128,-1,16
 348.309570312 681.692382812 348.309570312 681.692382812 280.421875 682.768554688 c 0,17,18
 212.534179688 681.692382812 212.534179688 681.692382812 162.813476562 731.413085938 c 128,-1,0
 112.986328125 781.240234375 112.986328125 781.240234375 112.986328125 850.211914062 c 128,-1,1
112.986328125 170.211914062 m 128,-1,20
 112.986328125 239.184570312 112.986328125 239.184570312 162.813476562 289.012695312 c 128,-1,21
 212.533203125 338.733398438 212.533203125 338.733398438 280.421875 337.658203125 c 0,22,23
 297.252929688 337.924804688 297.252929688 337.924804688 313.34375 334.853515625 c 128,-1,24
 329.434570312 331.782226562 329.434570312 331.782226562 344.21484375 325.57421875 c 128,-1,25
 358.995117188 319.3671875 358.995117188 319.3671875 372.513671875 310.189453125 c 128,-1,26
 386.03125 301.01171875 386.03125 301.01171875 398.030273438 289.012695312 c 0,27,28
 422.255859375 264.786132812 422.255859375 264.786132812 435.056640625 234.383789062 c 128,-1,29
 447.857421875 203.98046875 447.857421875 203.98046875 447.857421875 170.211914062 c 0,30,31
 447.857421875 101.240234375 447.857421875 101.240234375 398.030273438 51.4130859375 c 128,-1,32
 348.309570312 1.6923828125 348.309570312 1.6923828125 280.421875 2.7685546875 c 0,33,34
 212.534179688 1.6923828125 212.534179688 1.6923828125 162.813476562 51.4130859375 c 128,-1,19
 112.986328125 101.240234375 112.986328125 101.240234375 112.986328125 170.211914062 c 128,-1,20
EndSplineSet
EndChar

StartChar: afii57388
Encoding: 1548 1548 5
Width: 543
VWidth: 2217
GlyphClass: 2
Flags: W
LayerCount: 2
Fore
SplineSet
280.298828125 0 m 2,0,1
 202.423828125 0 202.423828125 0 156.336914062 41.556640625 c 128,-1,2
 110.249023438 83.11328125 110.249023438 83.11328125 110.249023438 157.384765625 c 2,3,-1
 110.249023438 227.9375 l 2,4,5
 109.98046875 497.696289062 109.98046875 497.696289062 350.608398438 682.564453125 c 2,6,-1
 370.458984375 697.814453125 l 1,7,-1
 392.852539062 686.62890625 l 1,8,-1
 460.391601562 652.891601562 l 1,9,-1
 507.670898438 629.274414062 l 1,10,-1
 472.100585938 590.185546875 l 2,11,12
 354.40234375 460.845703125 354.40234375 460.845703125 335.213867188 342.72265625 c 1,13,14
 389.76953125 334.509765625 389.76953125 334.509765625 417.702148438 293.745117188 c 128,-1,15
 445.634765625 252.98046875 445.634765625 252.98046875 445.634765625 192.830078125 c 2,16,-1
 445.634765625 155.84375 l 2,17,18
 445.860351562 84.314453125 445.860351562 84.314453125 405.211914062 42.1572265625 c 128,-1,19
 364.563476562 0 364.563476562 0 293.98046875 0 c 2,20,-1
 280.298828125 0 l 2,0,1
EndSplineSet
EndChar

StartChar: uni0615
Encoding: 1557 1557 6
Width: 6
VWidth: 2357
GlyphClass: 4
Flags: W
AnchorPoint: "Anchor-10" 583.891 1399.45 mark 0
AnchorPoint: "Anchor-9" 583.891 1399.45 mark 0
AnchorPoint: "Anchor-1" 583.891 2136.68 basemark 0
AnchorPoint: "Anchor-1" 583.891 1399.45 mark 0
LayerCount: 2
Fore
SplineSet
593.771484375 1620.77539062 m 1,0,1
 658.751953125 1621.51171875 658.751953125 1621.51171875 688.740234375 1631.80761719 c 0,2,3
 700.64453125 1635.94335938 700.64453125 1635.94335938 708.645507812 1640.80175781 c 128,-1,4
 716.645507812 1645.65917969 716.645507812 1645.65917969 721.78515625 1652.20996094 c 128,-1,5
 726.923828125 1658.76074219 726.923828125 1658.76074219 729.41015625 1666.67871094 c 128,-1,6
 731.897460938 1674.59667969 731.897460938 1674.59667969 732.65234375 1685.48925781 c 128,-1,7
 733.372070312 1696.20898438 733.372070312 1696.20898438 731.295898438 1700.30761719 c 0,8,9
 730.76953125 1700.625 730.76953125 1700.625 729.3046875 1701.13476562 c 128,-1,10
 727.83984375 1701.64453125 727.83984375 1701.64453125 725.7265625 1702.03417969 c 0,11,12
 723.223632812 1702.64257812 723.223632812 1702.64257812 719.217773438 1702.2890625 c 128,-1,13
 715.2109375 1701.93554688 715.2109375 1701.93554688 710.787109375 1701.13964844 c 128,-1,14
 706.36328125 1700.34375 706.36328125 1700.34375 700.432617188 1698.21875 c 128,-1,15
 694.500976562 1696.09277344 694.500976562 1696.09277344 688.1484375 1693.15625 c 128,-1,16
 681.795898438 1690.21972656 681.795898438 1690.21972656 673.932617188 1685.58496094 c 128,-1,17
 666.069335938 1680.95019531 666.069335938 1680.95019531 657.78125 1675.13671875 c 0,18,19
 642.381835938 1664.3046875 642.381835938 1664.3046875 626.256835938 1650.61328125 c 128,-1,20
 610.131835938 1636.921875 610.131835938 1636.921875 593.771484375 1620.77539062 c 1,0,1
889.317382812 1694.39355469 m 0,21,22
 889.1328125 1579.26171875 889.1328125 1579.26171875 816.454101562 1518.32226562 c 128,-1,23
 743.775390625 1457.3828125 743.775390625 1457.3828125 614.514648438 1457.3828125 c 2,24,-1
 448.030273438 1457.3828125 l 1,25,-1
 299.59765625 1457.3828125 l 1,26,-1
 259.59765625 1457.3828125 l 1,27,-1
 259.59765625 1497.3828125 l 1,28,-1
 259.59765625 1580.73730469 l 1,29,-1
 259.59765625 1620.73730469 l 1,30,-1
 299.59765625 1620.73730469 l 1,31,-1
 371.467773438 1620.73730469 l 1,32,-1
 371.467773438 2043.28320312 l 1,33,-1
 371.467773438 2083.28320312 l 1,34,-1
 411.467773438 2083.28320312 l 1,35,-1
 446.69921875 2083.28320312 l 1,36,-1
 485.95703125 2083.28320312 l 1,37,-1
 525.95703125 2083.28320312 l 1,38,-1
 525.95703125 2043.28320312 l 1,39,-1
 525.95703125 1771.21777344 l 1,40,41
 621.375 1865.22363281 621.375 1865.22363281 728.491210938 1866.33300781 c 0,42,43
 786.009765625 1867.20117188 786.009765625 1867.20117188 829.610351562 1834.66796875 c 0,44,45
 888.916015625 1790.01660156 888.916015625 1790.01660156 889.317382812 1694.39355469 c 0,21,22
EndSplineSet
EndChar

StartChar: uni061B
Encoding: 1563 1563 7
Width: 543
VWidth: 2217
GlyphClass: 2
Flags: W
LayerCount: 2
Fore
SplineSet
112.986328125 170.211914062 m 128,-1,1
 112.986328125 239.184570312 112.986328125 239.184570312 162.813476562 289.012695312 c 128,-1,2
 212.533203125 338.733398438 212.533203125 338.733398438 280.421875 337.658203125 c 0,3,4
 297.252929688 337.924804688 297.252929688 337.924804688 313.34375 334.853515625 c 128,-1,5
 329.434570312 331.782226562 329.434570312 331.782226562 344.21484375 325.57421875 c 128,-1,6
 358.995117188 319.3671875 358.995117188 319.3671875 372.513671875 310.189453125 c 128,-1,7
 386.03125 301.01171875 386.03125 301.01171875 398.030273438 289.012695312 c 0,8,9
 422.255859375 264.786132812 422.255859375 264.786132812 435.056640625 234.383789062 c 128,-1,10
 447.857421875 203.98046875 447.857421875 203.98046875 447.857421875 170.211914062 c 0,11,12
 447.857421875 101.240234375 447.857421875 101.240234375 398.030273438 51.4130859375 c 128,-1,13
 348.309570312 1.6923828125 348.309570312 1.6923828125 280.421875 2.7685546875 c 0,14,15
 212.534179688 1.6923828125 212.534179688 1.6923828125 162.813476562 51.4130859375 c 128,-1,0
 112.986328125 101.240234375 112.986328125 101.240234375 112.986328125 170.211914062 c 128,-1,1
280.361328125 417.545898438 m 2,16,17
 202.486328125 417.545898438 202.486328125 417.545898438 156.399414062 459.102539062 c 128,-1,18
 110.311523438 500.659179688 110.311523438 500.659179688 110.311523438 574.930664062 c 2,19,-1
 110.311523438 645.478515625 l 2,20,21
 109.975585938 915.727539062 109.975585938 915.727539062 350.71484375 1100.14453125 c 2,22,-1
 370.555664062 1115.34277344 l 1,23,-1
 392.915039062 1104.17480469 l 1,24,-1
 460.455078125 1070.4375 l 1,25,-1
 507.663085938 1046.85644531 l 1,26,-1
 472.204101562 1007.77539062 l 2,27,28
 412.700195312 942.194335938 412.700195312 942.194335938 378.637695312 879.8125 c 128,-1,29
 344.576171875 817.431640625 344.576171875 817.431640625 335.265625 760.161132812 c 1,30,31
 389.916015625 751.669921875 389.916015625 751.669921875 417.806640625 711.01953125 c 128,-1,32
 445.697265625 670.368164062 445.697265625 670.368164062 445.697265625 610.375976562 c 2,33,-1
 445.697265625 568.380859375 l 2,34,35
 445.887695312 498.77734375 445.887695312 498.77734375 404.948242188 458.162109375 c 128,-1,36
 364.0078125 417.545898438 364.0078125 417.545898438 294.04296875 417.545898438 c 2,37,-1
 280.361328125 417.545898438 l 2,16,17
EndSplineSet
EndChar

StartChar: uni061F
Encoding: 1567 1567 8
Width: 865
VWidth: 2210
GlyphClass: 2
Flags: W
LayerCount: 2
Fore
SplineSet
693.044921875 170.511230469 m 128,-1,1
 693.044921875 101.491210938 693.044921875 101.491210938 643.680664062 52.1264648438 c 128,-1,2
 594.31640625 2.76171875 594.31640625 2.76171875 525.526367188 2.76171875 c 128,-1,3
 456.736328125 2.76171875 456.736328125 2.76171875 407.361328125 52.1348067031 c 128,-1,4
 357.986328125 101.507894656 357.986328125 101.507894656 357.986328125 170.332519531 c 0,5,6
 357.986328125 239.822701942 357.986328125 239.822701942 407.555175781 288.737522846 c 128,-1,7
 457.124023438 337.65234375 457.124023438 337.65234375 524.46484375 337.65234375 c 0,8,9
 596.234515777 337.65234375 596.234515777 337.65234375 644.639718826 288.591796875 c 128,-1,0
 693.044921875 239.53125 693.044921875 239.53125 693.044921875 170.511230469 c 128,-1,1
393.780273438 465.059570312 m 5,10,-1
 393.780273438 496.265625 l 2,11,12
 394.000790611 575.283298635 394.000790611 575.283298635 321.20703125 646.421875 c 2,13,-1
 227.922851562 737.584960938 l 2,14,15
 52 910 52 910 51.955078125 1054.26464844 c 0,16,17
 52 1229 52 1229 168.109375 1337.68554688 c 0,18,19
 284 1446 284 1446 468.448242188 1446.01953125 c 0,20,21
 652.656536612 1446.00003635 652.656536612 1446.00003635 827.124023438 1323.30078125 c 2,22,-1
 854.4375 1304.09179688 l 1,23,-1
 752.2421875 1083.20507812 l 1,24,25
 600 1182 600 1182 475.368164062 1181.9921875 c 0,26,27
 400 1182 400 1182 357.778320312 1145.22265625 c 0,28,29
 317 1110 317 1110 316.953125 1050.25292969 c 0,30,31
 316.999991995 986.010973273 316.999991995 986.010973273 421.684570312 882.490234375 c 2,32,-1
 497.138671875 807.875 l 2,33,34
 661.400390625 644.602019441 661.400390625 644.602019441 661.400390625 489.080078125 c 2,35,-1
 661.400390625 465.059570312 l 5,36,-1
 393.780273438 465.059570312 l 5,10,-1
EndSplineSet
EndChar

StartChar: uni0621
Encoding: 1569 1569 9
Width: 778
VWidth: 2351
GlyphClass: 2
Flags: W
AnchorPoint: "Anchor-7" 380.54 -115.76 basechar 0
AnchorPoint: "Anchor-10" 370.19 1061.23 basechar 0
LayerCount: 2
Fore
SplineSet
51.3408203125 13.8515625 m 1,0,-1
 51.3408203125 159.052734375 l 1,1,-1
 51.3408203125 186.208007812 l 1,2,-1
 76.580078125 196.229492188 l 1,3,-1
 196.905273438 244.004882812 l 1,4,5
 52.3740234375 329.78125 52.3740234375 329.78125 55.16015625 511.99609375 c 0,6,7
 58.3935546875 695.706054688 58.3935546875 695.706054688 216.439453125 792.015625 c 0,8,9
 369.926757812 885.529296875 369.926757812 885.529296875 602.234375 834.171875 c 2,10,-1
 633.599609375 827.23828125 l 1,11,-1
 633.599609375 795.115234375 l 1,12,-1
 633.599609375 620.198242188 l 1,13,-1
 633.599609375 567.771484375 l 1,14,-1
 583.034179688 581.619140625 l 2,15,16
 434.329101562 622.341796875 434.329101562 622.341796875 358.572265625 583.8984375 c 0,17,18
 291.32421875 549.6484375 291.32421875 549.6484375 291.944335938 502.608398438 c 0,19,20
 291.965820312 450.427734375 291.965820312 450.427734375 325.998046875 418.946289062 c 128,-1,21
 360.03125 387.463867188 360.03125 387.463867188 441.481445312 373.017578125 c 0,22,23
 458.3359375 370.115234375 458.3359375 370.115234375 475.788085938 369.088867188 c 128,-1,24
 493.239257812 368.061523438 493.239257812 368.061523438 511.002929688 368.950195312 c 0,25,26
 543.514648438 370.576171875 543.514648438 370.576171875 670.549804688 427.387695312 c 2,27,-1
 726.879882812 452.579101562 l 1,28,-1
 726.879882812 390.873046875 l 1,29,-1
 726.879882812 229.375 l 1,30,-1
 726.879882812 201.3125 l 1,31,-1
 700.4921875 191.762695312 l 1,32,-1
 104.953125 -23.7607421875 l 1,33,-1
 51.3408203125 -43.1630859375 l 1,34,-1
 51.3408203125 13.8515625 l 1,0,-1
EndSplineSet
EndChar

StartChar: uni0627
Encoding: 1575 1575 15
Width: 448
VWidth: 2351
GlyphClass: 2
Flags: W
AnchorPoint: "Anchor-10" 224.19 1473.38 basechar 0
AnchorPoint: "Anchor-7" 231.61 -194.79 basechar 0
LayerCount: 2
Fore
SplineSet
96.935546875 1348.25976562 m 1,0,-1
 350.516601562 1438.17675781 l 5,1,-1
 350.516601562 1.58984375 l 1,2,-1
 142.700195312 1.58984375 l 1,3,-1
 96.935546875 1348.25976562 l 1,0,-1
EndSplineSet
Substitution2: "'fina' Terminal Forms in Arabic lookup 9 subtable" uniFE8E
EndChar

StartChar: uni062D
Encoding: 1581 1581 21
Width: 1280
VWidth: 2351
GlyphClass: 2
Flags: W
AnchorPoint: "Anchor-10" 549.59 1257.96 basechar 0
AnchorPoint: "Anchor-7" 584.525 -773.648 basechar 0
LayerCount: 2
Fore
SplineSet
86.6279296875 687.208984375 m 2,0,1
 271.088867188 958.375976562 271.088867188 958.375976562 490.383789062 954.494140625 c 0,2,3
 527.447265625 953.920898438 527.447265625 953.920898438 571.388671875 942.430664062 c 0,4,5
 584.02734375 938.9296875 584.02734375 938.9296875 602.305664062 931.791992188 c 128,-1,6
 620.583984375 924.653320312 620.583984375 924.653320312 646.506835938 913.01953125 c 128,-1,7
 672.428710938 901.384765625 672.428710938 901.384765625 702.815429688 886.977539062 c 128,-1,8
 733.202148438 872.5703125 733.202148438 872.5703125 774.962890625 852.21484375 c 0,9,10
 826.685546875 827.181640625 826.685546875 827.181640625 870.541992188 807.12890625 c 128,-1,11
 914.399414062 787.077148438 914.399414062 787.077148438 948.942382812 772.6171875 c 128,-1,12
 983.486328125 758.157226562 983.486328125 758.157226562 1009.06738281 749.086914062 c 0,13,14
 1047.51269531 735.663085938 1047.51269531 735.663085938 1089.00976562 726.002929688 c 128,-1,15
 1130.50683594 716.341796875 1130.50683594 716.341796875 1174.79101562 710.548828125 c 2,16,-1
 1214.70214844 705.328125 l 1,17,-1
 1209.23144531 665.450195312 l 1,18,-1
 1185.09472656 489.502929688 l 1,19,-1
 1180.7109375 457.546875 l 1,20,-1
 1148.55175781 455.05859375 l 2,21,22
 1127.63964844 453.440429688 1127.63964844 453.440429688 1109.22265625 452.010742188 c 128,-1,23
 1090.8046875 450.581054688 1090.8046875 450.581054688 1075.52929688 449.388671875 c 128,-1,24
 1060.25390625 448.197265625 1060.25390625 448.197265625 1047.65039062 447.208007812 c 128,-1,25
 1035.046875 446.21875 1035.046875 446.21875 1025.47949219 445.459960938 c 128,-1,26
 1015.91210938 444.702148438 1015.91210938 444.702148438 1009.21289062 444.161132812 c 128,-1,27
 1002.51367188 443.62109375 1002.51367188 443.62109375 998.764648438 443.305664062 c 0,28,29
 762.5546875 414.081054688 762.5546875 414.081054688 610.901367188 326.936523438 c 0,30,31
 305.006835938 150.874023438 305.006835938 150.874023438 305.084960938 -100.111328125 c 0,32,33
 305.059570312 -164.783203125 305.059570312 -164.783203125 323.41015625 -213.614257812 c 128,-1,34
 341.760742188 -262.444335938 341.760742188 -262.444335938 379.180664062 -297.509765625 c 128,-1,35
 416.6015625 -332.576171875 416.6015625 -332.576171875 474.798828125 -355.861328125 c 0,36,37
 528.01171875 -376.953125 528.01171875 -376.953125 603.989257812 -388.150390625 c 128,-1,38
 679.965820312 -399.34765625 679.965820312 -399.34765625 776.8359375 -399.671875 c 0,39,40
 968.45703125 -399.991210938 968.45703125 -399.991210938 1140.11816406 -351.18359375 c 2,41,-1
 1178.63476562 -340.233398438 l 1,42,-1
 1189.54394531 -378.760742188 l 1,43,-1
 1233.55273438 -534.172851562 l 1,44,-1
 1244.21289062 -571.81640625 l 1,45,-1
 1206.81445312 -583.307617188 l 2,46,47
 992.994140625 -649.00390625 992.994140625 -649.00390625 778.904296875 -648.865234375 c 0,48,49
 510.2421875 -649.004882812 510.2421875 -649.004882812 320.545898438 -550.48828125 c 0,50,51
 57.0458984375 -413.294921875 57.0458984375 -413.294921875 56.4599609375 -103.427734375 c 0,52,53
 55.970703125 98.1025390625 55.970703125 98.1025390625 165.268554688 261.46875 c 0,54,55
 327.794921875 505.305664062 327.794921875 505.305664062 674.07421875 606.5390625 c 0,56,57
 695.208007812 612.690429688 695.208007812 612.690429688 716.032226562 617.885742188 c 1,58,59
 686.776367188 630.768554688 686.776367188 630.768554688 654.14453125 646.19921875 c 0,60,61
 615.125 664.666015625 615.125 664.666015625 579.99609375 678.725585938 c 128,-1,62
 544.866210938 692.784179688 544.866210938 692.784179688 527.454101562 698.309570312 c 128,-1,63
 510.041015625 703.8359375 510.041015625 703.8359375 506.225585938 703.815429688 c 0,64,65
 490.700195312 703.836914062 490.700195312 703.836914062 474.953125 700.942382812 c 128,-1,66
 459.20703125 698.048828125 459.20703125 698.048828125 442.64453125 691.94140625 c 128,-1,67
 426.08203125 685.834960938 426.08203125 685.834960938 409.330078125 676.5859375 c 128,-1,68
 392.577148438 667.3359375 392.577148438 667.3359375 375.0234375 654.419921875 c 128,-1,69
 357.46875 641.502929688 357.46875 641.502929688 339.755859375 625.23046875 c 128,-1,70
 322.04296875 608.958007812 322.04296875 608.958007812 303.541992188 588.564453125 c 128,-1,71
 285.040039062 568.169921875 285.040039062 568.169921875 266.411132812 544.192382812 c 2,72,-1
 241.009765625 511.5 l 1,73,-1
 209.209960938 538.010742188 l 1,74,-1
 94.0869140625 633.987304688 l 1,75,-1
 66.2255859375 657.215820312 l 1,76,-1
 86.6279296875 687.208984375 l 2,0,1
EndSplineSet
Substitution2: "'fina' Terminal Forms in Arabic lookup 9 subtable" uniFEA2
Substitution2: "'medi' Medial Forms in Arabic lookup 11 subtable" uniFEA4
Substitution2: "'init' Initial Forms in Arabic lookup 13 subtable" uniFEA3
EndChar

StartChar: uni062F
Encoding: 1583 1583 23
Width: 992
VWidth: 2351
GlyphClass: 2
Flags: W
AnchorPoint: "Anchor-10" 409.091 1261.98 basechar 0
AnchorPoint: "Anchor-7" 395.442 -176.688 basechar 0
LayerCount: 2
Fore
SplineSet
110.345703125 277.5 m 2,0,1
 232.37890625 237.02734375 232.37890625 237.02734375 361.57421875 237.565429688 c 0,2,3
 579.63671875 237.974609375 579.63671875 237.974609375 669.911132812 305.662109375 c 0,4,5
 702.918945312 330.096679688 702.918945312 330.096679688 702.81640625 355.764648438 c 0,6,7
 702.975585938 443.420898438 702.975585938 443.420898438 595.137695312 583.53125 c 0,8,9
 503.594726562 701.36328125 503.594726562 701.36328125 349.721679688 818.91796875 c 2,10,-1
 320.258789062 841.426757812 l 1,11,-1
 340.471679688 872.509765625 l 1,12,-1
 435.172851562 1018.13867188 l 1,13,-1
 458.459960938 1053.94921875 l 1,14,-1
 492.666015625 1028.36230469 l 2,15,16
 560.163085938 977.87109375 560.163085938 977.87109375 617.352539062 927.1953125 c 128,-1,17
 674.541015625 876.518554688 674.541015625 876.518554688 722.045898438 824.924804688 c 128,-1,18
 769.551757812 773.33203125 769.551757812 773.33203125 806.78125 721.255859375 c 0,19,20
 850.622070312 659.90234375 850.622070312 659.90234375 880.104492188 599.411132812 c 128,-1,21
 909.5859375 538.918945312 909.5859375 538.918945312 924.798828125 477.998046875 c 128,-1,22
 940.01171875 417.077148438 940.01171875 417.077148438 940.018554688 357.26171875 c 0,23,24
 939.997070312 173.415039062 939.997070312 173.415039062 771.32421875 71.65625 c 0,25,26
 622.049804688 -18.025390625 622.049804688 -18.025390625 349.04296875 -17.4072265625 c 0,27,28
 208.077148438 -16.9794921875 208.077148438 -16.9794921875 84.0087890625 26.8935546875 c 2,29,-1
 57.2783203125 36.3466796875 l 1,30,-1
 57.3447265625 64.69921875 l 1,31,-1
 57.75390625 239.626953125 l 1,32,-1
 57.8837890625 294.8984375 l 1,33,-1
 110.345703125 277.5 l 2,0,1
EndSplineSet
Substitution2: "'fina' Terminal Forms in Arabic lookup 9 subtable" uniFEAA
EndChar

StartChar: uni0631
Encoding: 1585 1585 25
Width: 867
VWidth: 2357
GlyphClass: 2
Flags: W
AnchorPoint: "Anchor-7" 316.38 -608.85 basechar 0
AnchorPoint: "Anchor-10" 501.618 973.71 basechar 0
LayerCount: 2
Fore
SplineSet
658.106445312 -279.461914062 m 0,0,1
 470.196289062 -512.946289062 470.196289062 -512.946289062 81.306640625 -514.038085938 c 2,2,-1
 54.205078125 -514.114257812 l 1,3,-1
 44.0869140625 -488.97265625 l 1,4,-1
 -10.623046875 -353.03515625 l 1,5,-1
 -31.1376953125 -302.063476562 l 1,6,-1
 23.671875 -298.19921875 l 2,7,8
 321.799804688 -277.18359375 321.799804688 -277.18359375 450.149414062 -143.29296875 c 0,9,10
 565.973632812 -22.9091796875 565.973632812 -22.9091796875 565.68359375 155.086914062 c 0,11,12
 565.982421875 243.774414062 565.982421875 243.774414062 501.065429688 484.806640625 c 2,13,-1
 492.634765625 516.109375 l 1,14,-1
 521.513671875 530.840820312 l 1,15,-1
 672.024414062 607.618164062 l 1,16,-1
 712.775390625 628.40625 l 1,17,-1
 727.938476562 585.245117188 l 2,18,19
 811.014648438 348.78125 811.014648438 348.78125 810.651367188 176.6796875 c 0,20,21
 811.01953125 -91.1728515625 811.01953125 -91.1728515625 658.106445312 -279.461914062 c 0,0,1
EndSplineSet
PairPos2: "'kern' Horizontal Kerning lookup 15-1" uni06CA dx=-85 dy=0 dh=-85 dv=0 dx=0 dy=0 dh=0 dv=0
PairPos2: "'kern' Horizontal Kerning lookup 15-1" uniFB90 dx=-307 dy=0 dh=-307 dv=0 dx=0 dy=0 dh=0 dv=0
PairPos2: "'kern' Horizontal Kerning lookup 15-1" uniFB8E dx=-307 dy=0 dh=-307 dv=0 dx=0 dy=0 dh=0 dv=0
PairPos2: "'kern' Horizontal Kerning lookup 15-1" uni06A9 dx=-307 dy=0 dh=-307 dv=0 dx=0 dy=0 dh=0 dv=0
PairPos2: "'kern' Horizontal Kerning lookup 15-1" uni064A dx=-106 dy=0 dh=-106 dv=0 dx=0 dy=0 dh=0 dv=0
PairPos2: "'kern' Horizontal Kerning lookup 15-1" afii57414 dx=-106 dy=0 dh=-106 dv=0 dx=0 dy=0 dh=0 dv=0
PairPos2: "'kern' Horizontal Kerning lookup 15-1" uniFBE8 dx=-212 dy=0 dh=-212 dv=0 dx=0 dy=0 dh=0 dv=0
PairPos2: "'kern' Horizontal Kerning lookup 15-1" uni0649 dx=-106 dy=0 dh=-106 dv=0 dx=0 dy=0 dh=0 dv=0
PairPos2: "'kern' Horizontal Kerning lookup 15-1" uni0648 dx=-85 dy=0 dh=-85 dv=0 dx=0 dy=0 dh=0 dv=0
PairPos2: "'kern' Horizontal Kerning lookup 15-1" afii57412 dx=-85 dy=0 dh=-85 dv=0 dx=0 dy=0 dh=0 dv=0
PairPos2: "'kern' Horizontal Kerning lookup 15-1" uniFEEB dx=-212 dy=0 dh=-212 dv=0 dx=0 dy=0 dh=0 dv=0
PairPos2: "'kern' Horizontal Kerning lookup 15-1" uni0647 dx=-212 dy=0 dh=-212 dv=0 dx=0 dy=0 dh=0 dv=0
PairPos2: "'kern' Horizontal Kerning lookup 15-1" uniFEE7 dx=-212 dy=0 dh=-212 dv=0 dx=0 dy=0 dh=0 dv=0
PairPos2: "'kern' Horizontal Kerning lookup 15-1" uni0646 dx=-159 dy=0 dh=-159 dv=0 dx=0 dy=0 dh=0 dv=0
PairPos2: "'kern' Horizontal Kerning lookup 15-1" uniFEE3 dx=-212 dy=0 dh=-212 dv=0 dx=0 dy=0 dh=0 dv=0
PairPos2: "'kern' Horizontal Kerning lookup 15-1" uni0645 dx=-212 dy=0 dh=-212 dv=0 dx=0 dy=0 dh=0 dv=0
PairPos2: "'kern' Horizontal Kerning lookup 15-1" uniFEFB dx=-212 dy=0 dh=-212 dv=0 dx=0 dy=0 dh=0 dv=0
PairPos2: "'kern' Horizontal Kerning lookup 15-1" uniFEDF dx=-212 dy=0 dh=-212 dv=0 dx=0 dy=0 dh=0 dv=0
PairPos2: "'kern' Horizontal Kerning lookup 15-1" uni0644 dx=-159 dy=0 dh=-159 dv=0 dx=0 dy=0 dh=0 dv=0
PairPos2: "'kern' Horizontal Kerning lookup 15-1" uniFEDB dx=-307 dy=0 dh=-307 dv=0 dx=0 dy=0 dh=0 dv=0
PairPos2: "'kern' Horizontal Kerning lookup 15-1" uni0643 dx=-212 dy=0 dh=-212 dv=0 dx=0 dy=0 dh=0 dv=0
PairPos2: "'kern' Horizontal Kerning lookup 15-1" uniFED7 dx=-212 dy=0 dh=-212 dv=0 dx=0 dy=0 dh=0 dv=0
PairPos2: "'kern' Horizontal Kerning lookup 15-1" uni0642 dx=-159 dy=0 dh=-159 dv=0 dx=0 dy=0 dh=0 dv=0
PairPos2: "'kern' Horizontal Kerning lookup 15-1" uniFED3 dx=-212 dy=0 dh=-212 dv=0 dx=0 dy=0 dh=0 dv=0
PairPos2: "'kern' Horizontal Kerning lookup 15-1" uni0641 dx=-212 dy=0 dh=-212 dv=0 dx=0 dy=0 dh=0 dv=0
PairPos2: "'kern' Horizontal Kerning lookup 15-1" uniFECF dx=-212 dy=0 dh=-212 dv=0 dx=0 dy=0 dh=0 dv=0
PairPos2: "'kern' Horizontal Kerning lookup 15-1" uniFECB dx=-212 dy=0 dh=-212 dv=0 dx=0 dy=0 dh=0 dv=0
PairPos2: "'kern' Horizontal Kerning lookup 15-1" uniFEC7 dx=-212 dy=0 dh=-212 dv=0 dx=0 dy=0 dh=0 dv=0
PairPos2: "'kern' Horizontal Kerning lookup 15-1" uni0638 dx=-212 dy=0 dh=-212 dv=0 dx=0 dy=0 dh=0 dv=0
PairPos2: "'kern' Horizontal Kerning lookup 15-1" uniFEC3 dx=-212 dy=0 dh=-212 dv=0 dx=0 dy=0 dh=0 dv=0
PairPos2: "'kern' Horizontal Kerning lookup 15-1" uni0637 dx=-212 dy=0 dh=-212 dv=0 dx=0 dy=0 dh=0 dv=0
PairPos2: "'kern' Horizontal Kerning lookup 15-1" uniFEBF dx=-212 dy=0 dh=-212 dv=0 dx=0 dy=0 dh=0 dv=0
PairPos2: "'kern' Horizontal Kerning lookup 15-1" uni0636 dx=-212 dy=0 dh=-212 dv=0 dx=0 dy=0 dh=0 dv=0
PairPos2: "'kern' Horizontal Kerning lookup 15-1" uniFEBB dx=-212 dy=0 dh=-212 dv=0 dx=0 dy=0 dh=0 dv=0
PairPos2: "'kern' Horizontal Kerning lookup 15-1" uni0635 dx=-212 dy=0 dh=-212 dv=0 dx=0 dy=0 dh=0 dv=0
PairPos2: "'kern' Horizontal Kerning lookup 15-1" uniFEB7 dx=-212 dy=0 dh=-212 dv=0 dx=0 dy=0 dh=0 dv=0
PairPos2: "'kern' Horizontal Kerning lookup 15-1" uni0634 dx=-212 dy=0 dh=-212 dv=0 dx=0 dy=0 dh=0 dv=0
PairPos2: "'kern' Horizontal Kerning lookup 15-1" uniFEB3 dx=-212 dy=0 dh=-212 dv=0 dx=0 dy=0 dh=0 dv=0
PairPos2: "'kern' Horizontal Kerning lookup 15-1" uni0633 dx=-212 dy=0 dh=-212 dv=0 dx=0 dy=0 dh=0 dv=0
PairPos2: "'kern' Horizontal Kerning lookup 15-1" uni0632 dx=-85 dy=0 dh=-85 dv=0 dx=0 dy=0 dh=0 dv=0
PairPos2: "'kern' Horizontal Kerning lookup 15-1" uni0631 dx=-85 dy=0 dh=-85 dv=0 dx=0 dy=0 dh=0 dv=0
PairPos2: "'kern' Horizontal Kerning lookup 15-1" uni0630 dx=-212 dy=0 dh=-212 dv=0 dx=0 dy=0 dh=0 dv=0
PairPos2: "'kern' Horizontal Kerning lookup 15-1" uni062F dx=-212 dy=0 dh=-212 dv=0 dx=0 dy=0 dh=0 dv=0
PairPos2: "'kern' Horizontal Kerning lookup 15-1" uniFEA7 dx=-212 dy=0 dh=-212 dv=0 dx=0 dy=0 dh=0 dv=0
PairPos2: "'kern' Horizontal Kerning lookup 15-1" uniFEA3 dx=-212 dy=0 dh=-212 dv=0 dx=0 dy=0 dh=0 dv=0
PairPos2: "'kern' Horizontal Kerning lookup 15-1" uniFE9F dx=-212 dy=0 dh=-212 dv=0 dx=0 dy=0 dh=0 dv=0
PairPos2: "'kern' Horizontal Kerning lookup 15-1" uniFE9B dx=-212 dy=0 dh=-212 dv=0 dx=0 dy=0 dh=0 dv=0
PairPos2: "'kern' Horizontal Kerning lookup 15-1" uni062B dx=-212 dy=0 dh=-212 dv=0 dx=0 dy=0 dh=0 dv=0
PairPos2: "'kern' Horizontal Kerning lookup 15-1" uniFE97 dx=-212 dy=0 dh=-212 dv=0 dx=0 dy=0 dh=0 dv=0
PairPos2: "'kern' Horizontal Kerning lookup 15-1" uni062A dx=-212 dy=0 dh=-212 dv=0 dx=0 dy=0 dh=0 dv=0
PairPos2: "'kern' Horizontal Kerning lookup 15-1" uni0629 dx=-212 dy=0 dh=-212 dv=0 dx=0 dy=0 dh=0 dv=0
PairPos2: "'kern' Horizontal Kerning lookup 15-1" uniFE91 dx=-85 dy=0 dh=-85 dv=0 dx=0 dy=0 dh=0 dv=0
PairPos2: "'kern' Horizontal Kerning lookup 15-1" uni0628 dx=-212 dy=0 dh=-212 dv=0 dx=0 dy=0 dh=0 dv=0
PairPos2: "'kern' Horizontal Kerning lookup 15-1" uni0627 dx=-212 dy=0 dh=-212 dv=0 dx=0 dy=0 dh=0 dv=0
PairPos2: "'kern' Horizontal Kerning lookup 15-1" uni0623 dx=-212 dy=0 dh=-212 dv=0 dx=0 dy=0 dh=0 dv=0
PairPos2: "'kern' Horizontal Kerning lookup 15-1" uni0622 dx=-212 dy=0 dh=-212 dv=0 dx=0 dy=0 dh=0 dv=0
PairPos2: "'kern' Horizontal Kerning lookup 15-1" uni0621 dx=-212 dy=0 dh=-212 dv=0 dx=0 dy=0 dh=0 dv=0
PairPos2: "'kern' Horizontal Kerning lookup 15-1" uniFB94 dx=-307 dy=0 dh=-307 dv=0 dx=0 dy=0 dh=0 dv=0
PairPos2: "'kern' Horizontal Kerning lookup 15-1" uniFB92 dx=-307 dy=0 dh=-307 dv=0 dx=0 dy=0 dh=0 dv=0
PairPos2: "'kern' Horizontal Kerning lookup 15-1" afii57509 dx=-307 dy=0 dh=-307 dv=0 dx=0 dy=0 dh=0 dv=0
PairPos2: "'kern' Horizontal Kerning lookup 15-1" afii57508 dx=-85 dy=0 dh=-85 dv=0 dx=0 dy=0 dh=0 dv=0
PairPos2: "'kern' Horizontal Kerning lookup 15-1" uniFB7C dx=-159 dy=0 dh=-159 dv=0 dx=0 dy=0 dh=0 dv=0
PairPos2: "'kern' Horizontal Kerning lookup 15-1" afii57506 dx=-212 dy=0 dh=-212 dv=0 dx=0 dy=0 dh=0 dv=0
PairPos2: "'kern' Horizontal Kerning lookup 15-1" afii57440 dx=-212 dy=0 dh=-212 dv=0 dx=0 dy=0 dh=0 dv=0
PairPos2: "'kern' Horizontal Kerning lookup 15-1" uniFE8B dx=-212 dy=0 dh=-212 dv=0 dx=0 dy=0 dh=0 dv=0
Substitution2: "'fina' Terminal Forms in Arabic lookup 9 subtable" uniFEAE
EndChar

StartChar: uni0633
Encoding: 1587 1587 27
Width: 2384
VWidth: 2351
GlyphClass: 2
Flags: W
AnchorPoint: "Anchor-7" 638.95 -688.09 basechar 0
AnchorPoint: "Anchor-10" 1687.64 1112.47 basechar 0
LayerCount: 2
Fore
SplineSet
1981.45410156 -0.0068359375 m 0,0,1
 1808.75488281 -1.85546875 1808.75488281 -1.85546875 1712.07910156 115.153320312 c 1,2,3
 1622.05371094 -0.9541015625 1622.05371094 -0.9541015625 1456.96582031 -0.31640625 c 0,4,5
 1400.171875 -0.0673828125 1400.171875 -0.0673828125 1338.27246094 26.5029296875 c 1,6,7
 1319.9453125 -241.395507812 1319.9453125 -241.395507812 1154.66210938 -379.090820312 c 128,-1,8
 989.37890625 -516.78515625 989.37890625 -516.78515625 690.450195312 -517.545898438 c 0,9,10
 417.515625 -518.0234375 417.515625 -518.0234375 252.698242188 -392.291992188 c 0,11,12
 58.9609375 -243.701171875 58.9609375 -243.701171875 59.55859375 58.439453125 c 0,13,14
 60.017578125 273.498046875 60.017578125 273.498046875 155.828125 489.950195312 c 2,15,-1
 170.991210938 524.205078125 l 1,16,-1
 206.166015625 511.318359375 l 1,17,-1
 354.900390625 456.826171875 l 1,18,-1
 393.923828125 442.529296875 l 1,19,-1
 378.14453125 404.080078125 l 2,20,21
 339.387695312 309.646484375 339.387695312 309.646484375 320.166015625 227.233398438 c 128,-1,22
 300.943359375 144.8203125 300.943359375 144.8203125 300.893554688 75.26171875 c 0,23,24
 300.942382812 -98.98046875 300.942382812 -98.98046875 395.223632812 -181.858398438 c 128,-1,25
 489.50390625 -264.736328125 489.50390625 -264.736328125 692.98046875 -264.501953125 c 0,26,27
 911.19921875 -264.264648438 911.19921875 -264.264648438 1012.55957031 -176.780273438 c 128,-1,28
 1113.91992188 -89.2958984375 1113.91992188 -89.2958984375 1113.8515625 93.134765625 c 0,29,30
 1113.89648438 135.573242188 1113.89648438 135.573242188 1102.91894531 187.055664062 c 128,-1,31
 1091.94238281 238.538085938 1091.94238281 238.538085938 1068.97167969 300.768554688 c 128,-1,32
 1046 363 1046 363 1011.56640625 433.033203125 c 2,33,-1
 996.16015625 464.368164062 l 1,34,-1
 1025.12597656 483.865234375 l 1,35,-1
 1165.95507812 578.66015625 l 1,36,-1
 1206.63867188 606.045898438 l 1,37,-1
 1225.28613281 560.6875 l 1,38,-1
 1317.19628906 337.125976562 l 2,39,40
 1333.17382812 298.16796875 1333.17382812 298.16796875 1367.02148438 279.155273438 c 128,-1,41
 1400.86816406 260.143554688 1400.86816406 260.143554688 1461.16210938 260.252929688 c 0,42,43
 1485.19628906 260.369140625 1485.19628906 260.369140625 1503.99121094 265.479492188 c 128,-1,44
 1522.78710938 270.588867188 1522.78710938 270.588867188 1538.29980469 281.89453125 c 128,-1,45
 1553.81347656 293.201171875 1553.81347656 293.201171875 1564.75195312 311.302734375 c 128,-1,46
 1575.68945312 329.405273438 1575.68945312 329.405273438 1582.98632812 355.493164062 c 128,-1,47
 1590.28417969 381.581054688 1590.28417969 381.581054688 1593.66796875 416.26953125 c 2,48,-1
 1612.23339844 606.586914062 l 1,49,-1
 1615.75585938 642.703125 l 1,50,-1
 1652.04394531 642.703125 l 1,51,-1
 1770.06054688 642.703125 l 1,52,-1
 1805.01367188 642.703125 l 1,53,-1
 1809.69921875 608.065429688 l 1,54,-1
 1835.63964844 416.32421875 l 2,55,56
 1847.19921875 329.647460938 1847.19921875 329.647460938 1881.35253906 294.141601562 c 128,-1,57
 1915.50585938 258.63671875 1915.50585938 258.63671875 1978.07714844 260.389648438 c 0,58,59
 2047.83398438 262.319335938 2047.83398438 262.319335938 2070.89453125 306.501953125 c 0,60,61
 2081.79589844 328.4375 2081.79589844 328.4375 2087.32324219 356.990234375 c 128,-1,62
 2092.8515625 385.54296875 2092.8515625 385.54296875 2092.72851562 422.48828125 c 0,63,64
 2092.85546875 449.392578125 2092.85546875 449.392578125 2089.70410156 479.443359375 c 128,-1,65
 2086.55273438 509.494140625 2086.55273438 509.494140625 2079.92480469 543.756835938 c 4,66,67
 2061.26281982 646.442905807 2061.26281982 646.442905807 2032.59863281 724.352539062 c 1,68,-1
 2072.34179688 737.088867188 l 1,69,-1
 2229.51660156 787.458007812 l 1,70,-1
 2266.58398438 799.336914062 l 1,71,-1
 2279.46875 762.607421875 l 2,72,73
 2324.58886719 633.984375 2324.58886719 633.984375 2334.05761719 478.013671875 c 0,74,75
 2335.02539062 462.165039062 2335.02539062 462.165039062 2335.52148438 446.77734375 c 128,-1,76
 2336.01660156 431.389648438 2336.01660156 431.389648438 2336.03515625 416.537109375 c 0,77,78
 2336.76464844 133.961914062 2336.76464844 133.961914062 2160.44335938 40.7236328125 c 0,79,80
 2084.54785156 1.1953125 2084.54785156 1.1953125 1981.45410156 -0.0068359375 c 0,0,1
EndSplineSet
Substitution2: "'fina' Terminal Forms in Arabic lookup 9 subtable" uniFEB2
Substitution2: "'medi' Medial Forms in Arabic lookup 11 subtable" uniFEB4
Substitution2: "'init' Initial Forms in Arabic lookup 13 subtable" uniFEB3
EndChar

StartChar: uni0635
Encoding: 1589 1589 29
Width: 2514
VWidth: 2351
GlyphClass: 2
Flags: W
AnchorPoint: "Anchor-10" 1687.64 1112.47 basechar 0
AnchorPoint: "Anchor-7" 638.95 -688.09 basechar 0
LayerCount: 2
Fore
SplineSet
1316.24804688 336.999023438 m 2,0,1
 1325.95019531 313.138671875 1325.95019531 313.138671875 1347.00878906 305.229492188 c 1,2,3
 1534.97363281 570.024414062 1534.97363281 570.024414062 1714.10253906 703.823242188 c 128,-1,4
 1893.23144531 837.62109375 1893.23144531 837.62109375 2069.23242188 837.188476562 c 0,5,6
 2237.77148438 836.98046875 2237.77148438 836.98046875 2343.4765625 738.45703125 c 0,7,8
 2455.82128906 634.668945312 2455.82128906 634.668945312 2457.578125 463.3046875 c 0,9,10
 2458.35839844 360.572265625 2458.35839844 360.572265625 2413.52636719 274.236328125 c 128,-1,11
 2368.69335938 187.900390625 2368.69335938 187.900390625 2281.12304688 121.787109375 c 0,12,13
 2118.32421875 -2.126953125 2118.32421875 -2.126953125 1728.69824219 -0.7109375 c 2,14,-1
 1533.1796875 0 l 2,15,16
 1424.52441406 0 1424.52441406 0 1338.54492188 30.6376953125 c 1,17,18
 1321.21191406 -239.37109375 1321.21191406 -239.37109375 1155.88671875 -378.077148438 c 128,-1,19
 990.561523438 -516.782226562 990.561523438 -516.782226562 690.450195312 -517.545898438 c 0,20,21
 417.515625 -518.0234375 417.515625 -518.0234375 252.698242188 -392.291992188 c 0,22,23
 58.9609375 -243.701171875 58.9609375 -243.701171875 59.55859375 58.439453125 c 0,24,25
 60.017578125 273.498046875 60.017578125 273.498046875 155.828125 489.950195312 c 2,26,-1
 170.991210938 524.205078125 l 1,27,-1
 206.166015625 511.318359375 l 1,28,-1
 354.900390625 456.826171875 l 1,29,-1
 393.923828125 442.529296875 l 1,30,-1
 378.14453125 404.080078125 l 2,31,32
 339.387695312 309.646484375 339.387695312 309.646484375 320.166015625 227.233398438 c 128,-1,33
 300.943359375 144.8203125 300.943359375 144.8203125 300.893554688 75.26171875 c 0,34,35
 300.942382812 -98.98046875 300.942382812 -98.98046875 395.223632812 -181.858398438 c 128,-1,36
 489.50390625 -264.736328125 489.50390625 -264.736328125 692.98046875 -264.501953125 c 0,37,38
 911.19921875 -264.264648438 911.19921875 -264.264648438 1012.55957031 -176.780273438 c 128,-1,39
 1113.91992188 -89.2958984375 1113.91992188 -89.2958984375 1113.8515625 93.134765625 c 0,40,41
 1113.89648438 135.573242188 1113.89648438 135.573242188 1102.91894531 187.055664062 c 128,-1,42
 1091.94238281 238.538085938 1091.94238281 238.538085938 1068.97167969 300.768554688 c 128,-1,43
 1046 363 1046 363 1011.56640625 433.033203125 c 2,44,-1
 996.16015625 464.368164062 l 1,45,-1
 1025.12597656 483.865234375 l 1,46,-1
 1165.95507812 578.66015625 l 1,47,-1
 1206.79882812 606.153320312 l 1,48,-1
 1225.34472656 560.544921875 l 1,49,-1
 1316.24804688 336.999023438 l 2,0,1
1613.08398438 260.91796875 m 1,50,-1
 1712.1015625 260.91796875 l 2,51,52
 1975.55761719 260.998046875 1975.55761719 260.998046875 2087.4765625 304.102539062 c 0,53,54
 2113.56738281 314.288085938 2113.56738281 314.288085938 2133.14160156 326.48046875 c 128,-1,55
 2152.71582031 338.673828125 2152.71582031 338.673828125 2166.37109375 353.077148438 c 128,-1,56
 2180.02636719 367.48046875 2180.02636719 367.48046875 2188.06835938 384.763671875 c 128,-1,57
 2196.11132812 402.047851562 2196.11132812 402.047851562 2199.01171875 421.780273438 c 128,-1,58
 2201.91210938 441.512695312 2201.91210938 441.512695312 2200.10449219 464.998046875 c 0,59,60
 2197.10253906 501.846679688 2197.10253906 501.846679688 2176.47070312 529.693359375 c 0,61,62
 2157.296875 554.338867188 2157.296875 554.338867188 2130.55664062 566.047851562 c 128,-1,63
 2103.81640625 577.755859375 2103.81640625 577.755859375 2063.9296875 577.580078125 c 0,64,65
 1991.40364602 577.825922446 1991.40364602 577.825922446 1910.671875 535.302734375 c 4,66,67
 1785.40527767 469.319142478 1785.40527767 469.319142478 1613.08398438 260.91796875 c 1,50,-1
EndSplineSet
Substitution2: "'fina' Terminal Forms in Arabic lookup 9 subtable" uniFEBA
Substitution2: "'medi' Medial Forms in Arabic lookup 11 subtable" uniFEBC
Substitution2: "'init' Initial Forms in Arabic lookup 13 subtable" uniFEBB
EndChar

StartChar: uni0637
Encoding: 1591 1591 31
Width: 1574
VWidth: 2351
GlyphClass: 2
Flags: W
AnchorPoint: "Anchor-10" 345.043 1506.92 basechar 0
AnchorPoint: "Anchor-7" 705.363 -194.3 basechar 0
LayerCount: 2
Fore
SplineSet
673.137695312 260.62890625 m 1,0,-1
 772.147460938 260.62890625 l 2,1,2
 1035.24316406 260.993164062 1035.24316406 260.993164062 1147.17089844 305.668945312 c 0,3,4
 1207.61914062 329.795898438 1207.61914062 329.795898438 1234.23242188 364.830078125 c 128,-1,5
 1260.84667969 399.86328125 1260.84667969 399.86328125 1260.74316406 451.130859375 c 0,6,7
 1260.81347656 467.774414062 1260.81347656 467.774414062 1258.06152344 482.000976562 c 128,-1,8
 1255.31054688 496.227539062 1255.31054688 496.227539062 1250.01367188 507.969726562 c 128,-1,9
 1244.71777344 519.712890625 1244.71777344 519.712890625 1236.59960938 530.315429688 c 0,10,11
 1200.16308594 578.059570312 1200.16308594 578.059570312 1122.29199219 578.295898438 c 0,12,13
 961.085975907 577.914290997 961.085975907 577.914290997 770.028226951 372 c 4,14,15
 725.597417055 324.114275562 725.597417055 324.114275562 673.137695312 260.62890625 c 1,0,-1
476.0546875 414.311523438 m 1,16,17
 814 838 814 838 1129.21289062 837.900390625 c 0,18,19
 1296 838 1296 838 1403.39746094 739.297851562 c 0,20,21
 1518 633 1518 633 1517.65429688 460.419921875 c 0,22,23
 1518 247 1518 247 1340.08984375 121.696289062 c 0,24,25
 1168 0 1168 0 788.905273438 0 c 2,26,-1
 683 0 l 2,27,28
 234.264572056 0 234.264572056 0 60.6005859375 32.6904296875 c 2,29,-1
 28.166015625 38.7958984375 l 1,30,-1
 28.0009765625 71.798828125 l 1,31,-1
 27.255859375 220.276367188 l 1,32,-1
 27.0537109375 260.477539062 l 1,33,-1
 67.2548828125 260.477539062 l 1,34,-1
 253.008789062 260.479492188 l 1,35,-1
 220.546875 1354.54296875 l 1,36,-1
 476.154296875 1435.89746094 l 1,37,-1
 476.0546875 414.311523438 l 1,16,17
EndSplineSet
Substitution2: "'fina' Terminal Forms in Arabic lookup 9 subtable" uniFEC2
Substitution2: "'medi' Medial Forms in Arabic lookup 11 subtable" uniFEC4
Substitution2: "'init' Initial Forms in Arabic lookup 13 subtable" uniFEC3
EndChar

StartChar: uni0639
Encoding: 1593 1593 33
Width: 1227
VWidth: 2351
GlyphClass: 2
Flags: W
AnchorPoint: "Anchor-7" 584.525 -773.648 basechar 0
AnchorPoint: "Anchor-10" 627.59 1391.96 basechar 0
LayerCount: 2
Fore
SplineSet
493.016601562 788.41796875 m 0,0,1
 473.866210938 760.701171875 473.866210938 760.701171875 471.114257812 730.846679688 c 128,-1,2
 468.361328125 700.9921875 468.361328125 700.9921875 485.1875 662.306640625 c 128,-1,3
 502.013671875 623.622070312 502.013671875 623.622070312 540.856445312 577.791015625 c 0,4,5
 554.595703125 561.42578125 554.595703125 561.42578125 567.90625 547.706054688 c 128,-1,6
 581.216796875 533.985351562 581.216796875 533.985351562 590.859375 525.74609375 c 128,-1,7
 600.501953125 517.505859375 600.501953125 517.505859375 607.213867188 512.721679688 c 128,-1,8
 613.92578125 507.936523438 613.92578125 507.936523438 617.229492188 506.764648438 c 0,9,10
 672.028320312 512.423828125 672.028320312 512.423828125 706.102539062 515.803710938 c 128,-1,11
 740.177734375 519.182617188 740.177734375 519.182617188 756.997070312 520.629882812 c 0,12,13
 879.618164062 532.859375 879.618164062 532.859375 1002.18945312 544.534179688 c 2,14,-1
 1045.98242188 548.706054688 l 1,15,-1
 1045.98242188 504.71484375 l 1,16,-1
 1045.98242188 338.348632812 l 1,17,-1
 1045.98242188 301.3203125 l 1,18,-1
 1009.06445312 298.467773438 l 2,19,20
 995.747070312 297.438476562 995.747070312 297.438476562 982.759765625 296.360351562 c 128,-1,21
 969.772460938 295.283203125 969.772460938 295.283203125 957.147460938 294.159179688 c 128,-1,22
 944.521484375 293.036132812 944.521484375 293.036132812 932.233398438 291.865234375 c 128,-1,23
 919.9453125 290.694335938 919.9453125 290.694335938 908.021484375 289.477539062 c 128,-1,24
 896.098632812 288.26171875 896.098632812 288.26171875 884.51953125 286.999023438 c 128,-1,25
 872.94140625 285.737304688 872.94140625 285.737304688 861.73046875 284.430664062 c 128,-1,26
 850.518554688 283.124023438 850.518554688 283.124023438 839.661132812 281.771484375 c 128,-1,27
 828.802734375 280.419921875 828.802734375 280.419921875 818.314453125 279.024414062 c 128,-1,28
 807.826171875 277.629882812 807.826171875 277.629882812 797.698242188 276.190429688 c 0,29,30
 537.279296875 238.241210938 537.279296875 238.241210938 412.107421875 119.986328125 c 0,31,32
 305.13671875 18 305.13671875 18 306.143554688 -108.299804688 c 0,33,34
 306.887695312 -235.637695312 306.887695312 -235.637695312 405.06640625 -313.869140625 c 0,35,36
 508.15625 -397.02734375 508.15625 -397.02734375 777.890625 -397.551757812 c 0,37,38
 962.4609375 -397.987304688 962.4609375 -397.987304688 1089.37304688 -361.837890625 c 2,39,-1
 1127.90234375 -350.86328125 l 1,40,-1
 1138.81738281 -389.409179688 l 1,41,-1
 1182.82617188 -544.821289062 l 1,42,-1
 1193.4765625 -582.4296875 l 1,43,-1
 1156.12402344 -593.944335938 l 2,44,45
 984.000976562 -647.0078125 984.000976562 -647.0078125 779.954101562 -646.745117188 c 0,46,47
 569.34375 -646.876953125 569.34375 -646.876953125 418.26953125 -597.305664062 c 128,-1,48
 267.1953125 -547.734375 267.1953125 -547.734375 177.803710938 -445.293945312 c 0,49,50
 55.8720703125 -305.877929688 55.8720703125 -305.877929688 57.5205078125 -111.470703125 c 0,51,52
 59.107421875 75.8076171875 59.107421875 75.8076171875 153.950195312 210.686523438 c 0,53,54
 237.111328125 328.067382812 237.111328125 328.067382812 365.66015625 400.307617188 c 1,55,56
 320.646484375 451.112304688 320.646484375 451.112304688 290.30078125 502.365234375 c 128,-1,57
 259.955078125 553.618164062 259.955078125 553.618164062 244.182617188 606.8828125 c 128,-1,58
 228.411132812 660.146484375 228.411132812 660.146484375 228.61328125 713.521484375 c 0,59,60
 229.038085938 844.977539062 229.038085938 844.977539062 294.547851562 945.142578125 c 0,61,62
 411.432617188 1123.01660156 411.432617188 1123.01660156 626.860351562 1122.85449219 c 0,63,64
 856.452148438 1123.01464844 856.452148438 1123.01464844 989.986328125 937.961914062 c 2,65,-1
 1007.84667969 913.211914062 l 1,66,-1
 988.690429688 889.450195312 l 1,67,-1
 897.140625 775.89453125 l 1,68,-1
 868.911132812 740.880859375 l 1,69,-1
 837.431640625 773.002929688 l 2,70,71
 750.825195312 861.375976562 750.825195312 861.375976562 646.971679688 863.711914062 c 0,72,73
 594.387695312 865.123046875 594.387695312 865.123046875 557.247070312 846.775390625 c 128,-1,74
 520.106445312 828.426757812 520.106445312 828.426757812 493.016601562 788.41796875 c 0,0,1
EndSplineSet
Substitution2: "'fina' Terminal Forms in Arabic lookup 9 subtable" uniFECA
Substitution2: "'medi' Medial Forms in Arabic lookup 11 subtable" uniFECC
Substitution2: "'init' Initial Forms in Arabic lookup 13 subtable" uniFECB
EndChar

StartChar: afii57440
Encoding: 1600 1600 35
Width: 260
VWidth: 2351
GlyphClass: 2
Flags: W
AnchorPoint: "Anchor-10" 133.44 1394.15 basechar 0
AnchorPoint: "Anchor-7" 133.44 -80.3096 basechar 0
LayerCount: 2
Fore
SplineSet
266.620117188 0 m 2,0,-1
 -4 0 l 2,1,2
 -29.490234375 0 -29.490234375 0 -49.1357421875 12.5048828125 c 0,3,4
 -91.6240234375 39.548828125 -91.6240234375 39.548828125 -91.6240234375 114 c 2,5,-1
 -91.6240234375 147.895507812 l 2,6,7
 -91.99609375 219.142578125 -91.99609375 219.142578125 -51.3701171875 246.62890625 c 0,8,9
 -30.8984375 260.479492188 -30.8984375 260.479492188 -3.6240234375 260.479492188 c 2,10,-1
 267.919921875 260.479492188 l 2,11,12
 281.739257812 260.103515625 281.739257812 260.103515625 292.204101562 255.702148438 c 128,-1,13
 302.669921875 251.30078125 302.669921875 251.30078125 308.706054688 242.227539062 c 128,-1,14
 314.743164062 233.155273438 314.743164062 233.155273438 318.681640625 225.403320312 c 128,-1,15
 322.620117188 217.650390625 322.620117188 217.650390625 323.9375 203.9453125 c 128,-1,16
 325.25390625 190.239257812 325.25390625 190.239257812 325.692382812 183.641601562 c 128,-1,17
 326.129882812 177.044921875 326.129882812 177.044921875 325.752929688 163.211914062 c 128,-1,18
 325.375976562 149.377929688 325.375976562 149.377929688 325.375976562 148 c 2,19,-1
 325.375976562 113.8984375 l 2,20,21
 325.372070312 113.060546875 325.372070312 113.060546875 325.653320312 98.3583984375 c 128,-1,22
 325.934570312 83.6572265625 325.934570312 83.6572265625 325.424804688 77.3076171875 c 128,-1,23
 324.916015625 70.9580078125 324.916015625 70.9580078125 323.474609375 56.595703125 c 128,-1,24
 322.033203125 42.234375 322.033203125 42.234375 317.990234375 34.6015625 c 128,-1,25
 313.947265625 26.96875 313.947265625 26.96875 307.794921875 17.673828125 c 128,-1,26
 301.642578125 8.37890625 301.642578125 8.37890625 291.077148438 4.189453125 c 128,-1,27
 280.51171875 0 280.51171875 0 266.620117188 0 c 2,0,-1
EndSplineSet
EndChar

StartChar: uni0643
Encoding: 1603 1603 38
Width: 1876
VWidth: 2351
GlyphClass: 2
Flags: W
AnchorPoint: "Anchor-10" 958.52 1442.01 basechar 0
AnchorPoint: "Anchor-7" 798.06 -161.16 basechar 0
LayerCount: 2
Fore
SplineSet
719.828125 866.915039062 m 2,0,1
 922.302272706 840.210316882 922.302272706 840.210316882 986.24609375 886.927734375 c 0,2,3
 1003.51388956 899.542634476 1003.51388956 899.542634476 1003.52148438 908.446289062 c 2,4,-1
 1003.50976562 908.77734375 l 2,5,6
 1003.0008737 922.63210573 1003.0008737 922.63210573 956.075143879 930.420545052 c 0,7,8
 865.7093661 945.418892011 865.7093661 945.418892011 819.687690862 996.184543662 c 128,-1,9
 773.666015625 1046.95019531 773.666015625 1046.95019531 775.438476562 1112.65673828 c 0,10,11
 781.394082433 1333.43580583 781.394082433 1333.43580583 1110.28027344 1354.27929688 c 2,12,-1
 1169.71582031 1358.04589844 l 1,13,-1
 1169.71582031 1185.16601562 l 1,14,-1
 1117.96875 1181.34765625 l 2,15,16
 1018.8619141 1173.8325318 1018.8619141 1173.8325318 973.951171875 1143.52832031 c 0,17,18
 929.849425999 1113.76999151 929.849425999 1113.76999151 967.674804688 1100.80078125 c 0,19,20
 988.136454332 1093.42331077 988.136454332 1093.42331077 1032.43102013 1086.79368664 c 128,-1,21
 1076.72558594 1080.1640625 1076.72558594 1080.1640625 1110.29296875 1057.66894531 c 0,22,23
 1179.50894367 1011.28264302 1179.50894367 1011.28264302 1179.55273438 916.778320312 c 0,24,25
 1179.48665479 795.821583054 1179.48665479 795.821583054 1053.17985083 723.573389183 c 128,-1,26
 926.86758389 651.322070454 926.86758389 651.322070454 707.999023438 687.931640625 c 2,27,-1
 674.59765625 693.518554688 l 1,28,-1
 674.59765625 872.880859375 l 1,29,-1
 719.828125 866.915039062 l 2,0,1
1557.89355469 504.3671875 m 2,30,-1
 1519.52636719 1355.83007812 l 1,31,-1
 1777.65820312 1435.31542969 l 5,32,-1
 1777.65820312 474.59375 l 1,33,34
 1779 366 1779 366 1748.95232379 300.813242338 c 0,35,36
 1719 236 1719 236 1673.78515625 191.091796875 c 0,37,38
 1583 102 1583 102 1423.80896561 51.8355984799 c 0,39,40
 1264 2 1264 2 911.57421875 0.99609375 c 128,-1,41
 559 -0 559 -0 398.098632812 67.8720703125 c 0,42,43
 86 200 86 200 61.908203125 499.64453125 c 0,44,45
 49.9682315376 651.403783045 49.9682315376 651.403783045 92.591796875 802.815429688 c 2,46,-1
 103.25390625 840.690429688 l 1,47,-1
 318.48828125 783.900390625 l 1,48,-1
 312.838867188 748.1953125 l 2,49,50
 290 604 290 604 293.557310051 534.955611816 c 0,51,52
 297 465 297 465 334.366210938 407.458007812 c 0,53,54
 411 290 411 290 644.049804688 270.24609375 c 0,55,56
 810 256 810 256 1193.73144531 272.75 c 0,57,58
 1391 281 1391 281 1476.40820312 339.2109375 c 0,59,60
 1563 398 1563 398 1557.89355469 504.3671875 c 2,30,-1
EndSplineSet
Substitution2: "'fina' Terminal Forms in Arabic lookup 9 subtable" uniFEDA
Substitution2: "'medi' Medial Forms in Arabic lookup 11 subtable" uniFEDC
Substitution2: "'init' Initial Forms in Arabic lookup 13 subtable" uniFEDB
EndChar

StartChar: uni0644
Encoding: 1604 1604 39
Width: 1369
VWidth: 2351
GlyphClass: 2
Flags: W
AnchorPoint: "Anchor-7" 638.95 -688.09 basechar 0
AnchorPoint: "Anchor-10" 624.91 1145.85 basechar 0
LayerCount: 2
Fore
SplineSet
663.09375 -234.501953125 m 0,0,-1
 678.118164062 -234.368164062 l 2,1,2
 868 -233 868 -233 958.130859375 -130.240234375 c 0,3,4
 1047.26226839 -28.7012223461 1047.26226839 -28.7012223461 1042.83984375 181.599609375 c 2,5,-1
 1018.24609375 1351.11328125 l 1,6,-1
 1271.49707031 1436.04199219 l 5,7,-1
 1271.49707031 446.279296875 l 1,8,-1
 1271.49707031 441.96875 l 2,9,10
 1268.42956795 423.59174957 1268.42956795 423.59174957 1269.18066406 395.05078125 c 0,11,12
 1270 357 1270 357 1269.01464844 294.260742188 c 0,13,14
 1268 232 1268 232 1268.54101562 141.599609375 c 0,15,16
 1270 -12 1270 -12 1231.21582031 -129.512695312 c 0,17,18
 1193 -247 1193 -247 1116.2734375 -326.573242188 c 0,19,20
 1040 -406 1040 -406 925.174804688 -446.669921875 c 0,21,22
 811 -487 811 -487 660.421875 -487.545898438 c 0,23,24
 410 -488 410 -488 254.596679688 -368.213867188 c 0,25,26
 49 -210 49 -210 49.55859375 88.4501953125 c 0,27,28
 50 185 50 185 76.4658203125 292.977539062 c 0,29,30
 102.665273676 399.637306236 102.665273676 399.637306236 155.817382812 519.926757812 c 2,31,-1
 170.967773438 554.213867188 l 1,32,-1
 206.166015625 541.318359375 l 1,33,-1
 354.900390625 486.826171875 l 1,34,-1
 393.923828125 472.529296875 l 1,35,-1
 378.14453125 434.080078125 l 2,36,37
 301 246 301 246 300.893554688 105.270507812 c 0,38,39
 301 -34 301 -34 381.946289062 -132.65625 c 0,40,41
 465 -234 465 -234 663.09375 -234.501953125 c 0,0,-1
EndSplineSet
Substitution2: "'fina' Terminal Forms in Arabic lookup 9 subtable" uniFEDE
Substitution2: "'medi' Medial Forms in Arabic lookup 11 subtable" uniFEE0
Substitution2: "'init' Initial Forms in Arabic lookup 13 subtable" uniFEDF
EndChar

StartChar: uni0645
Encoding: 1605 1605 40
Width: 1180
VWidth: 2351
GlyphClass: 2
Flags: W
AnchorPoint: "Anchor-10" 593.79 1069.87 basechar 0
AnchorPoint: "Anchor-7" 692.148 -182.569 basechar 0
LayerCount: 2
Fore
SplineSet
521.32421875 273.62890625 m 1,0,1
 801.234375 266.989257812 l 2,2,3
 834 266 834 266 850.737304688 272.099609375 c 0,4,5
 860 275 860 275 868.723632812 280.970703125 c 0,6,7
 880 289 880 289 892.610351562 315.000976562 c 0,8,9
 914 360 914 360 869.2109375 410.705078125 c 0,10,11
 825 461 825 461 687.557617188 518.225585938 c 0,12,13
 631 542 631 542 587.79296875 524.662109375 c 0,14,15
 556.686065919 512.651028312 556.686065919 512.651028312 541.333007812 467.295898438 c 0,16,17
 532.547161677 442.541636757 532.547161677 442.541636757 523.38671875 304.670898438 c 2,18,-1
 521.32421875 273.62890625 l 1,0,1
55.400390625 -176.360351562 m 2,19,20
 55.400390625 177.10916851 55.400390625 177.10916851 284.743164062 239.640625 c 1,21,22
 275 615 275 615 456 741.493164062 c 0,23,24
 541 801 541 801 644 799.944163596 c 0,25,26
 713 799 713 799 786.051668092 764.555815978 c 0,27,28
 1202 566 1202 566 1127.5234375 299.9765625 c 0,29,30
 1095 184 1095 184 1055.63574219 119.16796875 c 0,31,32
 991 13 991 13 827.359375 7.3701171875 c 0,33,34
 779 6 779 6 618.5 10.5 c 128,-1,35
 458 15 458 15 433 14 c 128,-1,36
 408 13 408 13 403.407226562 13.00390625 c 0,37,38
 334 10 334 10 301.952137125 -44.0794259857 c 0,39,40
 270.278997117 -97.5291806414 270.278997117 -97.5291806414 276.40625 -223.176757812 c 2,41,-1
 299.868164062 -704.294921875 l 1,42,-1
 301.06640625 -728.861328125 l 1,43,-1
 55.400390625 -838.515625 l 5,44,-1
 55.400390625 -176.360351562 l 2,19,20
EndSplineSet
Substitution2: "'init' Initial Forms in Arabic lookup 13 subtable" uniFEE3
Substitution2: "'medi' Medial Forms in Arabic lookup 11 subtable" uniFEE4
Substitution2: "'fina' Terminal Forms in Arabic lookup 9 subtable" uniFEE2
EndChar

StartChar: uni0647
Encoding: 1607 1607 42
Width: 915
VWidth: 2351
GlyphClass: 2
Flags: W
AnchorPoint: "Anchor-10" 428.3 1206.62 basechar 0
AnchorPoint: "Anchor-7" 428.016 -177.273 basechar 0
LayerCount: 2
Fore
SplineSet
450.090820312 636.911132812 m 1,0,1
 298.192382812 488.790039062 298.192382812 488.790039062 299.056640625 361.448242188 c 0,2,3
 299.400390625 310.306640625 299.400390625 310.306640625 334.305664062 285.541015625 c 128,-1,4
 369.2109375 260.775390625 369.2109375 260.775390625 457.600585938 260.59375 c 0,5,6
 549.620117188 260.77734375 549.620117188 260.77734375 585.80078125 283.975585938 c 128,-1,7
 621.981445312 307.173828125 621.981445312 307.173828125 622.494140625 352.059570312 c 0,8,9
 623.727539062 480.743164062 623.727539062 480.743164062 450.090820312 636.911132812 c 1,0,1
458.8203125 3.7421875 m 0,10,11
 284.19921875 4.0224609375 284.19921875 4.0224609375 177.440429688 87.427734375 c 0,12,13
 60.53515625 179.237304688 60.53515625 179.237304688 59.1875 356.473632812 c 0,14,15
 56.9658203125 554.796875 56.9658203125 554.796875 271.897460938 797.489257812 c 1,16,-1
 266.678710938 801.916992188 l 1,17,-1
 238.543945312 825.788085938 l 1,18,-1
 260.0703125 855.754882812 l 1,19,-1
 360.913085938 996.13671875 l 1,20,-1
 385.397460938 1030.21972656 l 1,21,-1
 418.267578125 1004.13085938 l 2,22,23
 858.788085938 654.48828125 858.788085938 654.48828125 862.063476562 357.263671875 c 0,24,25
 863.131835938 269.545898438 863.131835938 269.545898438 829.81640625 198.1328125 c 128,-1,26
 796.501953125 126.719726562 796.501953125 126.719726562 730.278320312 76.2099609375 c 0,27,28
 634.459960938 2.9375 634.459960938 2.9375 458.8203125 3.7421875 c 0,10,11
EndSplineSet
Substitution2: "'fina' Terminal Forms in Arabic lookup 9 subtable" uniFEEA
Substitution2: "'medi' Medial Forms in Arabic lookup 11 subtable" uniFEEC
Substitution2: "'init' Initial Forms in Arabic lookup 13 subtable" uniFEEB
EndChar

StartChar: uni0648
Encoding: 1608 1608 43
Width: 891
VWidth: 2351
GlyphClass: 2
Flags: W
AnchorPoint: "Anchor-7" 336.38 -608.85 basechar 0
AnchorPoint: "Anchor-10" 434.959 1061.28 basechar 0
LayerCount: 2
Fore
SplineSet
442.333007812 547.80859375 m 0,0,1
 389.731445312 546.333007812 389.731445312 546.333007812 354.73828125 510.899414062 c 128,-1,2
 319.745117188 475.466796875 319.745117188 475.466796875 299.333007812 394.965820312 c 0,3,4
 290.740234375 361.484375 290.740234375 361.484375 290.822265625 335.436523438 c 0,5,6
 290.975585938 286.668945312 290.975585938 286.668945312 323.1796875 263.576171875 c 128,-1,7
 355.383789062 240.484375 355.383789062 240.484375 438.734375 240.7578125 c 0,8,9
 486.528320312 240.853515625 486.528320312 240.853515625 524.357421875 249.850585938 c 128,-1,10
 562.186523438 258.84765625 562.186523438 258.84765625 590.028320312 275.616210938 c 1,11,12
 589.233398438 316.939453125 589.233398438 316.939453125 586.24609375 344.5703125 c 0,13,14
 573.338867188 457.047851562 573.338867188 457.047851562 537.345703125 503.408203125 c 128,-1,15
 501.352539062 549.768554688 501.352539062 549.768554688 442.333007812 547.80859375 c 0,0,1
763.176757812 590.915039062 m 0,16,17
 831.036132812 451.12109375 831.036132812 451.12109375 830.135742188 222.168945312 c 0,18,19
 828.948242188 -90.724609375 828.948242188 -90.724609375 694.561523438 -264.577148438 c 0,20,21
 502.73046875 -513.955078125 502.73046875 -513.955078125 103.170898438 -517.41796875 c 2,22,-1
 101.255859375 -517.434570312 l 1,23,-1
 73.83203125 -517.672851562 l 1,24,-1
 63.724609375 -492.178710938 l 1,25,-1
 8.3642578125 -352.541015625 l 1,26,-1
 -12.02734375 -301.104492188 l 1,27,-1
 43.2080078125 -297.8671875 l 2,28,29
 269.481445312 -284.604492188 269.481445312 -284.604492188 398.044921875 -206.415039062 c 128,-1,30
 526.609375 -128.224609375 526.609375 -128.224609375 567.754882812 13.578125 c 1,31,32
 496.837890625 -8.923828125 496.837890625 -8.923828125 414.296875 -8.74609375 c 0,33,34
 310.0859375 -7.931640625 310.0859375 -7.931640625 237.692382812 25.3974609375 c 0,35,36
 149.02734375 66.1015625 149.02734375 66.1015625 103.431640625 140.529296875 c 128,-1,37
 57.8359375 214.956054688 57.8359375 214.956054688 58.8818359375 315.984375 c 0,38,39
 60.0830078125 440.802734375 60.0830078125 440.802734375 113.16796875 558.258789062 c 0,40,41
 165.610351562 675.233398438 165.610351562 675.233398438 249.09765625 737.380859375 c 128,-1,42
 332.5859375 799.528320312 332.5859375 799.528320312 442.794921875 800.208007812 c 0,43,44
 550.811523438 800.6484375 550.811523438 800.6484375 632.303710938 747.125976562 c 128,-1,45
 713.794921875 693.603515625 713.794921875 693.603515625 763.176757812 590.915039062 c 0,16,17
EndSplineSet
Substitution2: "'fina' Terminal Forms in Arabic lookup 9 subtable" uniFEEE
EndChar

StartChar: uni0649
Encoding: 1609 1609 44
Width: 1470
VWidth: 2351
GlyphClass: 2
Flags: W
AnchorPoint: "Anchor-10" 628.105 802.314 basechar 0
AnchorPoint: "Anchor-7" 636.429 -667.4 basechar 0
LayerCount: 2
Fore
SplineSet
1043.86523438 229.727539062 m 2,0,-1
 1099.96582031 230.900390625 l 2,1,2
 1151 232 1151 232 1202.63378906 224.192382812 c 0,3,4
 1248 217 1248 217 1283.56347656 202.759765625 c 0,5,6
 1347 177 1347 177 1380.28417969 120.596679688 c 0,7,8
 1413 65 1413 65 1413.4375 -13.12109375 c 0,9,10
 1414 -157 1414 -157 1325.45117188 -267.93359375 c 0,11,12
 1139 -502 1139 -502 707.8671875 -504.716796875 c 0,13,14
 668 -505 668 -505 630.083984375 -502.521484375 c 0,15,16
 593 -500 593 -500 557.189453125 -495.614257812 c 0,17,18
 522 -491 522 -491 489.111328125 -483.90234375 c 0,19,20
 456 -477 456 -477 425.916015625 -467.25 c 0,21,22
 395 -458 395 -458 367.53125 -445.565429688 c 0,23,24
 91 -324 91 -324 60.1396484375 3.3583984375 c 0,25,26
 57 37 57 37 57.1123046875 70.77734375 c 0,27,28
 56.0003855677 279.927475366 56.0003855677 279.927475366 186.672851562 558.40625 c 2,29,-1
 203.266601562 593.76953125 l 1,30,-1
 239.012695312 578.01953125 l 1,31,-1
 376.127929688 517.604492188 l 1,32,-1
 412.737304688 501.473632812 l 1,33,-1
 396.602539062 464.8671875 l 2,34,35
 378 422 378 422 363.897460938 384.124023438 c 0,36,37
 349 344 349 344 338.251953125 306.465820312 c 0,38,39
 327 268 327 268 319.61328125 231.912109375 c 0,40,41
 312 195 312 195 307.869140625 160.439453125 c 0,42,43
 303 116 303 116 302.965820312 92.0673828125 c 0,44,45
 303 84 303 84 302.813476562 75.5537109375 c 0,46,47
 304 -91 304 -91 402.78515625 -170.71484375 c 0,48,49
 502 -250 502 -250 716.017578125 -248.955078125 c 0,50,51
 1004 -247 1004 -247 1136.32910156 -119.581054688 c 0,52,53
 1180 -78 1180 -78 1180.56152344 -51.609375 c 0,54,55
 1181 -32 1181 -32 1169.41894531 -27.2958984375 c 0,56,57
 1160.1931917 -24.0676020733 1160.1931917 -24.0676020733 1138.35058594 -23.970703125 c 2,58,-1
 1027.84375 -23.48046875 l 2,59,60
 889 -23 889 -23 810.2890625 39.1845703125 c 0,61,62
 732 101 732 101 732.15625 219.091796875 c 0,63,64
 733 462 733 462 952.696289062 634.807617188 c 0,65,66
 1116.37701031 764.298259356 1116.37701031 764.298259356 1380.60351562 764.509765625 c 6,67,-1
 1408.66308594 764.532226562 l 5,68,-1
 1361.87207031 492.094726562 l 1,69,-1
 1329.33007812 492.115234375 l 1,70,-1
 1315.16503906 492.124023438 l 2,71,72
 1201 492 1201 492 1103.87011719 429.076171875 c 0,73,74
 1033 383 1033 383 994.647460938 305.239257812 c 0,75,76
 987 290 987 290 982.196289062 274.758789062 c 0,77,78
 975.466864942 253.299933549 975.466864942 253.299933549 975.056640625 244.560546875 c 2,79,-1
 974.857421875 240.31640625 l 1,80,81
 976 228 976 228 1043.86523438 229.727539062 c 2,0,-1
EndSplineSet
Substitution2: "'fina' Terminal Forms in Arabic lookup 9 subtable" uniFEF0
Substitution2: "'medi' Medial Forms in Arabic lookup 11 subtable" uniFBE9
Substitution2: "'init' Initial Forms in Arabic lookup 13 subtable" uniFBE8
EndChar

StartChar: uni064B
Encoding: 1611 1611 46
Width: -26
VWidth: 2316
GlyphClass: 4
Flags: W
AnchorPoint: "Anchor-10" 583.551 1123.65 mark 0
AnchorPoint: "Anchor-9" 583.551 1123.65 mark 0
AnchorPoint: "Anchor-1" 553.285 1596.25 basemark 0
AnchorPoint: "Anchor-1" 583.551 1123.65 mark 0
LayerCount: 2
Fore
SplineSet
306.700195312 1076.40039062 m 1,0,-1
 306.700195312 1179.97753906 l 1,1,-1
 306.700195312 1193.40453724 l 1,2,-1
 319.127502848 1198.48846364 l 1,3,-1
 774.526916911 1384.78924489 l 1,4,-1
 802.099609375 1396.06904453 l 1,5,-1
 802.099609375 1366.27832031 l 1,6,-1
 802.099609375 1262.70019531 l 1,7,-1
 802.099609375 1249.27317048 l 1,8,-1
 789.672267835 1244.18925682 l 1,9,-1
 334.272853772 1057.88945213 l 1,10,-1
 306.700195312 1046.60972552 l 1,11,-1
 306.700195312 1076.40039062 l 1,0,-1
306.700195312 1288.40039062 m 1,12,-1
 306.700195312 1391.97753906 l 1,13,-1
 306.700195312 1405.40453724 l 1,14,-1
 319.127502848 1410.48846364 l 1,15,-1
 774.526916911 1596.78924489 l 1,16,-1
 802.099609375 1608.06904453 l 1,17,-1
 802.099609375 1578.27832031 l 1,18,-1
 802.099609375 1474.70019531 l 1,19,-1
 802.099609375 1461.27317048 l 1,20,-1
 789.672267835 1456.18925682 l 1,21,-1
 334.272853772 1269.88945213 l 1,22,-1
 306.700195312 1258.60972552 l 1,23,-1
 306.700195312 1288.40039062 l 1,12,-1
EndSplineSet
EndChar

StartChar: uni064C
Encoding: 1612 1612 47
Width: -26
VWidth: 2316
GlyphClass: 4
Flags: W
AnchorPoint: "Anchor-10" 680.906 1278.67 mark 0
AnchorPoint: "Anchor-9" 680.906 1278.67 mark 0
AnchorPoint: "Anchor-1" 571.739 1885.46 basemark 0
AnchorPoint: "Anchor-1" 680.906 1278.67 mark 0
LayerCount: 2
Fore
SplineSet
626.254163828 1443.64928126 m 2,0,1
 549.908321812 1471.18644059 549.908321812 1471.18644059 509.475243998 1517.84461336 c 128,-1,2
 469.042166184 1564.50278613 469.042166184 1564.50278613 469.095690518 1628.59872298 c 0,3,4
 469.043160523 1663.39502099 469.043160523 1663.39502099 479.185045769 1693.64691914 c 128,-1,5
 489.326931015 1723.89881729 489.326931015 1723.89881729 509.638032379 1748.61484852 c 0,6,7
 561.632165822 1810.99852734 561.632165822 1810.99852734 651.820556157 1811.01269488 c 0,8,9
 720.063724478 1810.99853474 720.063724478 1810.99853474 770.097023086 1770.63282831 c 0,10,11
 779.202185509 1763.32118171 779.202185509 1763.32118171 787.114038026 1755.04127088 c 128,-1,12
 795.025890544 1746.76136005 795.025890544 1746.76136005 801.696600613 1737.5710898 c 128,-1,13
 808.367310682 1728.38081955 808.367310682 1728.38081955 813.788906331 1718.27493628 c 128,-1,14
 819.210501981 1708.16905301 819.210501981 1708.16905301 823.326867779 1697.23277725 c 0,15,16
 835.06482979 1665.39334893 835.06482979 1665.39334893 834.390386723 1628.20479638 c 0,17,18
 834.047509987 1577.02467185 834.047509987 1577.02467185 815.548178078 1523.61022002 c 1,19,20
 822.997180223 1522.67706999 822.997180223 1522.67706999 830.9059454 1522.51535134 c 2,21,-1
 850.497070312 1522.11475147 l 1,22,-1
 850.497070312 1502.51953125 l 1,23,-1
 850.497070312 1427.00878906 l 1,24,-1
 850.497070312 1406.325426 l 1,25,-1
 829.825375288 1407.0200716 l 2,26,27
 823.414842869 1407.23548926 823.414842869 1407.23548926 815.838458177 1407.82697093 c 128,-1,28
 808.262073485 1408.41845261 808.262073485 1408.41845261 800.100337728 1409.32554788 c 128,-1,29
 791.938601971 1410.23264315 791.938601971 1410.23264315 783.310466185 1411.4115803 c 128,-1,30
 774.6823304 1412.59051744 774.6823304 1412.59051744 765.810178081 1414.01151733 c 1,31,32
 665.748099366 1192.03742249 665.748099366 1192.03742249 473.775746656 1190.96409787 c 0,33,34
 364.069946862 1190.43717947 364.069946862 1190.43717947 307.332943695 1267.44297634 c 128,-1,35
 250.595940529 1344.44877321 250.595940529 1344.44877321 248.003188013 1489.64291407 c 2,36,-1
 247.700300586 1506.60461002 l 1,37,-1
 264.385333211 1509.67064269 l 1,38,-1
 343.181231648 1524.15013488 l 1,39,-1
 366.332917478 1528.4044763 l 1,40,-1
 366.792092948 1504.86962691 l 2,41,42
 370.612729187 1309.04449178 370.612729187 1309.04449178 472.449442415 1309.27524332 c 0,43,44
 494.917093976 1309.42130333 494.917093976 1309.42130333 516.665334442 1317.16262015 c 128,-1,45
 538.413574909 1324.90393696 538.413574909 1324.90393696 559.82916019 1340.53423302 c 128,-1,46
 581.244745472 1356.16452908 581.244745472 1356.16452908 602.214220699 1380.5043842 c 128,-1,47
 623.183695926 1404.84423932 623.183695926 1404.84423932 643.221623905 1437.52929307 c 1,48,-1
 626.254163828 1443.64928126 l 2,0,1
697.412635424 1546.90120223 m 1,49,50
 706.741385105 1568.73128086 706.741385105 1568.73128086 711.338258516 1588.70177032 c 128,-1,51
 715.935131928 1608.67225979 715.935131928 1608.67225979 716.003760924 1626.76913295 c 0,52,53
 715.881991293 1658.5449933 715.881991293 1658.5449933 698.07050766 1673.11688288 c 0,54,55
 678.282337631 1690.16895653 678.282337631 1690.16895653 655.512658089 1690.52625851 c 0,56,57
 620.627063294 1690.93636514 620.627063294 1690.93636514 602.145705781 1666.82035793 c 0,58,59
 598.808859435 1662.42878498 598.808859435 1662.42878498 596.326195508 1657.73262087 c 128,-1,60
 593.843531581 1653.03645676 593.843531581 1653.03645676 592.14788101 1647.85798865 c 128,-1,61
 590.452230438 1642.67952055 590.452230438 1642.67952055 589.596402088 1636.9956463 c 128,-1,62
 588.740573738 1631.31177204 588.740573738 1631.31177204 588.713986514 1625.06554684 c 0,63,64
 588.809796591 1590.88902794 588.809796591 1590.88902794 642.967574459 1566.00087566 c 0,65,66
 660.75427022 1557.75044739 660.75427022 1557.75044739 697.412635424 1546.90120223 c 1,49,50
EndSplineSet
EndChar

StartChar: uni064D
Encoding: 1613 1613 48
Width: -26
VWidth: 2316
GlyphClass: 4
Flags: W
AnchorPoint: "Anchor-7" 542.278 32.7109 mark 0
AnchorPoint: "Anchor-6" 542.278 32.7109 mark 0
AnchorPoint: "Anchor-0" 592.022 -407.025 basemark 0
AnchorPoint: "Anchor-0" 542.278 32.7109 mark 0
LayerCount: 2
Fore
SplineSet
312.099609375 -446 m 1,0,-1
 312.099609375 -342.422851562 l 1,1,-1
 312.099609375 -328.995842477 l 1,2,-1
 324.526930822 -323.91192129 l 1,3,-1
 779.927321447 -137.61114004 l 1,4,-1
 807.5 -126.331370278 l 1,5,-1
 807.5 -156.122070312 l 1,6,-1
 807.5 -259.700195312 l 1,7,-1
 807.5 -273.127231046 l 1,8,-1
 795.072644549 -278.211139495 l 1,9,-1
 339.672253924 -464.510944183 l 1,10,-1
 312.099609375 -475.790640907 l 1,11,-1
 312.099609375 -446 l 1,0,-1
312.099609375 -234 m 1,12,-1
 312.099609375 -130.422851562 l 1,13,-1
 312.099609375 -116.995842477 l 1,14,-1
 324.526930822 -111.91192129 l 1,15,-1
 779.927321447 74.3888599593 l 1,16,-1
 807.5 85.668629721 l 1,17,-1
 807.5 55.8779296875 l 1,18,-1
 807.5 -47.7001953125 l 1,19,-1
 807.5 -61.1272310468 l 1,20,-1
 795.072644549 -66.2111394951 l 1,21,-1
 339.672253924 -252.510944183 l 1,22,-1
 312.099609375 -263.790640907 l 1,23,-1
 312.099609375 -234 l 1,12,-1
EndSplineSet
EndChar

StartChar: uni064E
Encoding: 1614 1614 49
Width: -26
VWidth: 2316
GlyphClass: 4
Flags: W
AnchorPoint: "Anchor-10" 545.66 1397.63 mark 0
AnchorPoint: "Anchor-9" 545.66 1397.63 mark 0
AnchorPoint: "Anchor-1" 541.396 1651.77 basemark 0
AnchorPoint: "Anchor-1" 545.66 1397.63 mark 0
LayerCount: 2
Fore
SplineSet
276.099609375 1349.09960938 m 1,0,-1
 276.099609375 1452.67773438 l 1,1,-1
 276.099609375 1466.10474347 l 1,2,-1
 288.526930822 1471.18866465 l 1,3,-1
 743.927321447 1657.48944589 l 1,4,-1
 771.5 1668.76921565 l 1,5,-1
 771.5 1638.97851562 l 1,6,-1
 771.5 1535.40039062 l 1,7,-1
 771.5 1521.97338153 l 1,8,-1
 759.072678553 1516.88946035 l 1,9,-1
 303.672287928 1330.58867911 l 1,10,-1
 276.099609375 1319.30890935 l 1,11,-1
 276.099609375 1349.09960938 l 1,0,-1
EndSplineSet
EndChar

StartChar: uni064F
Encoding: 1615 1615 50
Width: -26
VWidth: 2316
GlyphClass: 4
Flags: W
AnchorPoint: "Anchor-10" 591.295 1359.37 mark 0
AnchorPoint: "Anchor-9" 591.295 1359.37 mark 0
AnchorPoint: "Anchor-1" 570.134 1910.4 basemark 0
AnchorPoint: "Anchor-1" 591.295 1359.37 mark 0
LayerCount: 2
Fore
SplineSet
722.653281572 1407.00195315 m 2,0,1
 685.911395963 1407.00195315 685.911395963 1407.00195315 651.614939088 1411.56269144 c 1,2,3
 546.777428921 1276.06705544 546.777428921 1276.06705544 300.658743362 1262.70130149 c 2,4,-1
 279.57421875 1261.5562825 l 1,5,-1
 279.57421875 1282.671875 l 1,6,-1
 279.57421875 1360.92578125 l 1,7,-1
 279.57421875 1379.1699611 l 1,8,-1
 297.741650211 1380.8416466 l 2,9,10
 451.79937725 1395.01734716 451.79937725 1395.01734716 523.84998793 1444.644138 c 1,11,12
 489.974759774 1455.5658663 489.974759774 1455.5658663 456.787490361 1473.97593975 c 0,13,14
 359.965750351 1528.30861702 359.965750351 1528.30861702 360.250340051 1625.69832509 c 0,15,16
 361.083224132 1697.2677939 361.083224132 1697.2677939 400.780575367 1745.54779067 c 0,17,18
 452.611332205 1808.00463179 452.611332205 1808.00463179 542.957581868 1807.95995663 c 0,19,20
 611.045223431 1808.00462641 611.045223431 1808.00462641 661.254416801 1767.57758412 c 0,21,22
 673.378745891 1757.81475634 673.378745891 1757.81475634 683.349541977 1746.39423853 c 128,-1,23
 693.320338063 1734.97372071 693.320338063 1734.97372071 701.11986671 1721.89810477 c 128,-1,24
 708.919395356 1708.82248884 708.919395356 1708.82248884 714.485652545 1694.16906693 c 0,25,26
 726.047704879 1662.39460598 726.047704879 1662.39460598 725.544635238 1625.17178008 c 0,27,28
 725.451184723 1615.17441384 725.451184723 1615.17441384 724.624279003 1604.85829022 c 128,-1,29
 723.797373283 1594.54216659 723.797373283 1594.54216659 722.289446323 1584.27497698 c 128,-1,30
 720.781519363 1574.00778737 720.781519363 1574.00778737 718.612734024 1563.67730321 c 128,-1,31
 716.443948685 1553.34681905 716.443948685 1553.34681905 713.669072051 1543.206608 c 128,-1,32
 710.894195417 1533.06639695 710.894195417 1533.06639695 707.53105723 1523.11835419 c 1,33,34
 715.301929376 1522.52517327 715.301929376 1522.52517327 723.2857558 1522.27219378 c 2,35,-1
 742.65234375 1521.65853443 l 1,36,-1
 742.65234375 1502.28222656 l 1,37,-1
 742.65234375 1427.00195312 l 1,38,-1
 742.65234375 1407.00289093 l 1,39,-1
 722.653281572 1407.00195315 l 2,0,1
588.566932299 1543.84846785 m 1,40,41
 607.018922857 1587.0277168 607.018922857 1587.0277168 607.158057799 1623.71639857 c 0,42,43
 607.092983483 1640.69758151 607.092983483 1640.69758151 602.576117336 1651.76705653 c 128,-1,44
 598.05925119 1662.83653155 598.05925119 1662.83653155 589.224804535 1670.0641485 c 0,45,46
 585.002702483 1673.70246347 585.002702483 1673.70246347 580.823483381 1676.523374 c 128,-1,47
 576.64426428 1679.34428453 576.64426428 1679.34428453 572.510426214 1681.37947367 c 128,-1,48
 568.376588148 1683.41466281 568.376588148 1683.41466281 564.111557151 1684.74640325 c 128,-1,49
 559.846526153 1686.07814368 559.846526153 1686.07814368 555.555092028 1686.73976816 c 128,-1,50
 551.263657903 1687.40139264 551.263657903 1687.40139264 546.666954964 1687.47352414 c 0,51,52
 534.338921836 1687.61844952 534.338921836 1687.61844952 524.52215419 1685.00831835 c 128,-1,53
 514.705386543 1682.39818718 514.705386543 1682.39818718 507.139999594 1677.17672098 c 128,-1,54
 499.574612644 1671.95525477 499.574612644 1671.95525477 493.300002656 1663.76762356 c 0,55,56
 486.605085253 1654.95654414 486.605085253 1654.95654414 483.263093038 1644.6889661 c 128,-1,57
 479.921100822 1634.42138807 479.921100822 1634.42138807 479.868283389 1622.01281247 c 0,58,59
 479.913899472 1605.74104875 479.913899472 1605.74104875 492.436738622 1591.04534634 c 128,-1,60
 504.959577772 1576.34964392 504.959577772 1576.34964392 534.121871334 1562.94814129 c 0,61,62
 542.429421573 1559.09465168 542.429421573 1559.09465168 556.774362884 1554.0534206 c 128,-1,63
 571.119304195 1549.01218952 571.119304195 1549.01218952 588.566932299 1543.84846785 c 1,40,41
EndSplineSet
EndChar

StartChar: uni0650
Encoding: 1616 1616 51
Width: -26
VWidth: 2316
GlyphClass: 4
Flags: W
AnchorPoint: "Anchor-7" 571.144 -44.8242 mark 0
AnchorPoint: "Anchor-6" 571.144 -44.8242 mark 0
AnchorPoint: "Anchor-0" 619.091 -324.624 basemark 0
AnchorPoint: "Anchor-0" 571.144 -44.8242 mark 0
LayerCount: 2
Fore
SplineSet
322.900390625 -345.599609375 m 1,0,-1
 322.900390625 -242.022460938 l 1,1,-1
 322.900390625 -228.595462755 l 1,2,-1
 335.327698161 -223.511536357 l 1,3,-1
 790.727112224 -37.2107551065 l 1,4,-1
 818.299804688 -25.9309554655 l 1,5,-1
 818.299804688 -55.7216796875 l 1,6,-1
 818.299804688 -159.299804688 l 1,7,-1
 818.299804688 -172.72682952 l 1,8,-1
 805.872463148 -177.81074318 l 1,9,-1
 350.473049085 -364.110547867 l 1,10,-1
 322.900390625 -375.39027447 l 1,11,-1
 322.900390625 -345.599609375 l 1,0,-1
EndSplineSet
EndChar

StartChar: uni0651
Encoding: 1617 1617 52
Width: -26
VWidth: 2393
GlyphClass: 4
Flags: W
AnchorPoint: "Anchor-10" 598.801 1463.71 mark 0
AnchorPoint: "Anchor-9" 598.801 1463.71 mark 0
AnchorPoint: "Anchor-1" 570.087 1849.1 basemark 0
AnchorPoint: "Anchor-1" 598.801 1463.71 mark 0
LayerCount: 2
Fore
SplineSet
628.403416837 1769.32195162 m 2,0,1
 630.195785149 1727.63191747 630.195785149 1727.63191747 630.623518614 1685.95902149 c 0,2,3
 630.435621922 1645.0773879 630.435621922 1645.0773879 641.624839251 1629.60168962 c 128,-1,4
 652.814056581 1614.12599134 652.814056581 1614.12599134 676.55866211 1614.25154114 c 0,5,6
 702.161551842 1614.45103586 702.161551842 1614.45103586 714.753653822 1632.33207817 c 128,-1,7
 727.345755802 1650.21312048 727.345755802 1650.21312048 727.62746464 1695.3119849 c 0,8,9
 727.885431276 1731.38032714 727.885431276 1731.38032714 711.52520403 1808.77272862 c 2,10,-1
 707.171165343 1829.36960084 l 1,11,-1
 727.964018473 1832.6629361 l 1,12,-1
 816.040190347 1846.61313141 l 1,13,-1
 833.499943997 1849.37854422 l 1,14,-1
 838.388860594 1832.39063675 l 2,15,16
 847.666099852 1800.15427539 847.666099852 1800.15427539 852.220230301 1768.19962108 c 128,-1,17
 856.774360749 1736.24496676 856.774360749 1736.24496676 856.527528468 1704.98447437 c 0,18,19
 856.775893765 1598.8190859 856.775893765 1598.8190859 814.978362452 1540.61877324 c 128,-1,20
 773.180831138 1482.41846058 773.180831138 1482.41846058 690.5612364 1481.66667791 c 0,21,22
 634.294536723 1481.25712523 634.294536723 1481.25712523 592.231670009 1517.51060067 c 1,23,24
 549.71714665 1418.19046241 549.71714665 1418.19046241 431.987901918 1417.88958965 c 0,25,26
 355.934928667 1418.06455687 355.934928667 1418.06455687 315.840294704 1467.18562589 c 128,-1,27
 275.74566074 1516.30669491 275.74566074 1516.30669491 274.305041602 1606.1962176 c 0,28,29
 273.35941966 1668.44556848 273.35941966 1668.44556848 287.791201092 1721.03408976 c 2,30,-1
 292.564782717 1738.42872673 l 1,31,-1
 310.358285102 1735.4703911 l 1,32,-1
 388.672738227 1722.44988328 l 1,33,-1
 409.372438137 1719.00836522 l 1,34,-1
 404.941638987 1698.49764505 l 2,35,36
 395.316097872 1653.93981845 395.316097872 1653.93981845 395.57658948 1619.78331496 c 0,37,38
 395.844990881 1583.88399647 395.844990881 1583.88399647 407.177694065 1569.96742854 c 128,-1,39
 418.510397248 1556.05086061 418.510397248 1556.05086061 443.780715963 1555.90196851 c 0,40,41
 475.544961456 1555.70738847 475.544961456 1555.70738847 491.766165895 1576.97798193 c 128,-1,42
 507.987370333 1598.24857539 507.987370333 1598.24857539 509.964868321 1649.98178707 c 0,43,44
 511.895880615 1700.36505974 511.895880615 1700.36505974 511.097088488 1768.22749181 c 2,45,-1
 510.858902547 1788.46289062 l 1,46,-1
 531.095703125 1788.46289062 l 1,47,-1
 608.421875 1788.46289062 l 1,48,-1
 627.580495648 1788.46289062 l 1,49,-1
 628.403416837 1769.32195162 l 2,0,1
EndSplineSet
EndChar

StartChar: uni0652
Encoding: 1618 1618 53
Width: -26
VWidth: 2316
GlyphClass: 4
Flags: W
AnchorPoint: "Anchor-10" 595.219 1271.43 mark 0
AnchorPoint: "Anchor-9" 595.219 1271.43 mark 0
AnchorPoint: "Anchor-1" 595.537 1682.66 basemark 0
AnchorPoint: "Anchor-1" 595.219 1271.43 mark 0
LayerCount: 2
Fore
SplineSet
401.07421875 1461.82128906 m 128,-1,1
 401.07421875 1542.79197006 401.07421875 1542.79197006 457.252532853 1598.97137441 c 128,-1,2
 513.431662747 1655.14941406 513.431662747 1655.14941406 594.40234375 1655.14941406 c 0,3,4
 621.036766512 1655.14941406 621.036766512 1655.14941406 645.366222548 1648.85079612 c 128,-1,5
 669.695678583 1642.55217818 669.695678583 1642.55217818 691.356455053 1630.02887816 c 128,-1,6
 713.017231523 1617.50557815 713.017231523 1617.50557815 731.552291874 1598.97123719 c 0,7,8
 759.375987184 1571.14754188 759.375987184 1571.14754188 773.553716248 1536.49112979 c 128,-1,9
 787.731445312 1501.83471771 787.731445312 1501.83471771 787.731445312 1461.82128906 c 0,10,11
 787.731445312 1380.85147094 787.731445312 1380.85147094 731.552154649 1324.67218028 c 128,-1,12
 675.372048193 1268.49316406 675.372048193 1268.49316406 594.40234375 1268.49316406 c 128,-1,13
 513.431549066 1268.49316406 513.431549066 1268.49316406 457.252258401 1324.67245473 c 128,-1,0
 401.07421875 1380.85158462 401.07421875 1380.85158462 401.07421875 1461.82128906 c 128,-1,1
522.668931763 1461.02265761 m 0,14,15
 522.558112656 1454.52966539 522.558112656 1454.52966539 523.30272245 1448.71413443 c 128,-1,16
 524.047332244 1442.89860346 524.047332244 1442.89860346 525.675241458 1437.54404728 c 128,-1,17
 527.303150671 1432.18949109 527.303150671 1432.18949109 529.897025163 1427.22106888 c 128,-1,18
 532.490899655 1422.25264667 532.490899655 1422.25264667 536.010582011 1417.59934932 c 128,-1,19
 539.530264367 1412.94605197 539.530264367 1412.94605197 544.12644838 1408.38756132 c 0,20,21
 565.348675108 1386.98506265 565.348675108 1386.98506265 596.758552567 1386.92874351 c 0,22,23
 627.761975975 1386.98506708 627.761975975 1386.98506708 649.391171054 1408.38871831 c 0,24,25
 670.968694559 1430.19179084 670.968694559 1430.19179084 670.851417637 1461.02250478 c 0,26,27
 670.968692935 1491.81730052 670.968692935 1491.81730052 649.391219704 1513.65407781 c 0,28,29
 644.990975621 1518.00157015 644.990975621 1518.00157015 640.329670529 1521.4288452 c 128,-1,30
 635.668365436 1524.85612025 635.668365436 1524.85612025 630.643071588 1527.42834718 c 128,-1,31
 625.617777739 1530.00057411 625.617777739 1530.00057411 620.206606031 1531.69575667 c 128,-1,32
 614.795434324 1533.39093922 614.795434324 1533.39093922 608.95332446 1534.24330801 c 128,-1,33
 603.111214596 1535.09567681 603.111214596 1535.09567681 596.758410023 1535.11417414 c 0,34,35
 565.348348363 1535.02390869 565.348348363 1535.02390869 544.126295945 1513.65533858 c 0,36,37
 522.142721624 1491.81829585 522.142721624 1491.81829585 522.668931763 1461.02265761 c 0,14,15
EndSplineSet
EndChar

StartChar: uni0653
Encoding: 1619 1619 54
Width: 0
VWidth: 2317
GlyphClass: 4
Flags: W
AnchorPoint: "Anchor-10" 431.25 1353.11 mark 0
AnchorPoint: "Anchor-9" 431.25 1353.11 mark 0
AnchorPoint: "Anchor-1" 469.41 1773.53 basemark 0
AnchorPoint: "Anchor-1" 431.25 1353.11 mark 0
LayerCount: 2
Fore
SplineSet
163 1323 m 1,0,-1
 78.4404296875 1474.08007812 l 5,1,2
 184.220964119 1643.3535941 184.220964119 1643.3535941 331.780273438 1617.66015625 c 6,3,-1
 466.400390625 1594.21972656 l 6,4,5
 544 1581 544 1581 661.440429688 1651.45996094 c 5,6,-1
 726.099609375 1486.12011719 l 1,7,8
 623.119180129 1392.1088001 623.119180129 1392.1088001 476.860351562 1407.3203125 c 2,9,-1
 330.719726562 1422.51953125 l 2,10,11
 237 1432 237 1432 163 1323 c 1,0,-1
EndSplineSet
EndChar

StartChar: uni0657
Encoding: 1623 1623 57
Width: -26
VWidth: 2316
GlyphClass: 4
Flags: W
AnchorPoint: "Anchor-10" 513.285 1400.55 mark 0
AnchorPoint: "Anchor-9" 513.285 1400.55 mark 0
AnchorPoint: "Anchor-1" 573.285 2089.85 basemark 0
AnchorPoint: "Anchor-1" 513.285 1400.55 mark 0
LayerCount: 2
Fore
SplineSet
265.087718114 1824.65333543 m 2,0,1
 292.513980079 1823.88726641 292.513980079 1823.88726641 322.919655211 1821.85666139 c 128,-1,2
 353.325330343 1819.82605638 353.325330343 1819.82605638 384.965382755 1816.68305831 c 1,3,4
 538.460468923 2029.46988078 538.460468923 2029.46988078 782.786965021 2052.62368537 c 2,5,-1
 804.673828125 2054.69781224 l 1,6,-1
 804.673828125 2032.71289062 l 1,7,-1
 804.673828125 1954.59179688 l 1,8,-1
 804.673828125 1937.54142498 l 1,9,-1
 787.838224124 1934.84371854 l 2,10,11
 706.323580902 1921.78196101 706.323580902 1921.78196101 639.454883235 1884.98070174 c 128,-1,12
 572.586185567 1848.17944247 572.586185567 1848.17944247 520.213227755 1788.02845622 c 1,13,14
 567.505716175 1770.51361565 567.505716175 1770.51361565 603.03715748 1744.53288411 c 0,15,16
 639.976082392 1716.65732984 639.976082392 1716.65732984 658.982856364 1679.82905996 c 128,-1,17
 677.989630335 1643.00079009 677.989630335 1643.00079009 677.976561375 1598.87780253 c 0,18,19
 678.002721837 1520.88910317 678.002721837 1520.88910317 627.636402523 1469.02987845 c 0,20,21
 578.50585711 1417.99830689 578.50585711 1417.99830689 501.362075731 1418.01367222 c 0,22,23
 418.843905825 1417.99850004 418.843905825 1417.99850004 359.621492688 1475.95139644 c 0,24,25
 335.68170251 1499.97304164 335.68170251 1499.97304164 323.758691057 1532.03837668 c 128,-1,26
 311.835679604 1564.10371172 311.835679604 1564.10371172 311.635316431 1603.31150794 c 0,27,28
 311.747481992 1616.7743824 311.747481992 1616.7743824 313.877079851 1632.98868231 c 128,-1,29
 316.00667771 1649.20298222 316.00667771 1649.20298222 319.823028136 1666.84511953 c 128,-1,30
 323.639378563 1684.48725685 323.639378563 1684.48725685 329.172136675 1704.31017472 c 1,31,32
 314.05926283 1705.22098006 314.05926283 1705.22098006 297.977793368 1705.73383268 c 128,-1,33
 281.896323905 1706.2466853 281.896323905 1706.2466853 264.379926019 1706.37751092 c 2,34,-1
 244.529296875 1706.52577033 l 1,35,-1
 244.529296875 1726.37695312 l 1,36,-1
 244.529296875 1804.66113281 l 1,37,-1
 244.529296875 1825.22757226 l 1,38,-1
 265.087718114 1824.65333543 l 2,0,1
501.030530228 1536.39991456 m 0,39,40
 509.438446349 1536.5235099 509.438446349 1536.5235099 516.304057634 1537.86310195 c 128,-1,41
 523.169668919 1539.20269401 523.169668919 1539.20269401 528.517157094 1541.74363292 c 128,-1,42
 533.864645269 1544.28457183 533.864645269 1544.28457183 537.943497076 1547.66485318 c 128,-1,43
 542.022348884 1551.04513453 542.022348884 1551.04513453 545.451715654 1555.60467295 c 0,44,45
 557.068162263 1572.7633309 557.068162263 1572.7633309 557.312936229 1596.68331388 c 0,46,47
 557.194053816 1619.19727266 557.194053816 1619.19727266 541.688517593 1637.49024088 c 128,-1,48
 526.18298137 1655.78320909 526.18298137 1655.78320909 491.236313933 1670.56833762 c 0,49,50
 470.459132731 1679.28134909 470.459132731 1679.28134909 449.19890408 1685.26770091 c 1,51,52
 430.005415463 1635.75534152 430.005415463 1635.75534152 430.023444045 1604.95951855 c 0,53,54
 430.01375493 1596.29260512 430.01375493 1596.29260512 431.325620754 1589.2128237 c 128,-1,55
 432.637486579 1582.13304228 432.637486579 1582.13304228 435.126762098 1576.43058572 c 0,56,57
 442.712649637 1559.01097902 442.712649637 1559.01097902 462.042954827 1547.81223853 c 0,58,59
 472.450115549 1541.76917431 472.450115549 1541.76917431 482.108721272 1539.00799211 c 128,-1,60
 491.767326995 1536.24680991 491.767326995 1536.24680991 501.030530228 1536.39991456 c 0,39,40
EndSplineSet
EndChar

StartChar: uni065A
Encoding: 1626 1626 58
Width: 1135
VWidth: 2316
GlyphClass: 4
Flags: W
AnchorPoint: "Anchor-10" 573.285 1350.55 mark 0
AnchorPoint: "Anchor-9" 573.285 1350.55 mark 0
AnchorPoint: "Anchor-1" 571.012 1862.38 basemark 0
AnchorPoint: "Anchor-1" 573.285 1350.55 mark 0
LayerCount: 2
Fore
SplineSet
485.20342063 1434.15908232 m 1,0,-1
 291.360647192 1758.22353545 l 1,1,-1
 273.256283057 1788.49023438 l 1,2,-1
 308.524414062 1788.49023438 l 1,3,-1
 432.922851562 1788.49023438 l 1,4,-1
 444.408566528 1788.49023438 l 1,5,-1
 450.197147509 1778.56985241 l 1,6,-1
 573.285216342 1567.62339361 l 1,7,-1
 696.37417208 1778.56990472 l 1,8,-1
 702.162762808 1788.49023438 l 1,9,-1
 713.6484375 1788.49023438 l 1,10,-1
 838.047851562 1788.49023438 l 1,11,-1
 873.316256192 1788.49023438 l 1,12,-1
 855.211550075 1758.22342118 l 1,13,-1
 661.365846951 1434.15896805 l 1,14,-1
 655.543744527 1424.42578125 l 1,15,-1
 644.202148438 1424.42578125 l 1,16,-1
 502.3671875 1424.42578125 l 1,17,-1
 491.025503419 1424.42578125 l 1,18,-1
 485.20342063 1434.15908232 l 1,0,-1
EndSplineSet
EndChar

StartChar: afii57392
Encoding: 1632 1632 59
Width: 826
VWidth: 2351
GlyphClass: 2
Flags: W
LayerCount: 2
Fore
SplineSet
316.091796875 592.380859375 m 4,0,1
 316.091796875 583.709960938 316.091796875 583.709960938 317.118164062 576.141601562 c 132,-1,2
 318.14453125 568.572265625 318.14453125 568.572265625 320.27734375 561.610351562 c 132,-1,3
 322.41015625 554.646484375 322.41015625 554.646484375 325.811523438 548.206054688 c 132,-1,4
 329.212890625 541.762695312 329.212890625 541.762695312 333.836914062 535.655273438 c 132,-1,5
 338.459960938 529.547851562 338.459960938 529.547851562 344.595703125 523.376953125 c 4,6,7
 359.758789062 508.125 359.758789062 508.125 375.6015625 501.506835938 c 132,-1,8
 391.443359375 494.888671875 391.443359375 494.888671875 412.598632812 494.888671875 c 4,9,10
 452.276367188 494.888671875 452.276367188 494.888671875 480.604492188 523.379882812 c 4,11,12
 490.81640625 533.649414062 490.81640625 533.649414062 497.038085938 544.052734375 c 132,-1,13
 503.259765625 554.45703125 503.259765625 554.45703125 506.182617188 566.19921875 c 132,-1,14
 509.102539062 577.94140625 509.102539062 577.94140625 509.102539062 592.380859375 c 4,15,16
 509.102539062 603.22265625 509.102539062 603.22265625 507.510742188 612.38671875 c 132,-1,17
 505.919921875 621.55078125 505.919921875 621.55078125 502.442382812 629.9765625 c 132,-1,18
 498.966796875 638.400390625 498.966796875 638.400390625 493.618164062 646.038085938 c 132,-1,19
 488.26953125 653.67578125 488.26953125 653.67578125 480.600585938 661.389648438 c 4,20,21
 465.439453125 676.641601562 465.439453125 676.641601562 449.596679688 683.260742188 c 132,-1,22
 433.754882812 689.877929688 433.754882812 689.877929688 412.598632812 689.877929688 c 132,-1,23
 391.443359375 689.877929688 391.443359375 689.877929688 375.599609375 683.258789062 c 132,-1,24
 359.7578125 676.641601562 359.7578125 676.641601562 344.592773438 661.38671875 c 132,-1,25
 329.396484375 646.1015625 329.396484375 646.1015625 322.743164062 629.989257812 c 132,-1,26
 316.091796875 613.875 316.091796875 613.875 316.091796875 592.380859375 c 4,0,1
110.469726562 593.634765625 m 0,27,28
 110.469726562 655.634765625 110.469726562 655.634765625 132.944335938 710.075195312 c 128,-1,29
 155.418945312 764.516601562 155.418945312 764.516601562 199.172851562 808.526367188 c 0,30,31
 287.9296875 897.801757812 287.9296875 897.801757812 413.010742188 897.801757812 c 128,-1,32
 538.09765625 897.801757812 538.09765625 897.801757812 626.850585938 808.525390625 c 128,-1,33
 715.55078125 719.302734375 715.55078125 719.302734375 715.55078125 593.634765625 c 128,-1,34
 715.55078125 467.958984375 715.55078125 467.958984375 626.84765625 378.745117188 c 128,-1,35
 538.0859375 289.471679688 538.0859375 289.471679688 413.010742188 289.471679688 c 0,36,37
 371.920898438 289.471679688 371.920898438 289.471679688 333.990234375 299.564453125 c 128,-1,38
 296.060546875 309.657226562 296.060546875 309.657226562 262.17578125 329.557617188 c 128,-1,39
 228.291015625 349.458984375 228.291015625 349.458984375 199.173828125 378.74609375 c 0,40,41
 110.469726562 467.963867188 110.469726562 467.963867188 110.469726562 593.634765625 c 0,27,28
EndSplineSet
EndChar

StartChar: afii57393
Encoding: 1633 1633 60
Width: 746
VWidth: 2351
GlyphClass: 2
Flags: W
LayerCount: 2
Fore
SplineSet
433.345703125 1023.19238281 m 4,0,1
 484 847 484 847 516.904296875 606.26171875 c 4,2,3
 550.131141417 364.044002672 550.131141417 364.044002672 550.645507812 49.0751953125 c 2,4,-1
 550.7109375 9.009765625 l 1,5,-1
 308.310546875 9.009765625 l 1,6,-1
 308.244140625 52.1416015625 l 2,7,8
 308 347 308 347 251.2265625 683.401367188 c 4,9,10
 193.719441149 1022.6551105 193.719441149 1022.6551105 78.455078125 1271.75 c 6,11,-1
 61.9521484375 1307.4140625 l 5,12,-1
 289.514648438 1417.6484375 l 5,13,-1
 306.010742188 1379.12695312 l 6,14,15
 383 1200 383 1200 433.345703125 1023.19238281 c 4,0,1
EndSplineSet
EndChar

StartChar: afii57394
Encoding: 1634 1634 61
Width: 1106
VWidth: 2210
GlyphClass: 2
Flags: W
LayerCount: 2
Fore
SplineSet
291.822265625 1418.765625 m 5,0,-1
 404.623046875 1105.27832031 l 6,1,2
 438 1013 438 1013 598.432617188 1012.80761719 c 4,3,4
 710 1013 710 1013 768.075195312 1146.54589844 c 4,5,6
 795.181278754 1208.41375687 795.181278754 1208.41375687 816.721679688 1367.61425781 c 6,7,-1
 822.869140625 1413.04882812 l 5,8,-1
 1041.45117188 1352.42871094 l 5,9,-1
 1039.00097656 1319.67773438 l 6,10,11
 1011 945 1011 945 816.748046875 813.8671875 c 4,12,13
 683 724 683 724 491.1484375 762.9765625 c 5,14,15
 550.159189792 399.018171126 550.159189792 399.018171126 550.645507812 49.0654296875 c 2,16,-1
 550.701171875 9.009765625 l 1,17,-1
 308.310546875 9.009765625 l 1,18,-1
 308.244140625 52.1416015625 l 2,19,20
 308 347 308 347 251.2265625 683.401367188 c 4,21,22
 193.719441149 1022.6551105 193.719441149 1022.6551105 78.455078125 1271.75 c 6,23,-1
 61.9521484375 1307.4140625 l 5,24,-1
 291.822265625 1418.765625 l 5,0,-1
EndSplineSet
EndChar

StartChar: afii57395
Encoding: 1635 1635 62
Width: 1305
VWidth: 2210
GlyphClass: 2
Flags: W
LayerCount: 2
Fore
SplineSet
747.474609375 835.663085938 m 5,0,1
 651 732 651 732 491.827148438 761.75 c 5,2,3
 549.534251835 380.08041641 549.534251835 380.08041641 550.645507812 49.1435546875 c 2,4,-1
 550.780273438 9.009765625 l 1,5,-1
 308.310546875 9.009765625 l 1,6,-1
 308.244140625 52.140625 l 2,7,8
 307.000262584 777.846802387 307.000262584 777.846802387 78.455078125 1271.75 c 6,9,-1
 61.9521484375 1307.4140625 l 5,10,-1
 291.852539062 1418.78125 l 5,11,-1
 406.823242188 1098.49023438 l 6,12,13
 439 1008 439 1008 538.908203125 1007.85253906 c 4,14,15
 577 1008 577 1008 609.96484375 1057.96191406 c 4,16,17
 635.53515625 1094.33870484 635.53515625 1094.33870484 635.53515625 1311.0546875 c 6,18,-1
 635.53515625 1354.55957031 l 5,19,-1
 842.811523438 1353.00585938 l 5,20,-1
 844.864257812 1315.47265625 l 6,21,22
 855 1134 855 1134 860.379882812 1085.54492188 c 4,23,24
 869 1010 869 1010 934.392578125 1009.35351562 c 4,25,26
 1002 1009 1002 1009 1016.85351562 1106.37207031 c 4,27,28
 1029 1184 1029 1184 1012.88085938 1394.58398438 c 5,29,-1
 1241.63085938 1391.30566406 l 5,30,-1
 1244.12890625 1354.55078125 l 6,31,32
 1266 1030 1266 1030 1172.62890625 877.809570312 c 4,33,34
 1099 757 1099 757 962.0078125 758.5859375 c 132,-1,35
 825 760 825 760 747.474609375 835.663085938 c 5,0,1
EndSplineSet
EndChar

StartChar: afii57396
Encoding: 1636 1636 63
Width: 990
VWidth: 2482
GlyphClass: 2
Flags: W
LayerCount: 2
Fore
SplineSet
344.624023438 757.475585938 m 1,0,1
 134 840 134 840 134.232421875 1011.04785156 c 4,2,3
 134 1193 134 1193 277.084960938 1293.51757812 c 4,4,5
 419.502451346 1393.65017752 419.502451346 1393.65017752 687.604492188 1412.8046875 c 6,6,-1
 730.456054688 1415.86621094 l 5,7,-1
 730.456054688 1146.2578125 l 5,8,-1
 692.676757812 1144.15722656 l 6,9,10
 470 1132 470 1132 419.064453125 1067.50683594 c 4,11,12
 401 1044 401 1044 421.501953125 1011.3203125 c 0,13,14
 476.733580315 922.428784269 476.733580315 922.428784269 724.83984375 916.694335938 c 2,15,-1
 763.2890625 915.805664062 l 1,16,-1
 766.546875 714.383789062 l 1,17,-1
 742.328125 703.65234375 l 2,18,19
 524 607 524 607 418.356445312 518.55859375 c 0,20,21
 312 430 312 430 312.259765625 376.55078125 c 0,22,23
 312 333 312 333 373.052734375 296.93359375 c 0,24,25
 434.387454222 260.771562802 434.387454222 260.771562802 577.552734375 261.259765625 c 2,26,-1
 930.94140625 262.46484375 l 1,27,-1
 934.103515625 -0.046875 l 1,28,-1
 537.575195312 0.3857421875 l 2,29,30
 194 1 194 1 94.595703125 193.734375 c 0,31,32
 57 267 57 267 56.4599609375 364.276367188 c 0,33,34
 56 541 56 541 344.624023438 757.475585938 c 1,0,1
EndSplineSet
EndChar

StartChar: afii57397
Encoding: 1637 1637 64
Width: 1174
VWidth: 2351
GlyphClass: 2
Flags: W
LayerCount: 2
Fore
SplineSet
592.053710938 273.877929688 m 0,0,1
 860 274 860 274 857.337890625 497.548828125 c 4,2,3
 855 718 855 718 571.139648438 996.767578125 c 1,4,5
 319 719 319 719 319.563476562 517.591796875 c 4,6,7
 320 274 320 274 592.053710938 273.877929688 c 0,0,1
310.159179688 1206.80371094 m 1,8,-1
 482.563476562 1431.39550781 l 1,9,-1
 514.275390625 1407.17578125 l 2,10,11
 1121 944 1121 944 1121.5 494.423828125 c 4,12,13
 1122 15 1122 15 604.08984375 14.126953125 c 0,14,15
 66 14 66 14 56.6259765625 491.173828125 c 4,16,17
 51 808 51 808 370.1015625 1151.02246094 c 1,18,-1
 310.159179688 1206.80371094 l 1,8,-1
EndSplineSet
EndChar

StartChar: afii57398
Encoding: 1638 1638 65
Width: 1175
VWidth: 2351
GlyphClass: 2
Flags: W
LayerCount: 2
Fore
SplineSet
717.725585938 1105.75585938 m 5,0,1
 602 1080 602 1080 437.673828125 1079.99316406 c 132,-1,2
 273.383921925 1079.99998406 273.383921925 1079.99998406 84.3359375 1134.13378906 c 6,3,-1
 55.34765625 1142.43457031 l 5,4,-1
 55.34765625 1408.66113281 l 5,5,-1
 105.529296875 1395.453125 l 6,6,7
 482.428959524 1296.15045342 482.428959524 1296.15045342 917.73046875 1396.42285156 c 6,8,-1
 966.475585938 1407.65136719 l 5,9,-1
 966.728515625 1353.62792969 l 6,10,11
 968 1030 968 1030 1009.73632812 633.125 c 4,12,13
 1036.72058234 371.706942385 1036.72058234 371.706942385 1116.81542969 58.9326171875 c 2,14,-1
 1129.59960938 9.009765625 l 1,15,-1
 857.55859375 9.009765625 l 1,16,-1
 849.826171875 39.0341796875 l 2,17,18
 784 295 784 295 759.658203125 557.353515625 c 4,19,20
 724 945 724 945 717.725585938 1105.75585938 c 5,0,1
EndSplineSet
EndChar

StartChar: afii57399
Encoding: 1639 1639 66
Width: 1220
VWidth: 2351
GlyphClass: 2
Flags: W
LayerCount: 2
Fore
SplineSet
486.021484375 44.224609375 m 2,0,1
 425.815745721 543.883743064 425.815745721 543.883743064 69.6474609375 1258.21289062 c 6,2,-1
 52.3662109375 1292.87207031 l 5,3,-1
 283.854492188 1417.78320312 l 5,4,-1
 302.118164062 1380.30566406 l 6,5,6
 512 949 512 949 615.881835938 509.03125 c 5,7,8
 718.9127288 940.634415223 718.9127288 940.634415223 917.458984375 1379.27929688 c 6,9,-1
 935.153320312 1418.37109375 l 5,10,-1
 1166.54492188 1293.38867188 l 5,11,-1
 1150.77832031 1259.2734375 l 6,12,13
 809.426903556 519.758424887 809.426903556 519.758424887 734.551757812 42.806640625 c 2,14,-1
 729.24609375 9.009765625 l 1,15,-1
 490.264648438 9.009765625 l 1,16,-1
 486.021484375 44.224609375 l 2,0,1
EndSplineSet
EndChar

StartChar: afii57400
Encoding: 1640 1640 67
Width: 1220
VWidth: 2351
GlyphClass: 2
Flags: W
LayerCount: 2
Fore
SplineSet
490.265625 1402.78417969 m 5,0,-1
 729.30078125 1402.78417969 l 5,1,-1
 734.560546875 1368.92480469 l 6,2,3
 809.003610912 889.976768296 809.003610912 889.976768296 1150.76074219 152.55859375 c 2,4,-1
 1166.58007812 118.424804688 l 1,5,-1
 935.1484375 -6.580078125 l 1,6,-1
 917.456054688 32.5205078125 l 2,7,8
 719 471 719 471 615.881835938 902.822265625 c 1,9,10
 511.703885686 461.746290268 511.703885686 461.746290268 302.120117188 31.4931640625 c 2,11,-1
 283.860351562 -5.9921875 l 1,12,-1
 52.3701171875 118.918945312 l 1,13,-1
 69.6455078125 153.576171875 l 2,14,15
 425.750681945 867.500164124 425.750681945 867.500164124 486.021484375 1367.5703125 c 6,16,-1
 490.265625 1402.78417969 l 5,0,-1
EndSplineSet
EndChar

StartChar: afii57401
Encoding: 1641 1641 68
Width: 1179
VWidth: 2351
GlyphClass: 2
Flags: W
LayerCount: 2
Fore
SplineSet
811.994140625 7.5263671875 m 2,0,1
 741.125175005 223.443742338 741.125175005 223.443742338 711.961914062 586.020507812 c 1,2,3
 254 565 254 565 115.265625 793.752929688 c 0,4,5
 64 878 64 878 63.8798828125 989.772460938 c 0,6,7
 64 1173 64 1173 190.655273438 1299.30761719 c 0,8,9
 317 1426 317 1426 507.24609375 1426.90039062 c 0,10,11
 697 1428 697 1428 807.21484375 1307.11035156 c 0,12,13
 917 1186 917 1186 931.568359375 950.099609375 c 128,-1,14
 946 714 946 714 965.248046875 469.298828125 c 0,15,16
 976.123513831 336.491695319 976.123513831 336.491695319 1054.66210938 42.3173828125 c 5,17,-1
 824.307617188 -29.9892578125 l 1,18,-1
 811.994140625 7.5263671875 l 2,0,1
688.594726562 838.013671875 m 1,19,-1
 685.337890625 899.50390625 l 2,20,21
 678 1044 678 1044 631.5 1106.5 c 128,-1,22
 585 1169 585 1169 504.926757812 1168.07714844 c 0,23,24
 426 1167 426 1167 375 1125.5 c 0,25,26
 322 1083 322 1083 322.095703125 996.447265625 c 128,-1,27
 322 910 322 910 412.551757812 867.228515625 c 0,28,29
 503 824 503 824 688.594726562 838.013671875 c 1,19,-1
EndSplineSet
EndChar

StartChar: afii57381
Encoding: 1642 1642 69
Width: 1253
VWidth: 2357
GlyphClass: 2
Flags: W
LayerCount: 2
Fore
SplineSet
219.572265625 1267.6875 m 4,0,1
 219.572265625 1299.85644531 219.572265625 1299.85644531 231.791015625 1328.87890625 c 132,-1,2
 244.009765625 1357.90039062 244.009765625 1357.90039062 267.073242188 1380.96386719 c 4,3,4
 282.2890625 1396.1796875 282.2890625 1396.1796875 300.541992188 1406.70996094 c 132,-1,5
 318.794921875 1417.23925781 318.794921875 1417.23925781 338.732421875 1422.45605469 c 132,-1,6
 358.669921875 1427.671875 358.669921875 1427.671875 379.229492188 1427.35546875 c 4,7,8
 443.999023438 1428.3515625 443.999023438 1428.3515625 491.38671875 1380.96386719 c 132,-1,9
 538.887695312 1333.46191406 538.887695312 1333.46191406 538.887695312 1267.6875 c 4,10,11
 538.887695312 1254.83007812 538.887695312 1254.83007812 536.892578125 1242.33105469 c 132,-1,12
 534.897460938 1229.83300781 534.897460938 1229.83300781 530.98828125 1218.03320312 c 132,-1,13
 527.079101562 1206.23339844 527.079101562 1206.23339844 521.346679688 1195.13671875 c 132,-1,14
 515.614257812 1184.04101562 515.614257812 1184.04101562 508.088867188 1173.81542969 c 132,-1,15
 500.564453125 1163.59082031 500.564453125 1163.59082031 491.38671875 1154.41308594 c 4,16,17
 443.999023438 1107.02539062 443.999023438 1107.02539062 379.229492188 1108.02148438 c 4,18,19
 314.4609375 1107.02539062 314.4609375 1107.02539062 267.073242188 1154.41308594 c 132,-1,20
 219.572265625 1201.9140625 219.572265625 1201.9140625 219.572265625 1267.6875 c 4,0,1
709.572265625 220.6875 m 128,-1,22
 709.572265625 286.461914062 709.572265625 286.461914062 757.073242188 333.963867188 c 128,-1,23
 804.4609375 381.3515625 804.4609375 381.3515625 869.229492188 380.35546875 c 0,24,25
 933.999023438 381.3515625 933.999023438 381.3515625 981.38671875 333.963867188 c 0,26,27
 1004.44921875 310.900390625 1004.44921875 310.900390625 1016.66894531 281.87890625 c 128,-1,28
 1028.88769531 252.857421875 1028.88769531 252.857421875 1028.88769531 220.6875 c 0,29,30
 1028.88769531 154.9140625 1028.88769531 154.9140625 981.38671875 107.413085938 c 128,-1,31
 933.999023438 60.025390625 933.999023438 60.025390625 869.229492188 61.021484375 c 0,32,33
 837.18359375 60.5283203125 837.18359375 60.5283203125 808.629882812 72.46875 c 128,-1,34
 780.077148438 84.408203125 780.077148438 84.408203125 757.073242188 107.413085938 c 0,35,21
 709.572265625 154.9140625 709.572265625 154.9140625 709.572265625 220.6875 c 128,-1,22
851.953125 1449.48535156 m 1,36,-1
 1047 1349 l 1,37,-1
 340.219726562 -15.970703125 l 1,38,-1
 146.825195312 90.3076171875 l 1,39,-1
 851.953125 1449.48535156 l 1,36,-1
EndSplineSet
EndChar

StartChar: uni066B
Encoding: 1643 1643 70
Width: 760
VWidth: 2357
GlyphClass: 2
Flags: W
LayerCount: 2
Fore
SplineSet
449.209960938 599.747070312 m 1,0,-1
 582.186523438 537.247070312 l 1,1,-1
 620.919921875 519.041992188 l 1,2,-1
 600.141601562 481.625976562 l 1,3,-1
 207.978515625 -224.549804688 l 1,4,-1
 189.21875 -258.330078125 l 1,5,-1
 154.810546875 -240.75 l 1,6,-1
 26.19140625 -175.038085938 l 1,7,-1
 -10.580078125 -156.251953125 l 1,8,-1
 9.3662109375 -120.096679688 l 1,9,-1
 397.171875 582.8671875 l 1,10,-1
 415.280273438 615.693359375 l 1,11,-1
 449.209960938 599.747070312 l 1,0,-1
EndSplineSet
EndChar

StartChar: uni066C
Encoding: 1644 1644 71
Width: 627
VWidth: 2482
GlyphClass: 2
Flags: W
LayerCount: 2
Fore
SplineSet
317.873046875 337.708984375 m 0,0,1
 358.110351562 336.93359375 358.110351562 336.93359375 391.5 326.24609375 c 128,-1,2
 424.889648438 315.559570312 424.889648438 315.559570312 449.6875 295.793945312 c 128,-1,3
 474.486328125 276.029296875 474.486328125 276.029296875 489.478515625 246.234375 c 128,-1,4
 504.470703125 216.439453125 504.470703125 216.439453125 507.508789062 178.784179688 c 0,5,6
 516.760742188 57.552734375 516.760742188 57.552734375 452.325195312 -64.765625 c 0,7,8
 387.948242188 -184.935546875 387.948242188 -184.935546875 258.57421875 -279.315429688 c 2,9,-1
 232.065429688 -298.653320312 l 1,10,-1
 207.91796875 -276.4375 l 1,11,-1
 172.583984375 -243.9296875 l 1,12,-1
 154.91796875 -227.676757812 l 1,13,-1
 122.66015625 -197.999023438 l 1,14,-1
 155.157226562 -168.583984375 l 2,15,16
 245.2734375 -87.0146484375 245.2734375 -87.0146484375 289.197265625 1.0615234375 c 1,17,18
 280.912109375 1.8671875 280.912109375 1.8671875 273.240234375 3.0458984375 c 0,19,20
 198.231445312 14.5634765625 198.231445312 14.5634765625 162.891601562 66.4619140625 c 128,-1,21
 127.551757812 118.360351562 127.551757812 118.360351562 139.701171875 195.788085938 c 0,22,23
 150.776367188 265.180664062 150.776367188 265.180664062 198.146484375 302.434570312 c 128,-1,24
 245.516601562 339.688476562 245.516601562 339.688476562 317.873046875 337.708984375 c 0,0,1
EndSplineSet
EndChar

StartChar: uni066E
Encoding: 1646 1646 72
Width: 1832
VWidth: 2351
GlyphClass: 2
Flags: W
AnchorPoint: "Anchor-10" 806.894 1157.77 basechar 0
AnchorPoint: "Anchor-7" 563.093 -178.36 basechar 0
LayerCount: 2
Fore
SplineSet
920.88671875 261.604492188 m 0,0,1
 988.329101562 261.798828125 988.329101562 261.798828125 1039.66210938 263.348632812 c 128,-1,2
 1090.99609375 264.8984375 1090.99609375 264.8984375 1124.40234375 267.69140625 c 0,3,4
 1188.5390625 273.6484375 1188.5390625 273.6484375 1244.73730469 281.783203125 c 128,-1,5
 1300.93554688 289.91796875 1300.93554688 289.91796875 1341.38671875 298.462890625 c 128,-1,6
 1381.83789062 307.006835938 1381.83789062 307.006835938 1415.05957031 316.419921875 c 128,-1,7
 1448.28027344 325.833984375 1448.28027344 325.833984375 1469.42871094 334.428710938 c 128,-1,8
 1490.57714844 343.0234375 1490.57714844 343.0234375 1505.00683594 351.172851562 c 128,-1,9
 1519.43652344 359.321289062 1519.43652344 359.321289062 1525.46679688 365.423828125 c 128,-1,10
 1531.49804688 371.526367188 1531.49804688 371.526367188 1531.51953125 375.874023438 c 0,11,12
 1531.265625 470.549804688 1531.265625 470.549804688 1520.61230469 564.91015625 c 128,-1,13
 1509.95800781 659.26953125 1509.95800781 659.26953125 1488.93066406 752.909179688 c 2,14,-1
 1480.3515625 791.115234375 l 1,15,-1
 1518.3671875 800.505859375 l 1,16,-1
 1675.89355469 839.416015625 l 1,17,-1
 1714.82128906 849.03125 l 1,18,-1
 1724.34179688 810.080078125 l 2,19,20
 1775.01464844 602.755859375 1775.01464844 602.755859375 1774.54296875 451.841796875 c 0,21,22
 1773.95800781 329.1015625 1773.95800781 329.1015625 1735.14746094 245.245117188 c 0,23,24
 1675.09375 115.58984375 1675.09375 115.58984375 1468.40527344 57.794921875 c 128,-1,25
 1261.71582031 0 1261.71582031 0 907.125976562 0 c 0,26,27
 558.962890625 0 558.962890625 0 383.009765625 73.6826171875 c 0,28,29
 237.314453125 134.111328125 237.314453125 134.111328125 155.362304688 242.90625 c 128,-1,30
 73.4091796875 351.700195312 73.4091796875 351.700195312 59.80859375 503.650390625 c 0,31,32
 53.6318359375 574.05078125 53.6318359375 574.05078125 61.8935546875 648.865234375 c 128,-1,33
 70.154296875 723.680664062 70.154296875 723.680664062 92.6181640625 802.887695312 c 2,34,-1
 103.333007812 840.668945312 l 1,35,-1
 141.305664062 830.650390625 l 1,36,-1
 283.513671875 793.12890625 l 1,37,-1
 318.20703125 783.974609375 l 1,38,-1
 312.862304688 748.494140625 l 2,39,40
 292.134765625 610.900390625 292.134765625 610.900390625 294.926757812 548.881835938 c 0,41,42
 300.251953125 432.462890625 300.251953125 432.462890625 373.3984375 365.44921875 c 128,-1,43
 446.544921875 298.435546875 446.544921875 298.435546875 599.522460938 276.298828125 c 0,44,45
 706.78125 261.0078125 706.78125 261.0078125 920.88671875 261.604492188 c 0,0,1
EndSplineSet
Substitution2: "'init' Initial Forms in Arabic lookup 13 subtable" uni066E.init
Substitution2: "'medi' Medial Forms in Arabic lookup 11 subtable" uni066E.medi
Substitution2: "'fina' Terminal Forms in Arabic lookup 9 subtable" uni066E.fina
EndChar

StartChar: uni066F
Encoding: 1647 1647 73
Width: 1427
VWidth: 2351
GlyphClass: 2
Flags: W
AnchorPoint: "Anchor-10" 152.36 1121.41 basechar 0
AnchorPoint: "Anchor-7" 283.8 -626 basechar 0
LayerCount: 2
Fore
SplineSet
966.504882812 291.190429688 m 0,0,1
 1068.97753906 291.237304688 1068.97753906 291.237304688 1136.91601562 320.567382812 c 1,2,3
 1135.97753906 337.237304688 1135.97753906 337.237304688 1132.63183594 360.5 c 0,4,5
 1129.97753906 379.237304688 1129.97753906 379.237304688 1125.95605469 404.295898438 c 0,6,7
 1118.97753906 448.237304688 1118.97753906 448.237304688 1107.64648438 478.145507812 c 0,8,9
 1095.97753906 509.237304688 1095.97753906 509.237304688 1079.43261719 526.474609375 c 0,10,11
 1062.97753906 544.237304688 1062.97753906 544.237304688 1042.48242188 552.436523438 c 0,12,13
 1021.97753906 560.237304688 1021.97753906 560.237304688 995.825195312 560.528320312 c 0,14,15
 947.977539062 561.237304688 947.977539062 561.237304688 915.685546875 528.319335938 c 0,16,17
 877.977539062 489.237304688 877.977539062 489.237304688 861.109375 416.1171875 c 0,18,19
 841.977539062 334.237304688 841.977539062 334.237304688 887.094726562 307.373046875 c 0,20,21
 914.977539062 291.237304688 914.977539062 291.237304688 966.504882812 291.190429688 c 0,0,1
1370.2421875 241.048828125 m 0,22,23
 1369.99121094 -82.7470703125 1369.99121094 -82.7470703125 1281.70703125 -220.291992188 c 0,24,25
 1128.02441406 -461.904296875 1128.02441406 -461.904296875 750.678710938 -463.553710938 c 0,26,27
 421.546875 -465.0625 421.546875 -465.0625 247.772460938 -332.255859375 c 0,28,29
 58.951171875 -186.626953125 58.951171875 -186.626953125 59.689453125 112.42578125 c 0,30,31
 60.0126953125 327.497070312 60.0126953125 327.497070312 155.967773438 543.961914062 c 2,32,-1
 171.140625 578.190429688 l 1,33,-1
 206.296875 565.310546875 l 1,34,-1
 355.03125 510.818359375 l 1,35,-1
 394.078125 496.512695312 l 1,36,-1
 378.266601562 458.05078125 l 2,37,38
 301.000976562 270.1015625 301.000976562 270.1015625 301.024414062 129.259765625 c 0,39,40
 301.013671875 -42.365234375 301.013671875 -42.365234375 407.240234375 -126.077148438 c 128,-1,41
 513.467773438 -209.790039062 513.467773438 -209.790039062 743.256835938 -210.509765625 c 0,42,43
 974.405273438 -210.96484375 974.405273438 -210.96484375 1068.47363281 -108.079101562 c 0,44,45
 1119.19238281 -52.5830078125 1119.19238281 -52.5830078125 1132.23925781 62.986328125 c 1,46,47
 1060.51953125 38.0205078125 1060.51953125 38.0205078125 958.412109375 38.068359375 c 0,48,49
 772.620117188 37.9912109375 772.620117188 37.9912109375 681.55859375 163.377929688 c 0,50,51
 626.978515625 237.956054688 626.978515625 237.956054688 627.165039062 349.76171875 c 0,52,53
 626.98828125 488.512695312 626.98828125 488.512695312 685.795898438 604.829101562 c 0,54,55
 736.676757812 706.157226562 736.676757812 706.157226562 815.241210938 759.427734375 c 128,-1,56
 893.806640625 812.698242188 893.806640625 812.698242188 995.190429688 812.310546875 c 0,57,58
 1057.67382812 812.1953125 1057.67382812 812.1953125 1111.34277344 793.64453125 c 128,-1,59
 1165.01269531 775.09375 1165.01269531 775.09375 1208.31640625 738.6328125 c 128,-1,60
 1251.62109375 702.171875 1251.62109375 702.171875 1283.046875 648.88671875 c 0,61,62
 1369.98925781 501.966796875 1369.98925781 501.966796875 1370.2421875 241.048828125 c 0,22,23
EndSplineSet
Substitution2: "'init' Initial Forms in Arabic lookup 13 subtable" uni066F.init
Substitution2: "'medi' Medial Forms in Arabic lookup 11 subtable" uni066F.medi
Substitution2: "'fina' Terminal Forms in Arabic lookup 9 subtable" uni066F.fina
EndChar

StartChar: uni0670
Encoding: 1648 1648 74
Width: 6
VWidth: 2317
GlyphClass: 4
Flags: W
AnchorPoint: "Anchor-10" 583.891 1359.45 mark 0
AnchorPoint: "Anchor-9" 583.891 1359.45 mark 0
AnchorPoint: "Anchor-1" 583.891 1936.62 basemark 0
AnchorPoint: "Anchor-1" 583.891 1359.45 mark 0
LayerCount: 2
Fore
SplineSet
547.731344278 1406.87128212 m 1,0,-1
 522.031148965 1829.32440712 l 1,1,-1
 521.659121137 1835.43970377 l 1,2,-1
 526.938358048 1838.5485485 l 1,3,-1
 630.597537736 1899.59151726 l 1,4,-1
 645.671875 1908.46851495 l 1,5,-1
 645.671875 1890.97460938 l 1,6,-1
 645.671875 1407.47851562 l 1,7,-1
 645.671875 1397.47851562 l 1,8,-1
 635.671875 1397.47851562 l 1,9,-1
 557.712890625 1397.47851562 l 1,10,-1
 548.302758997 1397.47851562 l 1,11,-1
 547.731344278 1406.87128212 l 1,0,-1
EndSplineSet
EndChar

StartChar: uni0674
Encoding: 1652 1652 75
Width: 683
VWidth: 2317
GlyphClass: 2
Flags: W
LayerCount: 2
Fore
SplineSet
303.34167685 2020.35079579 m 0,0,1
 418.565150457 2043.84350808 418.565150457 2043.84350808 516.915856227 1985.9071284 c 2,2,-1
 521.840252337 1983.00626784 l 1,3,-1
 526.764648438 1980.10540729 l 1,4,-1
 526.764648438 1974.39010599 l 1,5,-1
 526.764648438 1968.67480469 l 1,6,-1
 526.764648438 1856.87304688 l 1,7,-1
 526.764648438 1840.69447866 l 1,8,-1
 526.764648438 1824.51591044 l 1,9,-1
 512.293388533 1831.74976878 l 1,10,-1
 497.822128623 1838.98362712 l 1,11,-1
 477.878424397 1848.95303772 l 2,12,13
 418.238533442 1878.77118838 418.238533442 1878.77118838 358.723724952 1872.29511054 c 0,14,15
 349.58633543 1871.30916135 349.58633543 1871.30916135 341.447320642 1869.77760978 c 128,-1,16
 333.308305853 1868.2460582 333.308305853 1868.2460582 326.199580343 1866.19010432 c 0,17,18
 312.24519085 1862.15427803 312.24519085 1862.15427803 302.041830127 1856.17740369 c 0,19,20
 292.199793601 1850.41218405 292.199793601 1850.41218405 285.5260892 1842.65634836 c 0,21,22
 283.858566409 1840.71843922 283.858566409 1840.71843922 282.384452162 1838.68092524 c 128,-1,23
 280.910337916 1836.64341126 280.910337916 1836.64341126 279.6202807 1834.49177605 c 128,-1,24
 278.330223484 1832.34014084 278.330223484 1832.34014084 277.224539042 1830.07425452 c 128,-1,25
 276.1188546 1827.8083682 276.1188546 1827.8083682 275.189924946 1825.41444731 c 0,26,27
 273.307851721 1820.56420444 273.307851721 1820.56420444 272.079564985 1815.05653213 c 128,-1,28
 270.851278249 1809.54885982 270.851278249 1809.54885982 270.310589733 1803.4177612 c 0,29,30
 264.597817648 1737.27156745 264.597817648 1737.27156745 362.945709647 1707.47865827 c 0,31,32
 392.701338863 1698.46336693 392.701338863 1698.46336693 526.076842197 1729.30703954 c 2,33,-1
 538.329925008 1732.1406189 l 1,34,-1
 550.583007812 1734.97419826 l 1,35,-1
 550.583007812 1722.39774366 l 1,36,-1
 550.583007812 1709.82128906 l 1,37,-1
 550.583007812 1594.234375 l 1,38,-1
 550.583007812 1586.23054214 l 1,39,-1
 550.583007812 1578.22670928 l 1,40,-1
 542.77357016 1576.47341979 l 1,41,-1
 534.964132512 1574.7201303 l 1,42,-1
 145.933859073 1487.37930999 l 1,43,-1
 133.743296723 1484.64241832 l 1,44,-1
 121.552734375 1481.90552665 l 1,45,-1
 121.552734375 1494.39954067 l 1,46,-1
 121.552734375 1506.89355469 l 1,47,-1
 121.552734375 1620.31738281 l 1,48,-1
 121.552734375 1628.27264164 l 1,49,-1
 121.552734375 1636.22790047 l 1,50,-1
 129.3042976 1638.01659012 l 1,51,-1
 137.055860815 1639.80527977 l 1,52,-1
 187.44314419 1651.43225229 l 1,53,54
 166.153062879 1670.80471315 166.153062879 1670.80471315 151.998617763 1693.42227599 c 128,-1,55
 137.844172648 1716.03983883 137.844172648 1716.03983883 130.832242574 1741.73405914 c 128,-1,56
 123.8203125 1767.42827946 123.8203125 1767.42827946 123.8203125 1796.35742188 c 0,57,58
 123.8203125 1903.95570326 123.8203125 1903.95570326 199.272207294 1970.50198365 c 0,59,60
 206.467321197 1976.7775057 206.467321197 1976.7775057 214.153444564 1982.32855977 c 128,-1,61
 221.839567932 1987.87961384 221.839567932 1987.87961384 230.078706797 1992.75392956 c 0,62,63
 246.498610513 2002.46802665 246.498610513 2002.46802665 264.845578276 2009.36232796 c 128,-1,64
 283.115132722 2016.22753942 283.115132722 2016.22753942 303.34167685 2020.35079579 c 0,0,1
EndSplineSet
EndChar

StartChar: uni06A1
Encoding: 1697 1697 79
Width: 1857
VWidth: 2351
GlyphClass: 2
Flags: W
AnchorPoint: "Anchor-10" 534.823 1341.98 basechar 0
AnchorPoint: "Anchor-7" 648.243 -118.873 basechar 0
LayerCount: 2
Fore
SplineSet
1386.52734375 609.953125 m 0,0,1
 1489 610 1489 610 1556.93847656 639.330078125 c 1,2,3
 1556 656 1556 656 1552.65429688 679.262695312 c 0,4,5
 1550 698 1550 698 1545.97851562 723.05859375 c 0,6,7
 1539 767 1539 767 1527.66894531 796.908203125 c 0,8,9
 1516 828 1516 828 1499.45507812 845.237304688 c 0,10,11
 1483 863 1483 863 1462.50488281 871.19921875 c 0,12,13
 1442 879 1442 879 1415.84765625 879.291015625 c 0,14,15
 1368 880 1368 880 1335.70800781 847.08203125 c 0,16,17
 1298 808 1298 808 1281.13183594 734.879882812 c 0,18,19
 1262 653 1262 653 1307.1171875 626.135742188 c 0,20,21
 1335 610 1335 610 1386.52734375 609.953125 c 0,0,1
1798.55078125 577.546875 m 0,22,23
 1799 500 1799 500 1787.05371094 428.348632812 c 0,24,25
 1781 394 1781 394 1771.89160156 363.45703125 c 0,26,27
 1737 248 1737 248 1658.45703125 170.26953125 c 0,28,29
 1582 94 1582 94 1460.19824219 53.8583984375 c 0,30,31
 1403 35 1403 35 1322.015625 23.369140625 c 0,32,33
 1241 11 1241 11 1138.50976562 5.6865234375 c 0,34,35
 1036 0 1036 0 907.125976562 0 c 0,36,37
 559 0 559 0 383.009765625 73.6826171875 c 0,38,39
 237 134 237 134 155.362304688 242.90625 c 0,40,41
 73 352 73 352 59.80859375 503.650390625 c 0,42,43
 54 574 54 574 61.8935546875 648.865234375 c 0,44,45
 70.0239447896 723.21897901 70.0239447896 723.21897901 92.6181640625 802.887695312 c 2,46,-1
 103.333007812 840.668945312 l 1,47,-1
 141.305664062 830.650390625 l 1,48,-1
 283.513671875 793.12890625 l 1,49,-1
 318.20703125 783.974609375 l 1,50,-1
 312.862304688 748.494140625 l 2,51,52
 292 610 292 610 294.927734375 548.875 c 0,53,54
 300 432 300 432 373.416015625 364.671875 c 0,55,56
 447 297 447 297 599.522460938 275.298828125 c 0,57,58
 700 261 700 261 921.069335938 260.604492188 c 0,59,60
 1312 260 1312 260 1410.11035156 290.083984375 c 0,61,62
 1496 316 1496 316 1547.01757812 376.467773438 c 5,63,64
 1490 362 1490 362 1465.70898438 360.348632812 c 0,65,66
 1428 357 1428 357 1378.4453125 356.759765625 c 0,67,68
 1191 357 1191 357 1101.5234375 482.15625 c 0,69,70
 1083 508 1083 508 1070.50976562 538.001953125 c 128,-1,71
 1058 568 1058 568 1052.48144531 600.548828125 c 128,-1,72
 1047 633 1047 633 1047.1953125 668.96484375 c 0,73,74
 1049 811 1049 811 1105.79589844 923.465820312 c 0,75,76
 1157 1025 1157 1025 1235.26367188 1078.26855469 c 0,77,78
 1314 1132 1314 1132 1415.21582031 1131.00195312 c 0,79,80
 1509 1131 1509 1131 1582.48144531 1089.3828125 c 0,81,82
 1656 1048 1656 1048 1703.08886719 967.553710938 c 0,83,84
 1797 808 1797 808 1798.55078125 577.546875 c 0,22,23
EndSplineSet
Substitution2: "'init' Initial Forms in Arabic lookup 13 subtable" uni06A1.init
Substitution2: "'medi' Medial Forms in Arabic lookup 11 subtable" uni06A1.medi
Substitution2: "'fina' Terminal Forms in Arabic lookup 9 subtable" uni06A1.fina
EndChar

StartChar: uni06A9
Encoding: 1705 1705 80
Width: 1967
VWidth: 2351
GlyphClass: 2
Flags: W
AnchorPoint: "Anchor-7" 798.06 -161.16 basechar 0
AnchorPoint: "Anchor-10" 980.9 1389.66 basechar 0
LayerCount: 2
Fore
SplineSet
1324.65722656 1031.92089844 m 1,0,-1
 1633.96191406 686.782226562 l 2,1,2
 1747.00683594 560.258789062 1747.00683594 560.258789062 1746.94238281 408.947265625 c 0,3,4
 1746.97363281 207.666015625 1746.97363281 207.666015625 1620.99804688 103.833007812 c 128,-1,5
 1495.02148438 0 1495.02148438 0 1259.45996094 0 c 2,6,-1
 907.125976562 0 l 2,7,8
 558.962890625 0 558.962890625 0 383.009765625 73.6826171875 c 0,9,10
 237.314453125 134.111328125 237.314453125 134.111328125 155.362304688 242.90625 c 128,-1,11
 73.4091796875 351.700195312 73.4091796875 351.700195312 59.80859375 503.650390625 c 0,12,13
 53.6318359375 574.05078125 53.6318359375 574.05078125 61.8935546875 648.865234375 c 128,-1,14
 70.154296875 723.680664062 70.154296875 723.680664062 92.6181640625 802.887695312 c 2,15,-1
 103.333007812 840.668945312 l 1,16,-1
 141.305664062 830.650390625 l 1,17,-1
 283.513671875 793.12890625 l 1,18,-1
 318.20703125 783.974609375 l 1,19,-1
 312.862304688 748.494140625 l 2,20,21
 305.955078125 702.642578125 305.955078125 702.642578125 301.619140625 664.13671875 c 128,-1,22
 297.283203125 625.631835938 297.283203125 625.631835938 295.665039062 597.03515625 c 128,-1,23
 294.046875 568.439453125 294.046875 568.439453125 294.9296875 548.815429688 c 0,24,25
 300.306640625 424.107421875 300.306640625 424.107421875 372.965820312 357.326171875 c 128,-1,26
 445.625 290.544921875 445.625 290.544921875 597.677734375 275.520507812 c 0,27,28
 756.165039062 260.596679688 756.165039062 260.596679688 860.997070312 260.604492188 c 2,29,-1
 1294.23242188 260.637695312 l 2,30,31
 1355.3671875 260.723632812 1355.3671875 260.723632812 1398.00097656 269.67578125 c 128,-1,32
 1440.63378906 278.62890625 1440.63378906 278.62890625 1465.68554688 296.681640625 c 128,-1,33
 1490.73632812 314.734375 1490.73632812 314.734375 1501.77148438 339.328125 c 128,-1,34
 1512.80566406 363.922851562 1512.80566406 363.922851562 1512.75976562 397.880859375 c 0,35,36
 1512.79296875 407.153320312 1512.79296875 407.153320312 1510.87695312 417.040039062 c 128,-1,37
 1508.9609375 426.926757812 1508.9609375 426.926757812 1504.66308594 438.260742188 c 128,-1,38
 1500.36523438 449.59375 1500.36523438 449.59375 1493.79882812 461.489257812 c 128,-1,39
 1487.23242188 473.383789062 1487.23242188 473.383789062 1477.62109375 486.774414062 c 128,-1,40
 1468.01074219 500.165039062 1468.01074219 500.165039062 1455.81152344 514.065429688 c 2,41,-1
 1069.6171875 954.146484375 l 1,42,-1
 1060.54296875 964.487304688 l 1,43,-1
 1059.74902344 978.221679688 l 2,44,45
 1058.20703125 1004.89453125 1058.20703125 1004.89453125 1057.52929688 1022.42578125 c 128,-1,46
 1056.8515625 1039.95703125 1056.8515625 1039.95703125 1056.96484375 1063.15332031 c 128,-1,47
 1057.078125 1086.34960938 1057.078125 1086.34960938 1058.87597656 1101.91601562 c 128,-1,48
 1060.67382812 1117.48144531 1060.67382812 1117.48144531 1064.65332031 1135.15332031 c 128,-1,49
 1068.6328125 1152.82421875 1068.6328125 1152.82421875 1075.07910156 1164.71386719 c 128,-1,50
 1081.52539062 1176.60351562 1081.52539062 1176.60351562 1091.54296875 1187.0390625 c 128,-1,51
 1101.56152344 1197.47460938 1101.56152344 1197.47460938 1114.86621094 1203.63867188 c 2,52,-1
 1838.86621094 1539.09863281 l 1,53,-1
 1895.68261719 1565.42480469 l 1,54,-1
 1895.68261719 1502.80566406 l 1,55,-1
 1895.68261719 1319.75390625 l 1,56,-1
 1895.68261719 1294.10449219 l 1,57,-1
 1872.37304688 1283.40234375 l 1,58,-1
 1324.65722656 1031.92089844 l 1,0,-1
EndSplineSet
Substitution2: "'init' Initial Forms in Arabic lookup 13 subtable" uniFB90
Substitution2: "'medi' Medial Forms in Arabic lookup 11 subtable" uniFB91
Substitution2: "'fina' Terminal Forms in Arabic lookup 9 subtable" uniFB8F
EndChar

StartChar: afii57514
Encoding: 1722 1722 82
Width: 1403
VWidth: 2357
GlyphClass: 2
Flags: W
AnchorPoint: "Anchor-10" 632.479 1018.46 basechar 0
AnchorPoint: "Anchor-7" 575.075 -515.182 basechar 0
LayerCount: 2
Fore
SplineSet
1279.53808594 -161.467773438 m 0,0,1
 1131.31933594 -446.967773438 1131.31933594 -446.967773438 690.434570312 -447.545898438 c 0,2,3
 417.515625 -448.0234375 417.515625 -448.0234375 252.698242188 -322.291992188 c 0,4,5
 58.9609375 -173.701171875 58.9609375 -173.701171875 59.55859375 128.439453125 c 0,6,7
 60.017578125 343.498046875 60.017578125 343.498046875 155.828125 559.950195312 c 2,8,-1
 170.991210938 594.205078125 l 1,9,-1
 206.166015625 581.318359375 l 1,10,-1
 354.900390625 526.826171875 l 1,11,-1
 393.923828125 512.529296875 l 1,12,-1
 378.14453125 474.080078125 l 2,13,14
 300.994140625 286.09765625 300.994140625 286.09765625 300.893554688 145.26171875 c 0,15,16
 300.942382812 -28.98046875 300.942382812 -28.98046875 395.223632812 -111.858398438 c 128,-1,17
 489.50390625 -194.736328125 489.50390625 -194.736328125 692.98046875 -194.501953125 c 0,18,19
 911.19921875 -194.264648438 911.19921875 -194.264648438 1012.55957031 -106.780273438 c 128,-1,20
 1113.91992188 -19.2958984375 1113.91992188 -19.2958984375 1113.8515625 163.134765625 c 0,21,22
 1113.91894531 227.211914062 1113.91894531 227.211914062 1088.46777344 312.801757812 c 128,-1,23
 1063.015625 398.392578125 1063.015625 398.392578125 1011.56640625 503.033203125 c 2,24,-1
 996.033203125 534.624023438 l 1,25,-1
 1025.39453125 554.044921875 l 1,26,-1
 1170.22363281 649.83984375 l 1,27,-1
 1207.69335938 674.624023438 l 1,28,-1
 1227.98046875 634.540039062 l 2,29,30
 1353.97558594 385.592773438 1353.97558594 385.592773438 1354.51953125 169.110351562 c 0,31,32
 1355.02636719 -14.6279296875 1355.02636719 -14.6279296875 1279.53808594 -161.467773438 c 0,0,1
EndSplineSet
Substitution2: "'init' Initial Forms in Arabic lookup 13 subtable" uni06BA.init
Substitution2: "'medi' Medial Forms in Arabic lookup 11 subtable" uni06BA.medi
Substitution2: "'fina' Terminal Forms in Arabic lookup 9 subtable" uniFB9F
EndChar

StartChar: uni06F4
Encoding: 1780 1780 89
Width: 1108
VWidth: 2351
GlyphClass: 2
Flags: W
LayerCount: 2
Fore
SplineSet
380.583984375 1175.60449219 m 1,0,1
 392 1200 392 1200 406.951171875 1221.56738281 c 0,2,3
 422 1244 422 1244 440.508789062 1265.88964844 c 0,4,5
 556 1401 556 1401 771.1171875 1400.26074219 c 0,6,7
 905.94010111 1400.00011579 905.94010111 1400.00011579 977.790039062 1352.88476562 c 5,8,-1
 977.790039062 1331.28222656 l 1,9,-1
 977.790039062 1169.00390625 l 1,10,-1
 977.790039062 1119.99707031 l 1,11,-1
 929.776367188 1129.81445312 l 2,12,13
 883 1139 883 1139 847.912109375 1144.22753906 c 0,14,15
 813 1149 813 1149 792.236328125 1149.1953125 c 0,16,17
 745 1149 745 1149 705.286132812 1139.75976562 c 0,18,19
 666 1130 666 1130 633.650390625 1112.15917969 c 0,20,21
 561 1071 561 1071 552.4296875 988.573242188 c 0,22,23
 552 983 552 983 551.869140625 978.641601562 c 0,24,25
 552 963 552 963 557.326171875 950.67578125 c 0,26,27
 563 938 563 938 577.508789062 926.1015625 c 0,28,29
 592 914 592 914 615.424804688 905.978515625 c 128,-1,30
 639 898 639 898 676.212890625 892.69921875 c 0,31,32
 714 888 714 888 762.881835938 887.32421875 c 0,33,34
 860.059095546 886.999802716 860.059095546 886.999802716 985.810546875 931.974609375 c 2,35,-1
 1038.51757812 950.825195312 l 1,36,-1
 1039.27734375 894.853515625 l 1,37,-1
 1041.59667969 723.950195312 l 1,38,-1
 1042.015625 693.0625 l 1,39,-1
 1012.23730469 684.84765625 l 2,40,41
 871 646 871 646 754.294921875 646.51953125 c 0,42,43
 611 647 611 647 502.5625 700.930664062 c 1,44,45
 526 549 526 549 537.946777344 406.018554688 c 0,46,47
 549.924406156 263.896965292 549.924406156 263.896965292 550.645507812 49.14453125 c 2,48,-1
 550.780273438 9.009765625 l 1,49,-1
 510.645507812 9.009765625 l 1,50,-1
 348.249023438 9.009765625 l 1,51,-1
 308.310546875 9.009765625 l 1,52,-1
 308.249023438 48.9482421875 l 1,53,-1
 308.244140625 52.140625 l 2,54,55
 308.005889308 345.742488016 308.005889308 345.742488016 256.694335938 650.883789062 c 0,56,57
 193.719753664 1022.65443513 193.719753664 1022.65443513 78.455078125 1271.75 c 2,58,-1
 61.9521484375 1307.4140625 l 1,59,-1
 97.318359375 1324.54589844 l 1,60,-1
 251.801757812 1399.37988281 l 1,61,-1
 291.599609375 1418.65820312 l 1,62,-1
 306.801757812 1377.1328125 l 1,63,-1
 380.583984375 1175.60449219 l 1,0,1
EndSplineSet
EndChar

StartChar: uni06F5
Encoding: 1781 1781 90
Width: 1214
VWidth: 2210
GlyphClass: 2
Flags: W
LayerCount: 2
Fore
SplineSet
755.065429688 302.682617188 m 0,0,1
 779 268 779 268 822.326171875 267.542480469 c 0,2,3
 865 267 865 267 887.5859375 295.775390625 c 0,4,5
 910 325 910 325 909.672851562 400.9375 c 0,6,7
 909 651 909 651 590.551757812 999.70703125 c 5,8,9
 303 636 303 636 303.752929688 400.854492188 c 0,10,11
 304 323 304 323 325.790346796 295.58966508 c 0,12,13
 348 268 348 268 396.012983407 267.683812362 c 0,14,15
 444 268 444 268 472.100585938 301.95703125 c 0,16,17
 499.848087738 335.814636093 499.848087738 335.814636093 506.103515625 422.383789062 c 2,18,-1
 513.2265625 520.959960938 l 1,19,-1
 711.288085938 520.959960938 l 1,20,-1
 721.765625 423.5625 l 2,21,22
 731 337 731 337 755.065429688 302.682617188 c 0,0,1
612.282226562 112.463867188 m 1,23,24
 537 9 537 9 387.202148438 8.8662109375 c 0,25,26
 270 9 270 9 189.073242188 68.9453125 c 0,27,28
 57 168 57 168 57.4267578125 370.801757812 c 0,29,30
 58 694 58 694 408.904296875 1162.96484375 c 5,31,-1
 360.884765625 1204.65625 l 5,32,-1
 515.836914062 1419.55957031 l 5,33,-1
 548.934570312 1390.33105469 l 6,34,35
 1164.20565415 846.935188895 1164.20565415 846.935188895 1159.81054688 374.787109375 c 0,36,37
 1158 199 1158 199 1063.86572266 104.183105469 c 0,38,39
 970 9 970 9 827.930664062 9.4404296875 c 128,-1,40
 686 10 686 10 612.282226562 112.463867188 c 1,23,24
EndSplineSet
EndChar

StartChar: uni06F6
Encoding: 1782 1782 91
Width: 1008
VWidth: 2351
GlyphClass: 2
Flags: W
LayerCount: 2
Fore
SplineSet
591.142578125 1409.64355469 m 4,0,1
 634 1410 634 1410 681.599609375 1401.45117188 c 4,2,3
 729.527597539 1392.9059329 729.527597539 1392.9059329 781.22265625 1376.31640625 c 6,4,-1
 809 1367.40234375 l 5,5,-1
 809 1338.22949219 l 5,6,-1
 809 1173 l 5,7,-1
 809 1119.23925781 l 5,8,-1
 757.505859375 1134.68652344 l 6,9,10
 556 1195 556 1195 459.607421875 1126.75878906 c 4,11,12
 382 1071 382 1071 382.384765625 993.337890625 c 4,13,14
 382 914 382 914 440.219726562 870.6640625 c 4,15,16
 560 784 560 784 649.370117188 822.877929688 c 4,17,18
 669 831 669 831 704.580078125 847.1328125 c 4,19,20
 911.97307353 938.664089666 911.97307353 938.664089666 930.001953125 944.0390625 c 6,21,-1
 978.549804688 958.512695312 l 5,22,-1
 981.369140625 907.931640625 l 5,23,-1
 991.369140625 728.473632812 l 5,24,-1
 993.098632812 697.432617188 l 5,25,26
 599 539 599 539 257.624023438 -3.53515625 c 1,27,-1
 222.041992188 12.568359375 l 1,28,-1
 81.5078125 76.1689453125 l 1,29,-1
 45.3369140625 92.5380859375 l 1,30,31
 130 282 130 282 417.771484375 609.266601562 c 5,32,33
 286 651 286 651 213.857421875 738.162109375 c 4,34,35
 142 825 142 825 136.010742188 951.581054688 c 4,36,37
 126 1158 126 1158 264.744140625 1291.12988281 c 4,38,39
 326 1350 326 1350 408.717773438 1379.73828125 c 4,40,41
 491 1409 491 1409 591.142578125 1409.64355469 c 4,0,1
EndSplineSet
EndChar

StartChar: uniFB8F
Encoding: 64399 64399 106
Width: 2132
VWidth: 2351
GlyphClass: 2
Flags: W
AnchorPoint: "Anchor-10" 1157.9 1374.66 basechar 0
AnchorPoint: "Anchor-7" 798.06 -161.16 basechar 0
LayerCount: 2
Fore
SplineSet
1324.79101562 1031.98242188 m 1,0,-1
 1938.20214844 351.049804688 l 2,1,2
 2019.85058594 260.880859375 2019.85058594 260.880859375 2094.24609375 260.337890625 c 2,3,-1
 2139.21582031 260.009765625 l 2,4,5
 2152.984375 260.001953125 2152.984375 260.001953125 2163.453125 255.852539062 c 128,-1,6
 2173.921875 251.702148438 2173.921875 251.702148438 2179.98535156 242.485351562 c 128,-1,7
 2186.04882812 233.26953125 2186.04882812 233.26953125 2190.0390625 225.788085938 c 128,-1,8
 2194.02929688 218.306640625 2194.02929688 218.306640625 2195.40039062 204.120117188 c 128,-1,9
 2196.77148438 189.932617188 2196.77148438 189.932617188 2197.25976562 183.860351562 c 128,-1,10
 2197.74804688 177.788085938 2197.74804688 177.788085938 2197.40332031 163.37109375 c 128,-1,11
 2197.05859375 148.955078125 2197.05859375 148.955078125 2197.05859375 148.530273438 c 2,12,-1
 2197.05859375 114.499023438 l 2,13,14
 2197.4140625 109.837890625 2197.4140625 109.837890625 2197.61035156 102.106445312 c 128,-1,15
 2197.80566406 94.3740234375 2197.80566406 94.3740234375 2195.65820312 74.6396484375 c 128,-1,16
 2193.51074219 54.904296875 2193.51074219 54.904296875 2188.28515625 39.8603515625 c 128,-1,17
 2183.05859375 24.81640625 2183.05859375 24.81640625 2169.99511719 12.5712890625 c 128,-1,18
 2156.93066406 0.326171875 2156.93066406 0.326171875 2137.86914062 0.5322265625 c 2,19,-1
 2088.98144531 1.0625 l 2,20,21
 1908.96289062 2.9765625 1908.96289062 2.9765625 1717.13476562 229.338867188 c 1,22,23
 1618.69433594 1.0625 1618.69433594 1.0625 1262.26953125 0.5302734375 c 2,24,-1
 907.212890625 0 l 2,25,26
 549.077148438 -1.013671875 549.077148438 -1.013671875 381.9921875 74.123046875 c 0,27,28
 349.750976562 88.6220703125 349.750976562 88.6220703125 320.5625 105.287109375 c 128,-1,29
 291.374023438 121.951171875 291.374023438 121.951171875 265.3203125 140.749023438 c 128,-1,30
 239.267578125 159.545898438 239.267578125 159.545898438 216.368164062 180.416992188 c 128,-1,31
 193.46875 201.2890625 193.46875 201.2890625 173.787109375 224.262695312 c 128,-1,32
 154.106445312 247.237304688 154.106445312 247.237304688 137.681640625 272.190429688 c 128,-1,33
 121.2578125 297.143554688 121.2578125 297.143554688 108.134765625 324.168945312 c 128,-1,34
 95.01171875 351.194335938 95.01171875 351.194335938 85.248046875 380.103515625 c 128,-1,35
 75.484375 409.012695312 75.484375 409.012695312 69.10546875 439.963867188 c 128,-1,36
 62.7265625 470.915039062 62.7265625 470.915039062 59.8076171875 503.658203125 c 0,37,38
 53.6328125 574.046875 53.6328125 574.046875 61.89453125 648.866210938 c 128,-1,39
 70.15625 723.684570312 70.15625 723.684570312 92.6181640625 802.887695312 c 2,40,-1
 103.333007812 840.668945312 l 1,41,-1
 141.305664062 830.650390625 l 1,42,-1
 283.513671875 793.12890625 l 1,43,-1
 318.20703125 783.974609375 l 1,44,-1
 312.862304688 748.494140625 l 2,45,46
 292.134765625 610.900390625 292.134765625 610.900390625 294.9296875 548.828125 c 0,47,48
 300.293945312 426.184570312 300.293945312 426.184570312 373.083984375 359.283203125 c 128,-1,49
 445.875 292.381835938 445.875 292.381835938 598.184570312 275.467773438 c 0,50,51
 753.458984375 258.750976562 753.458984375 258.750976562 852.638671875 259.009765625 c 2,52,-1
 1296.88183594 260.16796875 l 2,53,54
 1415.28027344 260.55078125 1415.28027344 260.55078125 1465.10058594 294.9453125 c 128,-1,55
 1514.92089844 329.340820312 1514.92089844 329.340820312 1515.51074219 398.682617188 c 0,56,57
 1515.62597656 414.340820312 1515.62597656 414.340820312 1510.19921875 431.657226562 c 128,-1,58
 1504.77148438 448.97265625 1504.77148438 448.97265625 1491.77734375 470.358398438 c 128,-1,59
 1478.78222656 491.744140625 1478.78222656 491.744140625 1458.67089844 514.47265625 c 2,60,-1
 1069.7265625 954.0234375 l 1,61,-1
 1060.54882812 964.39453125 l 1,62,-1
 1059.74902344 978.221679688 l 2,63,64
 1058.20703125 1004.89453125 1058.20703125 1004.89453125 1057.52929688 1022.42578125 c 128,-1,65
 1056.8515625 1039.95703125 1056.8515625 1039.95703125 1056.96484375 1063.15332031 c 128,-1,66
 1057.078125 1086.34960938 1057.078125 1086.34960938 1058.87597656 1101.91601562 c 128,-1,67
 1060.67382812 1117.48144531 1060.67382812 1117.48144531 1064.65332031 1135.15332031 c 128,-1,68
 1068.6328125 1152.82421875 1068.6328125 1152.82421875 1075.07910156 1164.71386719 c 128,-1,69
 1081.52539062 1176.60351562 1081.52539062 1176.60351562 1091.54296875 1187.0390625 c 128,-1,70
 1101.56152344 1197.47460938 1101.56152344 1197.47460938 1114.86621094 1203.63867188 c 2,71,-1
 1838.86621094 1539.09863281 l 1,72,-1
 1895.68261719 1565.42480469 l 1,73,-1
 1895.68261719 1502.80566406 l 1,74,-1
 1895.68261719 1319.75390625 l 1,75,-1
 1895.68261719 1294.10449219 l 1,76,-1
 1872.37304688 1283.40234375 l 1,77,-1
 1324.79101562 1031.98242188 l 1,0,-1
EndSplineSet
EndChar

StartChar: uniFB9F
Encoding: 64415 64415 114
Width: 1487
VWidth: 2351
GlyphClass: 2
Flags: WO
AnchorPoint: "Anchor-10" 393.357 797.317 basechar 0
AnchorPoint: "Anchor-7" 293.314 -699.99 basechar 0
LayerCount: 2
Fore
SplineSet
1025.12597656 483.865234375 m 1,0,-1
 1165.95507812 578.66015625 l 1,1,-1
 1206.79882812 606.153320312 l 1,2,-1
 1225.34472656 560.544921875 l 1,3,-1
 1316.23730469 337.026367188 l 2,4,5
 1332 298 1332 298 1361.42480469 279.876953125 c 0,6,7
 1390.526444 261.302256477 1390.526444 261.302256477 1441.34082031 260.899414062 c 2,8,-1
 1495.171875 260.47265625 l 2,9,10
 1507 260 1507 260 1519.296875 255.713867188 c 0,11,12
 1530 251 1530 251 1535.70507812 242.212890625 c 0,13,14
 1542 233 1542 233 1545.63964844 225.41796875 c 0,15,16
 1550 218 1550 218 1550.890625 203.930664062 c 0,17,18
 1552 190 1552 190 1552.66113281 183.65625 c 0,19,20
 1553 177 1553 177 1552.7421875 163.196289062 c 0,21,22
 1552.37597656 159.645488538 1552.37597656 159.645488538 1552.37597656 148 c 2,23,-1
 1552.37597656 113.8984375 l 2,24,25
 1552 105 1552 105 1552.65917969 98.439453125 c 0,26,27
 1553 84 1553 84 1552.43164062 77.3095703125 c 0,28,29
 1552 71 1552 71 1550.46289062 56.42578125 c 128,-1,30
 1549 42 1549 42 1544.91796875 34.26953125 c 0,31,32
 1541 27 1541 27 1534.60644531 17.2529296875 c 0,33,34
 1528 8 1528 8 1517.69335938 3.8603515625 c 0,35,36
 1506.62673736 -0.134749515971 1506.62673736 -0.134749515971 1492.94824219 0.005859375 c 2,37,-1
 1441.45800781 0.53515625 l 2,38,39
 1381 1 1381 1 1337.60351562 17.35546875 c 1,40,41
 1317 -247 1317 -247 1151.72460938 -381.69921875 c 0,42,43
 987 -517 987 -517 690.450195312 -517.545898438 c 0,44,45
 418 -518 418 -518 252.698242188 -392.291992188 c 0,46,47
 59 -244 59 -244 59.55859375 58.439453125 c 0,48,49
 60.0009614224 273.467332122 60.0009614224 273.467332122 155.828125 489.950195312 c 2,50,-1
 170.991210938 524.205078125 l 1,51,-1
 206.166015625 511.318359375 l 1,52,-1
 354.900390625 456.826171875 l 1,53,-1
 393.923828125 442.529296875 l 1,54,-1
 378.14453125 404.080078125 l 2,55,56
 338 307 338 307 320.166015625 227.233398438 c 0,57,58
 301 145 301 145 300.893554688 75.26171875 c 0,59,60
 301 -99 301 -99 395.223632812 -181.858398438 c 0,61,62
 490 -265 490 -265 692.98046875 -264.501953125 c 0,63,64
 911 -264 911 -264 1012.55957031 -176.780273438 c 0,65,66
 1114 -89 1114 -89 1113.8515625 93.134765625 c 0,67,68
 1113.99965438 224.692962725 1113.99965438 224.692962725 1011.56640625 433.033203125 c 2,69,-1
 996.16015625 464.368164062 l 1,70,-1
 1025.12597656 483.865234375 l 1,0,-1
EndSplineSet
EndChar

StartChar: uniFBE8
Encoding: 64488 64488 117
Width: 640
VWidth: 2357
GlyphClass: 2
Flags: W
AnchorPoint: "Anchor-10" 293.546 1120.67 basechar 0
AnchorPoint: "Anchor-7" 327.466 -76.0703 basechar 0
LayerCount: 2
Fore
SplineSet
466.709960938 90.1220703125 m 0,0,1
 411.348632812 42.552734375 411.348632812 42.552734375 317.084960938 21.2763671875 c 128,-1,2
 222.821289062 0 222.821289062 0 85.48828125 0 c 2,3,-1
 -2 0 l 2,4,5
 -29.6337890625 0 -29.6337890625 0 -50.3916015625 13.966796875 c 0,6,7
 -91.6240234375 41.7109375 -91.6240234375 41.7109375 -91.6240234375 114 c 2,8,-1
 -91.6240234375 147.895507812 l 2,9,10
 -92.0009765625 220.159179688 -92.0009765625 220.159179688 -50.4716796875 247.34765625 c 0,11,12
 -30.412109375 260.479492188 -30.412109375 260.479492188 -4 260.479492188 c 2,13,-1
 89.197265625 260.479492188 l 2,14,15
 132.393554688 260.251953125 132.393554688 260.251953125 162.032226562 261.2578125 c 128,-1,16
 191.669921875 262.264648438 191.669921875 262.264648438 203.400390625 264.068359375 c 0,17,18
 294.8984375 276.540039062 294.8984375 276.540039062 318.129882812 332.249023438 c 0,19,20
 336.951171875 376.959960938 336.951171875 376.959960938 336.486328125 453.485351562 c 0,21,22
 336.020507812 562.079101562 336.020507812 562.079101562 295.756835938 726.13671875 c 2,23,-1
 286.703125 763.022460938 l 1,24,-1
 323.071289062 773.97265625 l 1,25,-1
 476.21875 820.083007812 l 1,26,-1
 512.985351562 831.15234375 l 1,27,-1
 525.548828125 794.869140625 l 2,28,29
 553.25390625 714.860351562 553.25390625 714.860351562 567.23828125 632.686523438 c 128,-1,30
 581.223632812 550.513671875 581.223632812 550.513671875 581.465820312 466.202148438 c 0,31,32
 580.966796875 189.783203125 580.966796875 189.783203125 466.709960938 90.1220703125 c 0,0,1
EndSplineSet
EndChar

StartChar: uniFBE9
Encoding: 64489 64489 118
Width: 774
VWidth: 2351
GlyphClass: 2
Flags: W
AnchorPoint: "Anchor-10" 297.926 1065.55 basechar 0
AnchorPoint: "Anchor-7" 265.065 -224.47 basechar 0
LayerCount: 2
Fore
SplineSet
779.620117188 0 m 6,0,-1
 736.977539062 0 l 6,1,2
 583 0 583 0 461.290039062 113.427734375 c 5,3,4
 339 0 339 0 159.21484375 0 c 6,5,-1
 -6 0 l 2,6,7
 -30 0 -30 0 -49.06640625 11.814453125 c 0,8,9
 -91.6240234375 37.7706888466 -91.6240234375 37.7706888466 -91.6240234375 114 c 2,10,-1
 -91.6240234375 147.895507812 l 2,11,12
 -92 222 -92 222 -50.0908203125 248.115234375 c 0,13,14
 -29.1894336249 260.479492188 -29.1894336249 260.479492188 -5.6240234375 260.479492188 c 2,15,-1
 162.596679688 260.479492188 l 6,16,17
 258 260 258 260 297.903320312 295.09765625 c 4,18,19
 338.622312482 329.679239791 338.622312482 329.679239791 340.30078125 407.461914062 c 6,20,-1
 345.154296875 632.380859375 l 5,21,-1
 345.864257812 665.322265625 l 5,22,-1
 378.333007812 670.93359375 l 5,23,-1
 531.716796875 697.439453125 l 5,24,-1
 576.833007812 705.235351562 l 5,25,-1
 578.501953125 659.481445312 l 5,26,-1
 587.674804688 408.041992188 l 6,27,28
 591 329 591 329 625.608398438 294.604492188 c 4,29,30
 660.509601344 260.479492188 660.509601344 260.479492188 739.999023438 260.479492188 c 6,31,-1
 780.919921875 260.479492188 l 6,32,33
 793 260 793 260 805.204101562 255.702148438 c 4,34,35
 816 251 816 251 821.706054688 242.227539062 c 4,36,37
 828 233 828 233 831.681640625 225.403320312 c 4,38,39
 836 218 836 218 836.9375 203.9453125 c 132,-1,40
 838 190 838 190 838.692382812 183.641601562 c 4,41,42
 839 177 839 177 838.752929688 163.211914062 c 4,43,44
 838.375976562 159.601280044 838.375976562 159.601280044 838.375976562 148 c 6,45,-1
 838.375976562 113.8984375 l 6,46,47
 837.974742076 55.3119494429 837.974742076 55.3119494429 832.826171875 40.3037109375 c 4,48,49
 819 0 819 0 779.620117188 0 c 6,0,-1
EndSplineSet
EndChar

StartChar: uniFE73
Encoding: 65139 65139 126
Width: 613
VWidth: 2357
GlyphClass: 2
Flags: W
AnchorPoint: "Anchor-10" 226.617 1388.45 basechar 0
AnchorPoint: "Anchor-7" 226.617 -86.0098 basechar 0
LayerCount: 2
Fore
SplineSet
360.364257812 403.96484375 m 2,0,1
 360.364257812 332.330078125 360.364257812 332.330078125 403.07421875 298.916015625 c 128,-1,2
 445.783203125 265.502929688 445.783203125 265.502929688 548.73046875 265.502929688 c 2,3,-1
 623.1953125 265.502929688 l 1,4,-1
 663.1953125 265.502929688 l 1,5,-1
 663.1953125 225.502929688 l 1,6,-1
 663.1953125 40.009765625 l 1,7,-1
 663.1953125 0.009765625 l 1,8,-1
 623.1953125 0.009765625 l 1,9,-1
 536.350585938 0.009765625 l 2,10,11
 322.240234375 0.0048828125 322.240234375 0.0048828125 207.555664062 99.5625 c 128,-1,12
 92.8701171875 199.120117188 92.8701171875 199.120117188 92.8701171875 390.354492188 c 2,13,-1
 92.8701171875 428.524414062 l 1,14,-1
 92.8701171875 468.524414062 l 1,15,-1
 132.870117188 468.524414062 l 1,16,-1
 320.364257812 468.524414062 l 1,17,-1
 360.364257812 468.524414062 l 1,18,-1
 360.364257812 428.524414062 l 1,19,-1
 360.364257812 403.96484375 l 2,0,1
EndSplineSet
EndChar

StartChar: uniFE8E
Encoding: 65166 65166 152
Width: 557
VWidth: 2351
GlyphClass: 2
Flags: W
AnchorPoint: "Anchor-10" 216.907 1443.98 basechar 0
AnchorPoint: "Anchor-7" 264.947 -175.71 basechar 0
LayerCount: 2
Fore
SplineSet
564.375976562 260.479492188 m 2,0,1
 622.375976562 260.479492188 622.375976562 260.479492188 622.375976562 148 c 2,2,-1
 622.375976562 113.8984375 l 2,3,4
 621.63635137 -1.27400312522e-11 621.63635137 -1.27400312522e-11 563.620117188 -0 c 6,5,-1
 523.619140625 0 l 2,6,7
 298 0 298 0 199.932617188 151.126953125 c 0,8,9
 134.314538976 252.514003157 134.314538976 252.514003157 126.982421875 470.002929688 c 2,10,-1
 97.4482421875 1346.06054688 l 1,11,-1
 351.021484375 1437.58789062 l 1,12,-1
 350.568359375 484.915039062 l 2,13,14
 351.008537499 363.647957653 351.008537499 363.647957653 392.088867188 312.342773438 c 0,15,16
 433.616068094 260.479492188 433.616068094 260.479492188 523.459960938 260.479492188 c 2,17,-1
 564.375976562 260.479492188 l 2,0,1
EndSplineSet
EndChar

StartChar: uniFEA2
Encoding: 65186 65186 172
Width: 1333
VWidth: 2351
GlyphClass: 2
Flags: W
AnchorPoint: "Anchor-7" 584.525 -773.648 basechar 0
AnchorPoint: "Anchor-10" 549.59 1257.96 basechar 0
LayerCount: 2
Fore
SplineSet
827.005859375 412.004882812 m 1,0,1
 802.94140625 406.1171875 802.94140625 406.1171875 780.03125 399.229492188 c 128,-1,2
 757.12109375 392.341796875 757.12109375 392.341796875 735.244140625 384.430664062 c 128,-1,3
 713.3671875 376.518554688 713.3671875 376.518554688 692.280273438 367.484375 c 128,-1,4
 671.193359375 358.450195312 671.193359375 358.450195312 650.938476562 348.352539062 c 128,-1,5
 630.684570312 338.25390625 630.684570312 338.25390625 610.85546875 326.91015625 c 0,6,7
 305.006835938 150.874023438 305.006835938 150.874023438 305.084960938 -100.111328125 c 0,8,9
 305.059570312 -164.783203125 305.059570312 -164.783203125 323.41015625 -213.614257812 c 128,-1,10
 341.760742188 -262.444335938 341.760742188 -262.444335938 379.180664062 -297.509765625 c 128,-1,11
 416.6015625 -332.576171875 416.6015625 -332.576171875 474.798828125 -355.861328125 c 0,12,13
 528.01171875 -376.953125 528.01171875 -376.953125 603.989257812 -388.150390625 c 128,-1,14
 679.965820312 -399.34765625 679.965820312 -399.34765625 776.8359375 -399.671875 c 0,15,16
 968.45703125 -399.991210938 968.45703125 -399.991210938 1140.11816406 -351.18359375 c 2,17,-1
 1178.63476562 -340.233398438 l 1,18,-1
 1189.54394531 -378.760742188 l 1,19,-1
 1233.55273438 -534.172851562 l 1,20,-1
 1244.21289062 -571.81640625 l 1,21,-1
 1206.81445312 -583.307617188 l 2,22,23
 992.994140625 -649.00390625 992.994140625 -649.00390625 778.904296875 -648.865234375 c 0,24,25
 510.2421875 -649.004882812 510.2421875 -649.004882812 320.545898438 -550.48828125 c 0,26,27
 57.0458984375 -413.294921875 57.0458984375 -413.294921875 56.4599609375 -103.427734375 c 0,28,29
 55.970703125 98.1025390625 55.970703125 98.1025390625 165.268554688 261.46875 c 0,30,31
 327.794921875 505.305664062 327.794921875 505.305664062 674.07421875 606.5390625 c 0,32,33
 695.208007812 612.690429688 695.208007812 612.690429688 716.032226562 617.885742188 c 1,34,35
 686.776367188 630.768554688 686.776367188 630.768554688 654.14453125 646.19921875 c 0,36,37
 615.125 664.666015625 615.125 664.666015625 579.99609375 678.725585938 c 128,-1,38
 544.866210938 692.784179688 544.866210938 692.784179688 527.454101562 698.309570312 c 128,-1,39
 510.041015625 703.8359375 510.041015625 703.8359375 506.225585938 703.815429688 c 0,40,41
 490.700195312 703.836914062 490.700195312 703.836914062 474.953125 700.942382812 c 128,-1,42
 459.20703125 698.048828125 459.20703125 698.048828125 442.64453125 691.94140625 c 128,-1,43
 426.08203125 685.834960938 426.08203125 685.834960938 409.330078125 676.5859375 c 128,-1,44
 392.577148438 667.3359375 392.577148438 667.3359375 375.0234375 654.419921875 c 128,-1,45
 357.46875 641.502929688 357.46875 641.502929688 339.755859375 625.23046875 c 128,-1,46
 322.04296875 608.958007812 322.04296875 608.958007812 303.541992188 588.564453125 c 128,-1,47
 285.040039062 568.169921875 285.040039062 568.169921875 266.411132812 544.192382812 c 2,48,-1
 241.009765625 511.5 l 1,49,-1
 209.209960938 538.010742188 l 1,50,-1
 94.0869140625 633.987304688 l 1,51,-1
 66.2255859375 657.215820312 l 1,52,-1
 86.6279296875 687.208984375 l 2,53,54
 271.088867188 958.375976562 271.088867188 958.375976562 490.383789062 954.494140625 c 0,55,56
 527.447265625 953.920898438 527.447265625 953.920898438 571.388671875 942.430664062 c 0,57,58
 584.02734375 938.9296875 584.02734375 938.9296875 602.305664062 931.791992188 c 128,-1,59
 620.583984375 924.653320312 620.583984375 924.653320312 646.506835938 913.01953125 c 128,-1,60
 672.428710938 901.384765625 672.428710938 901.384765625 702.815429688 886.977539062 c 128,-1,61
 733.202148438 872.5703125 733.202148438 872.5703125 774.962890625 852.21484375 c 0,62,63
 826.685546875 827.181640625 826.685546875 827.181640625 870.541992188 807.12890625 c 128,-1,64
 914.399414062 787.077148438 914.399414062 787.077148438 948.942382812 772.6171875 c 128,-1,65
 983.486328125 758.157226562 983.486328125 758.157226562 1009.06738281 749.086914062 c 0,66,67
 1047.51269531 735.663085938 1047.51269531 735.663085938 1089.00976562 726.002929688 c 128,-1,68
 1130.50683594 716.341796875 1130.50683594 716.341796875 1174.79101562 710.548828125 c 2,69,-1
 1214.70214844 705.328125 l 1,70,-1
 1209.23144531 665.450195312 l 1,71,-1
 1185.09472656 489.502929688 l 1,72,-1
 1180.83300781 458.439453125 l 1,73,-1
 1149.65136719 455.159179688 l 2,74,75
 1121.73144531 452.221679688 1121.73144531 452.221679688 1093.31152344 449.295898438 c 128,-1,76
 1064.89160156 446.37109375 1064.89160156 446.37109375 1037.23828125 443.5859375 c 1,77,78
 1042.59570312 395.71484375 1042.59570312 395.71484375 1059.45605469 361.3671875 c 128,-1,79
 1076.31542969 327.01953125 1076.31542969 327.01953125 1106.9765625 303.813476562 c 128,-1,80
 1137.63867188 280.607421875 1137.63867188 280.607421875 1183.34667969 269.811523438 c 128,-1,81
 1229.0546875 259.014648438 1229.0546875 259.014648438 1291.5703125 259.838867188 c 2,82,-1
 1339.52148438 260.471679688 l 2,83,84
 1353.55664062 260.885742188 1353.55664062 260.885742188 1364.23046875 256.87109375 c 128,-1,85
 1374.90429688 252.85546875 1374.90429688 252.85546875 1381.07128906 243.5859375 c 128,-1,86
 1387.23828125 234.31640625 1387.23828125 234.31640625 1391.296875 226.57421875 c 128,-1,87
 1395.35546875 218.833007812 1395.35546875 218.833007812 1396.73730469 204.459960938 c 128,-1,88
 1398.11914062 190.0859375 1398.11914062 190.0859375 1398.60742188 183.6875 c 128,-1,89
 1399.09472656 177.2890625 1399.09472656 177.2890625 1398.73535156 162.881835938 c 128,-1,90
 1398.37597656 148.474609375 1398.37597656 148.474609375 1398.37597656 148 c 2,91,-1
 1398.37597656 113.8984375 l 2,92,93
 1398.37109375 113.029296875 1398.37109375 113.029296875 1398.6484375 98.3017578125 c 128,-1,94
 1398.92480469 83.5732421875 1398.92480469 83.5732421875 1398.41796875 77.3037109375 c 128,-1,95
 1397.91210938 71.03515625 1397.91210938 71.03515625 1396.47949219 56.7216796875 c 128,-1,96
 1395.046875 42.4091796875 1395.046875 42.4091796875 1391.0390625 34.8427734375 c 128,-1,97
 1387.03125 27.2763671875 1387.03125 27.2763671875 1380.92871094 17.9833984375 c 128,-1,98
 1374.82714844 8.6904296875 1374.82714844 8.6904296875 1364.35644531 4.431640625 c 128,-1,99
 1353.88574219 0.173828125 1353.88574219 0.173828125 1340.11425781 0.0029296875 c 2,100,-1
 1297.25976562 -0.5263671875 l 2,101,102
 1086.57128906 -3.28515625 1086.57128906 -3.28515625 966.192382812 102.305664062 c 128,-1,103
 845.814453125 207.897460938 845.814453125 207.897460938 827.005859375 412.004882812 c 1,0,1
EndSplineSet
EndChar

StartChar: uniFEA3
Encoding: 65187 65187 173
Width: 1381
VWidth: 2351
GlyphClass: 2
Flags: W
AnchorPoint: "Anchor-10" 658.26 1119.07 basechar 0
AnchorPoint: "Anchor-7" 619.96 -177.83 basechar 0
LayerCount: 2
Fore
SplineSet
1324.59179688 558.411132812 m 1,0,-1
 1300.25878906 411.748046875 l 1,1,-1
 1295.78710938 384.795898438 l 1,2,-1
 1269.09863281 379.166015625 l 2,3,4
 1225 370 1225 370 665.87109375 99.1708984375 c 0,5,6
 596 65 596 65 506.229492188 43.35546875 c 0,7,8
 416 21 416 21 307.66015625 10.626953125 c 0,9,10
 199 0 199 0 69.0302734375 -0 c 2,11,-1
 -4 0 l 2,12,13
 -29 0 -29 0 -49.1357421875 12.5048828125 c 0,14,15
 -91.6240234375 39.758831246 -91.6240234375 39.758831246 -91.6240234375 114 c 2,16,-1
 -91.6240234375 147.895507812 l 2,17,18
 -92 220 -92 220 -50.4716796875 247.34765625 c 0,19,20
 -29.224174534 260.479492188 -29.224174534 260.479492188 -4 260.479492188 c 2,21,-1
 59.8857421875 260.479492188 l 2,22,23
 371 260 371 260 508.31640625 310.368164062 c 0,24,25
 561 329 561 329 616.219726562 351.374023438 c 0,26,27
 672 373 672 373 729.58984375 398.489257812 c 128,-1,28
 787 424 787 424 847.620117188 451.36328125 c 1,29,30
 813 463 813 463 773.850585938 478.399414062 c 0,31,32
 734 494 734 494 688.229492188 514.228515625 c 0,33,34
 596 555 596 555 537.30078125 578.743652344 c 0,35,36
 479 603 479 603 459.16015625 604.979492188 c 4,37,38
 451 606 451 606 442.348632812 606.203125 c 4,39,40
 351.828629397 605.999614719 351.828629397 605.999614719 241.696289062 461.176757812 c 6,41,-1
 217.349609375 429.161132812 l 5,42,-1
 185.46875 453.684570312 l 5,43,-1
 70.2666015625 542.301757812 l 5,44,-1
 39.71875 565.80078125 l 5,45,-1
 62.06640625 597.200195312 l 6,46,47
 166 743 166 743 230.577148438 790.473632812 c 4,48,49
 330 862 330 862 449.515625 861.916015625 c 4,50,51
 536 862 536 862 680.147460938 798.728515625 c 0,52,53
 722 780 722 780 927.3046875 682.763671875 c 0,54,55
 1113.82906808 594.608164266 1113.82906808 594.608164266 1282.70214844 604.883789062 c 2,56,-1
 1332.80761719 607.932617188 l 1,57,-1
 1324.59179688 558.411132812 l 1,0,-1
EndSplineSet
EndChar

StartChar: uniFEA4
Encoding: 65188 65188 174
Width: 1423
VWidth: 2351
GlyphClass: 2
Flags: W
AnchorPoint: "Anchor-7" 619.96 -177.83 basechar 0
AnchorPoint: "Anchor-10" 659.26 1119.07 basechar 0
LayerCount: 2
Fore
SplineSet
927.12109375 682.850585938 m 0,0,1
 1116.81142795 594.622591945 1116.81142795 594.622591945 1282.66113281 604.881835938 c 2,2,-1
 1332.81640625 607.984375 l 1,3,-1
 1324.59179688 558.411132812 l 1,4,-1
 1300.26660156 411.791992188 l 1,5,-1
 1295.93945312 385.712890625 l 1,6,-1
 1270.25195312 379.469726562 l 2,7,8
 1236 371 1236 371 1186.0546875 351.46875 c 0,9,10
 1137 332 1137 332 1076.91601562 302.78515625 c 1,11,12
 1101 285 1101 285 1161.45410156 273.64453125 c 0,13,14
 1221.20758951 262.152400888 1221.20758951 262.152400888 1311.41894531 261.431640625 c 2,15,-1
 1431.08007812 260.475585938 l 2,16,17
 1444 260 1444 260 1455.26269531 255.709960938 c 0,18,19
 1466 251 1466 251 1471.70605469 242.21875 c 0,20,21
 1478 233 1478 233 1481.65527344 225.412109375 c 0,22,23
 1486 218 1486 218 1486.90722656 203.935546875 c 128,-1,24
 1488 190 1488 190 1488.67285156 183.651367188 c 0,25,26
 1489 177 1489 177 1488.74609375 163.202148438 c 0,27,28
 1488.37597656 156.15684177 1488.37597656 156.15684177 1488.37597656 148 c 2,29,-1
 1488.37597656 113.8984375 l 2,30,31
 1488 111 1488 111 1488.54492188 100.379882812 c 0,32,33
 1489 89 1489 89 1488.64941406 82.8203125 c 0,34,35
 1489 76 1489 76 1487.48144531 64.5283203125 c 128,-1,36
 1486 53 1486 53 1484.27734375 45.1162109375 c 0,37,38
 1482 38 1482 38 1477.79785156 28.1376953125 c 0,39,40
 1473 19 1473 19 1467.28027344 13.205078125 c 0,41,42
 1461 8 1461 8 1451.48535156 3.873046875 c 0,43,44
 1442 0 1442 0 1429.62011719 0 c 2,45,-1
 1288.41503906 0 l 2,46,47
 1124 0 1124 0 1014.38183594 47.990234375 c 0,48,49
 904 96 904 96 855.247070312 195.584960938 c 1,50,51
 762 145 762 145 665.850585938 99.1611328125 c 0,52,53
 461 0 461 0 69.0302734375 0 c 2,54,-1
 -4 0 l 2,55,56
 -29 0 -29 0 -49.1357421875 12.5048828125 c 0,57,58
 -91.6240234375 39.758831246 -91.6240234375 39.758831246 -91.6240234375 114 c 2,59,-1
 -91.6240234375 147.895507812 l 2,60,61
 -92 220 -92 220 -50.4716796875 247.34765625 c 0,62,63
 -29.224174534 260.479492188 -29.224174534 260.479492188 -4 260.479492188 c 2,64,-1
 59.884765625 260.479492188 l 2,65,66
 373.333231513 260.005544315 373.333231513 260.005544315 507.8515625 310.196289062 c 0,67,68
 549 326 549 326 591.166015625 342.22265625 c 0,69,70
 633 359 633 359 675.713867188 376.575195312 c 0,71,72
 718 394 718 394 761.0546875 413.059570312 c 128,-1,73
 804 432 804 432 846.987304688 451.57421875 c 1,74,75
 812 463 812 463 773.321289062 478.59765625 c 0,76,77
 734 494 734 494 688.229492188 514.228515625 c 0,78,79
 596 555 596 555 537.30078125 578.743652344 c 0,80,81
 479 603 479 603 459.16015625 604.979492188 c 4,82,83
 451 606 451 606 442.348632812 606.203125 c 4,84,85
 351.828629397 605.999614719 351.828629397 605.999614719 241.696289062 461.176757812 c 6,86,-1
 217.349609375 429.161132812 l 5,87,-1
 185.46875 453.684570312 l 5,88,-1
 70.2666015625 542.301757812 l 5,89,-1
 39.71875 565.80078125 l 5,90,-1
 62.06640625 597.200195312 l 6,91,92
 166 743 166 743 230.577148438 790.473632812 c 4,93,94
 330 862 330 862 449.517578125 861.916015625 c 4,95,96
 504 862 504 862 558.871582031 845.921386719 c 0,97,98
 614 830 614 830 681.009765625 798.3359375 c 0,99,100
 803 741 803 741 927.12109375 682.850585938 c 0,0,1
EndSplineSet
EndChar

StartChar: uniFEAA
Encoding: 65194 65194 180
Width: 1162
VWidth: 2351
GlyphClass: 2
Flags: W
AnchorPoint: "Anchor-10" 515.149 1329.65 basechar 0
AnchorPoint: "Anchor-7" 475.41 -206.98 basechar 0
LayerCount: 2
Fore
SplineSet
1170.60742188 260.4609375 m 2,0,1
 1184.18554688 260.041992188 1184.18554688 260.041992188 1194.48339844 255.659179688 c 128,-1,2
 1204.78222656 251.276367188 1204.78222656 251.276367188 1210.74121094 242.104492188 c 128,-1,3
 1216.70117188 232.931640625 1216.70117188 232.931640625 1220.60449219 225.369140625 c 128,-1,4
 1224.5078125 217.805664062 1224.5078125 217.805664062 1225.8359375 203.875976562 c 128,-1,5
 1227.16503906 189.947265625 1227.16503906 189.947265625 1227.62304688 183.676757812 c 128,-1,6
 1228.08105469 177.40625 1228.08105469 177.40625 1227.72851562 163.193359375 c 128,-1,7
 1227.37597656 148.98046875 1227.37597656 148.98046875 1227.37597656 148 c 2,8,-1
 1227.37597656 113.8984375 l 2,9,10
 1227.08789062 57.248046875 1227.08789062 57.248046875 1221.82617188 40.3037109375 c 0,11,12
 1207.828125 0.8544921875 1207.828125 0.8544921875 1168.62011719 0 c 2,13,-1
 1137.85644531 0 l 2,14,15
 1060.20117188 0 1060.20117188 0 993.182617188 29.365234375 c 128,-1,16
 926.163085938 58.7294921875 926.163085938 58.7294921875 872.353515625 116.00390625 c 1,17,18
 729.791992188 -21.984375 729.791992188 -21.984375 405.545898438 -21.7431640625 c 0,19,20
 251.291992188 -22.01171875 251.291992188 -22.01171875 82.4736328125 36.55859375 c 2,21,-1
 55.5849609375 45.8876953125 l 1,22,-1
 55.5849609375 74.3486328125 l 1,23,-1
 55.5849609375 262.038085938 l 1,24,-1
 55.5849609375 323.041992188 l 1,25,-1
 111.53125 298.721679688 l 2,26,27
 244.291015625 241.01171875 244.291015625 241.01171875 396.693359375 241.22265625 c 0,28,29
 618.407226562 241.015625 618.407226562 241.015625 694.483398438 317.34765625 c 0,30,31
 703.889648438 326.624023438 703.889648438 326.624023438 703.814453125 337.97265625 c 0,32,33
 703.873046875 346.522460938 703.873046875 346.522460938 701.07421875 357.194335938 c 128,-1,34
 698.275390625 367.866210938 698.275390625 367.866210938 691.89453125 381.08984375 c 2,35,-1
 447.974609375 886.6171875 l 1,36,-1
 432.782226562 918.104492188 l 1,37,-1
 461.951171875 937.375 l 1,38,-1
 606.921875 1033.14746094 l 1,39,-1
 645.599609375 1058.69824219 l 1,40,-1
 665.213867188 1016.69726562 l 1,41,-1
 926.627929688 456.90234375 l 2,42,43
 1015.86035156 265.227539062 1015.86035156 265.227539062 1142.26367188 261.333984375 c 2,44,-1
 1170.60742188 260.4609375 l 2,0,1
EndSplineSet
EndChar

StartChar: uniFEAE
Encoding: 65198 65198 184
Width: 966
VWidth: 2357
GlyphClass: 2
Flags: W
AnchorPoint: "Anchor-7" 316.38 -608.85 basechar 0
AnchorPoint: "Anchor-10" 501.618 973.71 basechar 0
LayerCount: 2
Fore
SplineSet
521.513671875 530.840820312 m 1,0,-1
 672.024414062 607.618164062 l 1,1,-1
 716.794921875 630.456054688 l 1,2,-1
 729.001953125 581.702148438 l 2,3,4
 762.783203125 446.790039062 762.783203125 446.790039062 797.111328125 311.877929688 c 0,5,6
 809.430664062 260.479492188 809.430664062 260.479492188 932.770507812 260.479492188 c 2,7,-1
 973.919921875 260.479492188 l 2,8,9
 987.739257812 260.103515625 987.739257812 260.103515625 998.204101562 255.702148438 c 128,-1,10
 1008.66992188 251.30078125 1008.66992188 251.30078125 1014.70605469 242.227539062 c 128,-1,11
 1020.74316406 233.155273438 1020.74316406 233.155273438 1024.68164062 225.403320312 c 128,-1,12
 1028.62011719 217.650390625 1028.62011719 217.650390625 1029.9375 203.9453125 c 128,-1,13
 1031.25390625 190.239257812 1031.25390625 190.239257812 1031.69238281 183.641601562 c 128,-1,14
 1032.12988281 177.044921875 1032.12988281 177.044921875 1031.75292969 163.211914062 c 128,-1,15
 1031.37597656 149.377929688 1031.37597656 149.377929688 1031.37597656 148 c 2,16,-1
 1031.37597656 113.8984375 l 2,17,18
 1031.37207031 113.061523438 1031.37207031 113.061523438 1031.65332031 98.3603515625 c 128,-1,19
 1031.93457031 83.6591796875 1031.93457031 83.6591796875 1031.42480469 77.3076171875 c 128,-1,20
 1030.91601562 70.9560546875 1030.91601562 70.9560546875 1029.47460938 56.59375 c 128,-1,21
 1028.03320312 42.23046875 1028.03320312 42.23046875 1023.98925781 34.595703125 c 128,-1,22
 1019.9453125 26.9619140625 1019.9453125 26.9619140625 1013.79199219 17.6669921875 c 128,-1,23
 1007.63867188 8.3720703125 1007.63867188 8.3720703125 997.071289062 4.18359375 c 128,-1,24
 986.50390625 -0.00390625 986.50390625 -0.00390625 972.608398438 0 c 2,25,-1
 937.994140625 0.009765625 l 2,26,27
 892.104492188 0.0068359375 892.104492188 0.0068359375 855.53515625 4.4580078125 c 128,-1,28
 818.965820312 8.91015625 818.965820312 8.91015625 791.79296875 18.166015625 c 1,29,30
 733.682617188 -244.54296875 733.682617188 -244.54296875 553.5703125 -378.787109375 c 128,-1,31
 373.45703125 -513.030273438 373.45703125 -513.030273438 81.33203125 -514.038085938 c 2,32,-1
 54.212890625 -514.131835938 l 1,33,-1
 44.0869140625 -488.97265625 l 1,34,-1
 -10.623046875 -353.03515625 l 1,35,-1
 -31.1328125 -302.075195312 l 1,36,-1
 23.6630859375 -298.200195312 l 2,37,38
 321.037109375 -277.170898438 321.037109375 -277.170898438 450.401367188 -145.034179688 c 0,39,40
 565.05078125 -27.654296875 565.05078125 -27.654296875 565.627929688 156.143554688 c 0,41,42
 565.978515625 242.807617188 565.978515625 242.807617188 501.055664062 484.845703125 c 2,43,-1
 492.665039062 516.125 l 1,44,-1
 521.513671875 530.840820312 l 1,0,-1
EndSplineSet
PairPos2: "'kern' Horizontal Kerning lookup 15-1" uni06CA dx=-85 dy=0 dh=-85 dv=0 dx=0 dy=0 dh=0 dv=0
PairPos2: "'kern' Horizontal Kerning lookup 15-1" uniFB90 dx=-307 dy=0 dh=-307 dv=0 dx=0 dy=0 dh=0 dv=0
PairPos2: "'kern' Horizontal Kerning lookup 15-1" uniFB8E dx=-307 dy=0 dh=-307 dv=0 dx=0 dy=0 dh=0 dv=0
PairPos2: "'kern' Horizontal Kerning lookup 15-1" uni06A9 dx=-307 dy=0 dh=-307 dv=0 dx=0 dy=0 dh=0 dv=0
PairPos2: "'kern' Horizontal Kerning lookup 15-1" uni064A dx=-106 dy=0 dh=-106 dv=0 dx=0 dy=0 dh=0 dv=0
PairPos2: "'kern' Horizontal Kerning lookup 15-1" afii57414 dx=-106 dy=0 dh=-106 dv=0 dx=0 dy=0 dh=0 dv=0
PairPos2: "'kern' Horizontal Kerning lookup 15-1" uniFBE8 dx=-212 dy=0 dh=-212 dv=0 dx=0 dy=0 dh=0 dv=0
PairPos2: "'kern' Horizontal Kerning lookup 15-1" uni0649 dx=-85 dy=0 dh=-85 dv=0 dx=0 dy=0 dh=0 dv=0
PairPos2: "'kern' Horizontal Kerning lookup 15-1" uni0648 dx=-85 dy=0 dh=-85 dv=0 dx=0 dy=0 dh=0 dv=0
PairPos2: "'kern' Horizontal Kerning lookup 15-1" afii57412 dx=-85 dy=0 dh=-85 dv=0 dx=0 dy=0 dh=0 dv=0
PairPos2: "'kern' Horizontal Kerning lookup 15-1" uniFEEB dx=-212 dy=0 dh=-212 dv=0 dx=0 dy=0 dh=0 dv=0
PairPos2: "'kern' Horizontal Kerning lookup 15-1" uni0647 dx=-212 dy=0 dh=-212 dv=0 dx=0 dy=0 dh=0 dv=0
PairPos2: "'kern' Horizontal Kerning lookup 15-1" uniFEE7 dx=-212 dy=0 dh=-212 dv=0 dx=0 dy=0 dh=0 dv=0
PairPos2: "'kern' Horizontal Kerning lookup 15-1" uni0646 dx=-159 dy=0 dh=-159 dv=0 dx=0 dy=0 dh=0 dv=0
PairPos2: "'kern' Horizontal Kerning lookup 15-1" uniFEE3 dx=-212 dy=0 dh=-212 dv=0 dx=0 dy=0 dh=0 dv=0
PairPos2: "'kern' Horizontal Kerning lookup 15-1" uni0645 dx=-212 dy=0 dh=-212 dv=0 dx=0 dy=0 dh=0 dv=0
PairPos2: "'kern' Horizontal Kerning lookup 15-1" uniFEFB dx=-212 dy=0 dh=-212 dv=0 dx=0 dy=0 dh=0 dv=0
PairPos2: "'kern' Horizontal Kerning lookup 15-1" uniFEDF dx=-212 dy=0 dh=-212 dv=0 dx=0 dy=0 dh=0 dv=0
PairPos2: "'kern' Horizontal Kerning lookup 15-1" uni0644 dx=-159 dy=0 dh=-159 dv=0 dx=0 dy=0 dh=0 dv=0
PairPos2: "'kern' Horizontal Kerning lookup 15-1" uniFEDB dx=-307 dy=0 dh=-307 dv=0 dx=0 dy=0 dh=0 dv=0
PairPos2: "'kern' Horizontal Kerning lookup 15-1" uni0643 dx=-212 dy=0 dh=-212 dv=0 dx=0 dy=0 dh=0 dv=0
PairPos2: "'kern' Horizontal Kerning lookup 15-1" uniFED7 dx=-212 dy=0 dh=-212 dv=0 dx=0 dy=0 dh=0 dv=0
PairPos2: "'kern' Horizontal Kerning lookup 15-1" uni0642 dx=-159 dy=0 dh=-159 dv=0 dx=0 dy=0 dh=0 dv=0
PairPos2: "'kern' Horizontal Kerning lookup 15-1" uniFED3 dx=-212 dy=0 dh=-212 dv=0 dx=0 dy=0 dh=0 dv=0
PairPos2: "'kern' Horizontal Kerning lookup 15-1" uni0641 dx=-212 dy=0 dh=-212 dv=0 dx=0 dy=0 dh=0 dv=0
PairPos2: "'kern' Horizontal Kerning lookup 15-1" uniFECF dx=-212 dy=0 dh=-212 dv=0 dx=0 dy=0 dh=0 dv=0
PairPos2: "'kern' Horizontal Kerning lookup 15-1" uniFECB dx=-212 dy=0 dh=-212 dv=0 dx=0 dy=0 dh=0 dv=0
PairPos2: "'kern' Horizontal Kerning lookup 15-1" uniFEC7 dx=-212 dy=0 dh=-212 dv=0 dx=0 dy=0 dh=0 dv=0
PairPos2: "'kern' Horizontal Kerning lookup 15-1" uni0638 dx=-212 dy=0 dh=-212 dv=0 dx=0 dy=0 dh=0 dv=0
PairPos2: "'kern' Horizontal Kerning lookup 15-1" uniFEC3 dx=-212 dy=0 dh=-212 dv=0 dx=0 dy=0 dh=0 dv=0
PairPos2: "'kern' Horizontal Kerning lookup 15-1" uni0637 dx=-212 dy=0 dh=-212 dv=0 dx=0 dy=0 dh=0 dv=0
PairPos2: "'kern' Horizontal Kerning lookup 15-1" uniFEBF dx=-212 dy=0 dh=-212 dv=0 dx=0 dy=0 dh=0 dv=0
PairPos2: "'kern' Horizontal Kerning lookup 15-1" uni0636 dx=-212 dy=0 dh=-212 dv=0 dx=0 dy=0 dh=0 dv=0
PairPos2: "'kern' Horizontal Kerning lookup 15-1" uniFEBB dx=-212 dy=0 dh=-212 dv=0 dx=0 dy=0 dh=0 dv=0
PairPos2: "'kern' Horizontal Kerning lookup 15-1" uni0635 dx=-212 dy=0 dh=-212 dv=0 dx=0 dy=0 dh=0 dv=0
PairPos2: "'kern' Horizontal Kerning lookup 15-1" uniFEB7 dx=-212 dy=0 dh=-212 dv=0 dx=0 dy=0 dh=0 dv=0
PairPos2: "'kern' Horizontal Kerning lookup 15-1" uni0634 dx=-212 dy=0 dh=-212 dv=0 dx=0 dy=0 dh=0 dv=0
PairPos2: "'kern' Horizontal Kerning lookup 15-1" uniFEB3 dx=-212 dy=0 dh=-212 dv=0 dx=0 dy=0 dh=0 dv=0
PairPos2: "'kern' Horizontal Kerning lookup 15-1" uni0633 dx=-212 dy=0 dh=-212 dv=0 dx=0 dy=0 dh=0 dv=0
PairPos2: "'kern' Horizontal Kerning lookup 15-1" uni0632 dx=-85 dy=0 dh=-85 dv=0 dx=0 dy=0 dh=0 dv=0
PairPos2: "'kern' Horizontal Kerning lookup 15-1" uni0631 dx=-85 dy=0 dh=-85 dv=0 dx=0 dy=0 dh=0 dv=0
PairPos2: "'kern' Horizontal Kerning lookup 15-1" uni0630 dx=-212 dy=0 dh=-212 dv=0 dx=0 dy=0 dh=0 dv=0
PairPos2: "'kern' Horizontal Kerning lookup 15-1" uni062F dx=-212 dy=0 dh=-212 dv=0 dx=0 dy=0 dh=0 dv=0
PairPos2: "'kern' Horizontal Kerning lookup 15-1" uniFEA7 dx=-212 dy=0 dh=-212 dv=0 dx=0 dy=0 dh=0 dv=0
PairPos2: "'kern' Horizontal Kerning lookup 15-1" uniFEA3 dx=-212 dy=0 dh=-212 dv=0 dx=0 dy=0 dh=0 dv=0
PairPos2: "'kern' Horizontal Kerning lookup 15-1" uniFE9F dx=-212 dy=0 dh=-212 dv=0 dx=0 dy=0 dh=0 dv=0
PairPos2: "'kern' Horizontal Kerning lookup 15-1" uniFE9B dx=-212 dy=0 dh=-212 dv=0 dx=0 dy=0 dh=0 dv=0
PairPos2: "'kern' Horizontal Kerning lookup 15-1" uni062B dx=-212 dy=0 dh=-212 dv=0 dx=0 dy=0 dh=0 dv=0
PairPos2: "'kern' Horizontal Kerning lookup 15-1" uniFE97 dx=-212 dy=0 dh=-212 dv=0 dx=0 dy=0 dh=0 dv=0
PairPos2: "'kern' Horizontal Kerning lookup 15-1" uni062A dx=-212 dy=0 dh=-212 dv=0 dx=0 dy=0 dh=0 dv=0
PairPos2: "'kern' Horizontal Kerning lookup 15-1" uni0629 dx=-212 dy=0 dh=-212 dv=0 dx=0 dy=0 dh=0 dv=0
PairPos2: "'kern' Horizontal Kerning lookup 15-1" uniFE91 dx=-85 dy=0 dh=-85 dv=0 dx=0 dy=0 dh=0 dv=0
PairPos2: "'kern' Horizontal Kerning lookup 15-1" uni0628 dx=-212 dy=0 dh=-212 dv=0 dx=0 dy=0 dh=0 dv=0
PairPos2: "'kern' Horizontal Kerning lookup 15-1" uni0627 dx=-212 dy=0 dh=-212 dv=0 dx=0 dy=0 dh=0 dv=0
PairPos2: "'kern' Horizontal Kerning lookup 15-1" uni0623 dx=-212 dy=0 dh=-212 dv=0 dx=0 dy=0 dh=0 dv=0
PairPos2: "'kern' Horizontal Kerning lookup 15-1" uni0622 dx=-212 dy=0 dh=-212 dv=0 dx=0 dy=0 dh=0 dv=0
PairPos2: "'kern' Horizontal Kerning lookup 15-1" uni0621 dx=-212 dy=0 dh=-212 dv=0 dx=0 dy=0 dh=0 dv=0
PairPos2: "'kern' Horizontal Kerning lookup 15-1" uniFB94 dx=-307 dy=0 dh=-307 dv=0 dx=0 dy=0 dh=0 dv=0
PairPos2: "'kern' Horizontal Kerning lookup 15-1" uniFB92 dx=-307 dy=0 dh=-307 dv=0 dx=0 dy=0 dh=0 dv=0
PairPos2: "'kern' Horizontal Kerning lookup 15-1" afii57509 dx=-307 dy=0 dh=-307 dv=0 dx=0 dy=0 dh=0 dv=0
PairPos2: "'kern' Horizontal Kerning lookup 15-1" afii57508 dx=-85 dy=0 dh=-85 dv=0 dx=0 dy=0 dh=0 dv=0
PairPos2: "'kern' Horizontal Kerning lookup 15-1" uniFB7C dx=-159 dy=0 dh=-159 dv=0 dx=0 dy=0 dh=0 dv=0
PairPos2: "'kern' Horizontal Kerning lookup 15-1" afii57506 dx=-212 dy=0 dh=-212 dv=0 dx=0 dy=0 dh=0 dv=0
PairPos2: "'kern' Horizontal Kerning lookup 15-1" afii57440 dx=-212 dy=0 dh=-212 dv=0 dx=0 dy=0 dh=0 dv=0
PairPos2: "'kern' Horizontal Kerning lookup 15-1" uniFE8B dx=-212 dy=0 dh=-212 dv=0 dx=0 dy=0 dh=0 dv=0
EndChar

StartChar: uniFEB2
Encoding: 65202 65202 188
Width: 2555
VWidth: 2351
GlyphClass: 2
Flags: W
AnchorPoint: "Anchor-10" 1687.64 1112.47 basechar 0
AnchorPoint: "Anchor-7" 638.95 -688.09 basechar 0
LayerCount: 2
Fore
SplineSet
1025.12597656 483.865234375 m 1,0,-1
 1165.95507812 578.66015625 l 1,1,-1
 1206.63867188 606.045898438 l 1,2,-1
 1225.28613281 560.6875 l 1,3,-1
 1317.19628906 337.125976562 l 2,4,5
 1332.89550781 298.846679688 1332.89550781 298.846679688 1369.3984375 279.497070312 c 128,-1,6
 1405.90136719 260.146484375 1405.90136719 260.146484375 1471.98730469 260.26171875 c 0,7,8
 1525.83496094 260.541992188 1525.83496094 260.541992188 1555.3828125 295.955078125 c 128,-1,9
 1584.93066406 331.369140625 1584.93066406 331.369140625 1593.31738281 417.338867188 c 2,10,-1
 1611.8828125 607.65625 l 1,11,-1
 1615.40527344 643.772460938 l 1,12,-1
 1651.69335938 643.772460938 l 1,13,-1
 1769.70996094 643.772460938 l 1,14,-1
 1804.76074219 643.772460938 l 1,15,-1
 1809.36328125 609.025390625 l 1,16,-1
 1834.80859375 416.944335938 l 2,17,18
 1838.52832031 388.391601562 1838.52832031 388.391601562 1844.9140625 365.72265625 c 128,-1,19
 1851.29882812 343.053710938 1851.29882812 343.053710938 1860.68457031 325.684570312 c 128,-1,20
 1870.06933594 308.315429688 1870.06933594 308.315429688 1882.13769531 295.981445312 c 128,-1,21
 1894.20507812 283.647460938 1894.20507812 283.647460938 1909.78808594 275.770507812 c 128,-1,22
 1925.37207031 267.893554688 1925.37207031 267.893554688 1943.62207031 264.202148438 c 128,-1,23
 1961.87109375 260.510742188 1961.87109375 260.510742188 1984.11914062 260.434570312 c 0,24,25
 2007.67382812 260.3671875 2007.67382812 260.3671875 2026.03417969 265.303710938 c 128,-1,26
 2044.39453125 270.239257812 2044.39453125 270.239257812 2059.60058594 281.470703125 c 128,-1,27
 2074.80664062 292.702148438 2074.80664062 292.702148438 2085.44824219 310.845703125 c 128,-1,28
 2096.08984375 328.989257812 2096.08984375 328.989257812 2103.13183594 355.376953125 c 128,-1,29
 2110.17480469 381.764648438 2110.17480469 381.764648438 2113.28320312 416.97265625 c 2,30,-1
 2131.84863281 627.290039062 l 1,31,-1
 2135.06835938 663.772460938 l 1,32,-1
 2171.69335938 663.772460938 l 1,33,-1
 2289.70996094 663.772460938 l 1,34,-1
 2325.19824219 663.772460938 l 1,35,-1
 2329.42480469 628.537109375 l 1,36,-1
 2354.859375 416.545898438 l 2,37,38
 2364.80664062 335.252929688 2364.80664062 335.252929688 2402.96875 298.874023438 c 128,-1,39
 2441.12988281 262.495117188 2441.12988281 262.495117188 2516.03125 260.954101562 c 2,40,-1
 2562.38085938 260.000976562 l 2,41,42
 2588.84375 259.44921875 2588.84375 259.44921875 2608.79296875 246.056640625 c 0,43,44
 2649.54785156 218.6953125 2649.54785156 218.6953125 2649.54785156 148.530273438 c 2,45,-1
 2649.54785156 114.653320312 l 2,46,47
 2649.98925781 42.8212890625 2649.98925781 42.8212890625 2609.48242188 14.8798828125 c 0,48,49
 2588.68066406 0.5302734375 2588.68066406 0.5302734375 2560.79199219 0.5302734375 c 2,50,-1
 2509.02636719 0.5302734375 l 2,51,52
 2319.80078125 0.955078125 2319.80078125 0.955078125 2229.38964844 106.849609375 c 1,53,54
 2185.74804688 54.9580078125 2185.74804688 54.9580078125 2123.62011719 28.8818359375 c 128,-1,55
 2061.49121094 2.806640625 2061.49121094 2.806640625 1984.53417969 2.6474609375 c 0,56,57
 1801.27441406 2.9677734375 1801.27441406 2.9677734375 1710.70214844 114.645507812 c 1,58,59
 1667.15429688 57.869140625 1667.15429688 57.869140625 1607.74707031 28.849609375 c 128,-1,60
 1548.33984375 -0.169921875 1548.33984375 -0.169921875 1476.11230469 -0.31640625 c 0,61,62
 1405.72949219 -0.072265625 1405.72949219 -0.072265625 1338.32519531 27.2783203125 c 1,63,64
 1320.265625 -240.849609375 1320.265625 -240.849609375 1154.93652344 -378.817382812 c 128,-1,65
 989.607421875 -516.78515625 989.607421875 -516.78515625 690.450195312 -517.545898438 c 0,66,67
 417.515625 -518.0234375 417.515625 -518.0234375 252.698242188 -392.291992188 c 0,68,69
 58.9609375 -243.701171875 58.9609375 -243.701171875 59.55859375 58.439453125 c 0,70,71
 60.017578125 273.498046875 60.017578125 273.498046875 155.828125 489.950195312 c 2,72,-1
 170.991210938 524.205078125 l 1,73,-1
 206.166015625 511.318359375 l 1,74,-1
 354.900390625 456.826171875 l 1,75,-1
 393.923828125 442.529296875 l 1,76,-1
 378.14453125 404.080078125 l 2,77,78
 339.387695312 309.646484375 339.387695312 309.646484375 320.166015625 227.233398438 c 128,-1,79
 300.943359375 144.8203125 300.943359375 144.8203125 300.893554688 75.26171875 c 0,80,81
 300.942382812 -98.98046875 300.942382812 -98.98046875 395.223632812 -181.858398438 c 128,-1,82
 489.50390625 -264.736328125 489.50390625 -264.736328125 692.98046875 -264.501953125 c 0,83,84
 911.19921875 -264.264648438 911.19921875 -264.264648438 1012.55957031 -176.780273438 c 128,-1,85
 1113.91992188 -89.2958984375 1113.91992188 -89.2958984375 1113.8515625 93.134765625 c 0,86,87
 1113.99023438 224.717773438 1113.99023438 224.717773438 1011.56640625 433.033203125 c 2,88,-1
 996.16015625 464.368164062 l 1,89,-1
 1025.12597656 483.865234375 l 1,0,-1
EndSplineSet
EndChar

StartChar: uniFEB3
Encoding: 65203 65203 189
Width: 1582
VWidth: 2351
GlyphClass: 2
Flags: W
AnchorPoint: "Anchor-10" 654.23 1053.89 basechar 0
AnchorPoint: "Anchor-7" 675.43 -158.22 basechar 0
LayerCount: 2
Fore
SplineSet
-3.8212890625 260.479492188 m 2,0,-1
 53.431640625 260.477539062 l 2,1,2
 150.185546875 260.265625 150.185546875 260.265625 196.0546875 298.236328125 c 128,-1,3
 241.923828125 336.208007812 241.923828125 336.208007812 249.685546875 419.595703125 c 2,4,-1
 267.125 606.94921875 l 1,5,-1
 270.50390625 643.2421875 l 1,6,-1
 306.953125 643.2421875 l 1,7,-1
 425.35546875 643.2421875 l 1,8,-1
 460.400390625 643.2421875 l 1,9,-1
 465.0078125 608.500976562 l 1,10,-1
 489.831054688 421.341796875 l 2,11,12
 497.4765625 363.578125 497.4765625 363.578125 517.436523438 328.231445312 c 128,-1,13
 537.395507812 292.884765625 537.395507812 292.884765625 570.329101562 276.8671875 c 128,-1,14
 603.262695312 260.850585938 603.262695312 260.850585938 652.900390625 260.791992188 c 0,15,16
 713.344726562 260.479492188 713.344726562 260.479492188 745.069335938 295.84375 c 128,-1,17
 776.794921875 331.208984375 776.794921875 331.208984375 785.145507812 416.80859375 c 2,18,-1
 803.7109375 607.125976562 l 1,19,-1
 807.233398438 643.2421875 l 1,20,-1
 843.521484375 643.2421875 l 1,21,-1
 961.538085938 643.2421875 l 1,22,-1
 996.491210938 643.2421875 l 1,23,-1
 1001.17675781 608.604492188 l 1,24,-1
 1027.10644531 416.94921875 l 2,25,26
 1038.86914062 331.567382812 1038.86914062 331.567382812 1073.21191406 295.866210938 c 128,-1,27
 1107.55566406 260.1640625 1107.55566406 260.1640625 1170.18554688 260.94140625 c 0,28,29
 1239.32617188 261.723632812 1239.32617188 261.723632812 1262.359375 307.018554688 c 0,30,31
 1301.20507812 383.96875 1301.20507812 383.96875 1271.38769531 544.377929688 c 0,32,33
 1261.92871094 595.387695312 1261.92871094 595.387695312 1253.39355469 631.715820312 c 128,-1,34
 1244.859375 668.044921875 1244.859375 668.044921875 1238.39648438 685.970703125 c 2,35,-1
 1224.3359375 724.974609375 l 1,36,-1
 1263.81933594 737.627929688 l 1,37,-1
 1420.99414062 787.997070312 l 1,38,-1
 1458.14648438 799.903320312 l 1,39,-1
 1470.9765625 763.059570312 l 2,40,41
 1515.57226562 634.995117188 1515.57226562 634.995117188 1525.53222656 478.600585938 c 0,42,43
 1526.11035156 469.10546875 1526.11035156 469.10546875 1526.51855469 459.862304688 c 128,-1,44
 1526.92675781 450.619140625 1526.92675781 450.619140625 1527.16699219 441.557617188 c 128,-1,45
 1527.40820312 432.497070312 1527.40820312 432.497070312 1527.48144531 423.577148438 c 0,46,47
 1529.14453125 221.4296875 1529.14453125 221.4296875 1438.80761719 111.619140625 c 128,-1,48
 1348.46972656 1.8095703125 1348.46972656 1.8095703125 1172.83691406 0.53125 c 0,49,50
 999.791992188 -0.888671875 999.791992188 -0.888671875 903.41796875 115.827148438 c 1,51,52
 813.001953125 0.0146484375 813.001953125 0.0146484375 648.517578125 0.22265625 c 0,53,54
 456.879882812 0.951171875 456.879882812 0.951171875 357.014648438 112.935546875 c 1,55,56
 245.068359375 0 245.068359375 0 50.779296875 0 c 2,57,-1
 -4 0 l 2,58,59
 -29.490234375 0 -29.490234375 0 -49.1357421875 12.5048828125 c 0,60,61
 -91.6240234375 39.548828125 -91.6240234375 39.548828125 -91.6240234375 114 c 2,62,-1
 -91.6240234375 147.895507812 l 2,63,64
 -91.994140625 218.715820312 -91.994140625 218.715820312 -51.494140625 246.338867188 c 0,65,66
 -31.158203125 260.208984375 -31.158203125 260.208984375 -3.8212890625 260.479492188 c 2,0,-1
EndSplineSet
EndChar

StartChar: uniFEB4
Encoding: 65204 65204 190
Width: 1746
VWidth: 2346
GlyphClass: 2
Flags: W
AnchorPoint: "Anchor-10" 675.43 1048.59 basechar 0
AnchorPoint: "Anchor-7" 774.01 -179.42 basechar 0
LayerCount: 2
Fore
SplineSet
1546.69238281 415.96875 m 2,0,1
 1556.37792969 335.239257812 1556.37792969 335.239257812 1594.47949219 299.10546875 c 128,-1,2
 1632.58007812 262.97265625 1632.58007812 262.97265625 1707.859375 261.423828125 c 2,3,-1
 1754.33105469 260.46875 l 2,4,5
 1767.99511719 260.096679688 1767.99511719 260.096679688 1778.35449219 255.72265625 c 128,-1,6
 1788.71484375 251.348632812 1788.71484375 251.348632812 1794.70410156 242.202148438 c 128,-1,7
 1800.69433594 233.055664062 1800.69433594 233.055664062 1804.61328125 225.428710938 c 128,-1,8
 1808.53320312 217.80078125 1808.53320312 217.80078125 1809.86035156 203.920898438 c 128,-1,9
 1811.1875 190.040039062 1811.1875 190.040039062 1811.64160156 183.666992188 c 128,-1,10
 1812.09570312 177.29296875 1812.09570312 177.29296875 1811.73535156 163.186523438 c 128,-1,11
 1811.37597656 149.079101562 1811.37597656 149.079101562 1811.37597656 148 c 2,12,-1
 1811.37597656 113.8984375 l 2,13,14
 1811.36425781 111.551757812 1811.36425781 111.551757812 1811.54492188 100.379882812 c 128,-1,15
 1811.72460938 89.20703125 1811.72460938 89.20703125 1811.64941406 82.8203125 c 128,-1,16
 1811.57421875 76.43359375 1811.57421875 76.43359375 1810.48144531 64.5283203125 c 128,-1,17
 1809.38867188 52.6220703125 1809.38867188 52.6220703125 1807.27734375 45.1162109375 c 128,-1,18
 1805.16699219 37.6103515625 1805.16699219 37.6103515625 1800.79785156 28.1376953125 c 128,-1,19
 1796.4296875 18.6650390625 1796.4296875 18.6650390625 1790.28027344 13.205078125 c 128,-1,20
 1784.13183594 7.74609375 1784.13183594 7.74609375 1774.48535156 3.873046875 c 128,-1,21
 1764.83886719 0 1764.83886719 0 1752.62011719 0 c 2,22,-1
 1700.89941406 0 l 2,23,24
 1608.58984375 0 1608.58984375 0 1537.78417969 26.2802734375 c 128,-1,25
 1466.97949219 52.5595703125 1466.97949219 52.5595703125 1421.27148438 106.176757812 c 1,26,27
 1333.37792969 2.009765625 1333.37792969 2.009765625 1176.35351562 2.1171875 c 0,28,29
 1086.2734375 2.064453125 1086.2734375 2.064453125 1016.45703125 30.419921875 c 128,-1,30
 946.640625 58.7744140625 946.640625 58.7744140625 900.874023438 116.102539062 c 1,31,32
 805.7734375 1.017578125 805.7734375 1.017578125 651.6953125 1.2822265625 c 0,33,34
 456.380859375 1.9541015625 456.380859375 1.9541015625 357.048828125 112.969726562 c 1,35,36
 245.068359375 0 245.068359375 0 50.779296875 0 c 2,37,-1
 -4 0 l 2,38,39
 -29.490234375 0 -29.490234375 0 -49.1357421875 12.5048828125 c 0,40,41
 -91.6240234375 39.548828125 -91.6240234375 39.548828125 -91.6240234375 114 c 2,42,-1
 -91.6240234375 147.895507812 l 2,43,44
 -91.99609375 219.14453125 -91.99609375 219.14453125 -51.3701171875 246.629882812 c 0,45,46
 -30.8974609375 260.48046875 -30.8974609375 260.48046875 -3.623046875 260.479492188 c 2,47,-1
 53.431640625 260.477539062 l 2,48,49
 150.185546875 260.265625 150.185546875 260.265625 196.0546875 298.236328125 c 128,-1,50
 241.923828125 336.208007812 241.923828125 336.208007812 249.685546875 419.595703125 c 2,51,-1
 267.125 606.94921875 l 1,52,-1
 270.50390625 643.2421875 l 1,53,-1
 306.953125 643.2421875 l 1,54,-1
 425.35546875 643.2421875 l 1,55,-1
 460.400390625 643.2421875 l 1,56,-1
 465.0078125 608.500976562 l 1,57,-1
 489.831054688 421.341796875 l 2,58,59
 497.4765625 363.578125 497.4765625 363.578125 517.436523438 328.231445312 c 128,-1,60
 537.395507812 292.884765625 537.395507812 292.884765625 570.329101562 276.8671875 c 128,-1,61
 603.262695312 260.850585938 603.262695312 260.850585938 652.900390625 260.791992188 c 0,62,63
 713.344726562 260.479492188 713.344726562 260.479492188 745.069335938 295.84375 c 128,-1,64
 776.794921875 331.208984375 776.794921875 331.208984375 785.145507812 416.80859375 c 2,65,-1
 803.7109375 607.125976562 l 1,66,-1
 807.233398438 643.2421875 l 1,67,-1
 843.521484375 643.2421875 l 1,68,-1
 961.538085938 643.2421875 l 1,69,-1
 996.588867188 643.2421875 l 1,70,-1
 1001.19140625 608.495117188 l 1,71,-1
 1026.63378906 416.439453125 l 2,72,73
 1037.66113281 332.614257812 1037.66113281 332.614257812 1073.24707031 296.779296875 c 128,-1,74
 1108.83300781 260.943359375 1108.83300781 260.943359375 1175.96386719 260.904296875 c 0,75,76
 1235.58691406 260.549804688 1235.58691406 260.549804688 1266.5703125 295.6875 c 128,-1,77
 1297.55371094 330.825195312 1297.55371094 330.825195312 1305.11132812 416.442382812 c 2,78,-1
 1323.67675781 626.759765625 l 1,79,-1
 1326.89648438 663.2421875 l 1,80,-1
 1363.52148438 663.2421875 l 1,81,-1
 1481.53808594 663.2421875 l 1,82,-1
 1517.02636719 663.2421875 l 1,83,-1
 1521.25292969 628.006835938 l 1,84,-1
 1546.69238281 415.96875 l 2,0,1
EndSplineSet
EndChar

StartChar: uniFEBA
Encoding: 65210 65210 196
Width: 2610
VWidth: 2351
GlyphClass: 2
Flags: W
AnchorPoint: "Anchor-10" 1687.64 1112.47 basechar 0
AnchorPoint: "Anchor-7" 638.95 -688.09 basechar 0
LayerCount: 2
Fore
SplineSet
1611.22070312 260.91796875 m 1,0,-1
 1709.97753906 260.91796875 l 2,1,2
 1970.42578125 260.998046875 1970.42578125 260.998046875 2085.2109375 306.045898438 c 0,3,4
 2125.58300781 321.87890625 2125.58300781 321.87890625 2150.68066406 342.907226562 c 128,-1,5
 2175.77832031 363.934570312 2175.77832031 363.934570312 2187.09375 390.134765625 c 128,-1,6
 2198.40917969 416.334960938 2198.40917969 416.334960938 2198.55957031 450.609375 c 0,7,8
 2198.61132812 457.7109375 2198.61132812 457.7109375 2198.14355469 464.334960938 c 128,-1,9
 2197.67675781 470.958984375 2197.67675781 470.958984375 2196.70703125 477.094726562 c 128,-1,10
 2195.73730469 483.23046875 2195.73730469 483.23046875 2194.23925781 488.997070312 c 128,-1,11
 2192.74121094 494.764648438 2192.74121094 494.764648438 2190.76757812 500.11328125 c 128,-1,12
 2188.79296875 505.461914062 2188.79296875 505.461914062 2186.27832031 510.553710938 c 128,-1,13
 2183.76464844 515.645507812 2183.76464844 515.645507812 2180.79980469 520.388671875 c 128,-1,14
 2177.83496094 525.1328125 2177.83496094 525.1328125 2174.32128906 529.727539062 c 0,15,16
 2138.09277344 577.915039062 2138.09277344 577.915039062 2060.13964844 577.584960938 c 0,17,18
 1920.40522236 578.047864518 1920.40522236 578.047864518 1764.02636719 428.452148438 c 4,19,20
 1731.53808594 397.375 1731.53808594 397.375 1692.99707031 355.166015625 c 128,-1,21
 1654.45605469 312.95703125 1654.45605469 312.95703125 1611.22070312 260.91796875 c 1,0,-1
1025.12597656 483.865234375 m 1,22,-1
 1165.95507812 578.66015625 l 1,23,-1
 1206.79882812 606.153320312 l 1,24,-1
 1225.34472656 560.544921875 l 1,25,-1
 1316.23632812 337.028320312 l 2,26,27
 1320.84667969 325.7421875 1320.84667969 325.7421875 1328.3046875 318.549804688 c 128,-1,28
 1335.76367188 311.357421875 1335.76367188 311.357421875 1347.87207031 306.526367188 c 1,29,30
 1721.47167969 836.9921875 1721.47167969 836.9921875 2067.04980469 837.189453125 c 0,31,32
 2234.66503906 836.98046875 2234.66503906 836.98046875 2341.3671875 738.4453125 c 0,33,34
 2456.0625 631.314453125 2456.0625 631.314453125 2455.45898438 462.8125 c 0,35,36
 2455.08984375 353.5234375 2455.08984375 353.5234375 2412.2265625 261.190429688 c 1,37,-1
 2572.47558594 261.19140625 l 1,38,-1
 2617.11132812 260.771484375 l 2,39,40
 2630.99707031 260.951171875 2630.99707031 260.951171875 2641.54296875 256.7890625 c 128,-1,41
 2652.08886719 252.626953125 2652.08886719 252.626953125 2658.1796875 243.346679688 c 128,-1,42
 2664.26953125 234.06640625 2664.26953125 234.06640625 2668.26660156 226.254882812 c 128,-1,43
 2672.26367188 218.442382812 2672.26367188 218.442382812 2673.6171875 204.15625 c 128,-1,44
 2674.96972656 189.869140625 2674.96972656 189.869140625 2675.43945312 183.338867188 c 128,-1,45
 2675.90820312 176.807617188 2675.90820312 176.807617188 2675.54589844 162.446289062 c 128,-1,46
 2675.18261719 148.083984375 2675.18261719 148.083984375 2675.18261719 147.2890625 c 2,47,-1
 2675.18261719 113.240234375 l 2,48,49
 2675.18164062 112.80859375 2675.18164062 112.80859375 2675.48632812 97.7236328125 c 128,-1,50
 2675.79199219 82.6396484375 2675.79199219 82.6396484375 2675.27734375 76.59375 c 128,-1,51
 2674.76171875 70.5478515625 2674.76171875 70.5478515625 2673.32910156 55.94140625 c 128,-1,52
 2671.89746094 41.3349609375 2671.89746094 41.3349609375 2667.84472656 33.869140625 c 128,-1,53
 2663.79199219 26.404296875 2663.79199219 26.404296875 2657.63574219 17.00390625 c 128,-1,54
 2651.48046875 7.6025390625 2651.48046875 7.6025390625 2640.90527344 3.4462890625 c 128,-1,55
 2630.32910156 -0.7109375 2630.32910156 -0.7109375 2616.42675781 -0.7109375 c 2,56,-1
 2560.23242188 -0.7109375 l 2,57,58
 2291.40625 -0.982421875 2291.40625 -0.982421875 2194.23242188 73.138671875 c 1,59,60
 2033.75292969 -1.83984375 2033.75292969 -1.83984375 1726.57421875 -0.7109375 c 2,61,-1
 1533.17871094 0 l 2,62,63
 1479.8125 0 1479.8125 0 1430.78125 7.7724609375 c 128,-1,64
 1381.75 15.5458984375 1381.75 15.5458984375 1338.5625 30.9033203125 c 1,65,66
 1321.20996094 -239.413085938 1321.20996094 -239.413085938 1155.91992188 -378.09765625 c 128,-1,67
 990.629882812 -516.782226562 990.629882812 -516.782226562 690.450195312 -517.545898438 c 0,68,69
 417.515625 -518.0234375 417.515625 -518.0234375 252.698242188 -392.291992188 c 0,70,71
 58.9609375 -243.701171875 58.9609375 -243.701171875 59.55859375 58.439453125 c 0,72,73
 60.017578125 273.498046875 60.017578125 273.498046875 155.828125 489.950195312 c 2,74,-1
 170.991210938 524.205078125 l 1,75,-1
 206.166015625 511.318359375 l 1,76,-1
 354.900390625 456.826171875 l 1,77,-1
 393.923828125 442.529296875 l 1,78,-1
 378.14453125 404.080078125 l 2,79,80
 339.387695312 309.646484375 339.387695312 309.646484375 320.166015625 227.233398438 c 128,-1,81
 300.943359375 144.8203125 300.943359375 144.8203125 300.893554688 75.26171875 c 0,82,83
 300.942382812 -98.98046875 300.942382812 -98.98046875 395.223632812 -181.858398438 c 128,-1,84
 489.50390625 -264.736328125 489.50390625 -264.736328125 692.98046875 -264.501953125 c 0,85,86
 911.19921875 -264.264648438 911.19921875 -264.264648438 1012.55957031 -176.780273438 c 128,-1,87
 1113.91992188 -89.2958984375 1113.91992188 -89.2958984375 1113.8515625 93.134765625 c 0,88,89
 1113.99023438 224.717773438 1113.99023438 224.717773438 1011.56640625 433.033203125 c 2,90,-1
 996.16015625 464.368164062 l 1,91,-1
 1025.12597656 483.865234375 l 1,22,-1
EndSplineSet
EndChar

StartChar: uniFEBB
Encoding: 65211 65211 197
Width: 1690
VWidth: 2351
GlyphClass: 2
Flags: W
AnchorPoint: "Anchor-10" 934.378 1137.17 basechar 0
AnchorPoint: "Anchor-7" 680.518 -225 basechar 0
LayerCount: 2
Fore
SplineSet
790.143554688 260.62890625 m 1,0,-1
 889.15625 260.62890625 l 2,1,2
 1152.25976562 260.993164062 1152.25976562 260.993164062 1264.17871094 305.66796875 c 0,3,4
 1324.62207031 329.794921875 1324.62207031 329.794921875 1351.23632812 364.830078125 c 128,-1,5
 1377.8515625 399.865234375 1377.8515625 399.865234375 1377.75195312 451.12890625 c 0,6,7
 1377.85253906 475.869140625 1377.85253906 475.869140625 1371.83886719 495.112304688 c 128,-1,8
 1365.82421875 514.35546875 1365.82421875 514.35546875 1353.60839844 530.31640625 c 0,9,10
 1346.41894531 539.734375 1346.41894531 539.734375 1338.06054688 547.166992188 c 128,-1,11
 1329.70214844 554.599609375 1329.70214844 554.599609375 1319.3828125 560.48046875 c 128,-1,12
 1309.06445312 566.361328125 1309.06445312 566.361328125 1297.02929688 570.24609375 c 128,-1,13
 1284.99414062 574.129882812 1284.99414062 574.129882812 1270.51757812 576.1875 c 128,-1,14
 1256.04101562 578.245117188 1256.04101562 578.245117188 1239.30078125 578.295898438 c 0,15,16
 1076.09945395 577.910993098 1076.09945395 577.910993098 880.571753989 365 c 4,17,18
 838.812419195 319.528072268 838.812419195 319.528072268 790.143554688 260.62890625 c 1,0,-1
-3.822265625 260.479492188 m 2,19,-1
 48.5576171875 260.478515625 l 2,20,21
 137.329101562 260.26953125 137.329101562 260.26953125 175.963867188 295.3828125 c 128,-1,22
 214.598632812 330.495117188 214.598632812 330.495117188 216.4375 410.306640625 c 2,23,-1
 221.555664062 632.439453125 l 1,24,-1
 222.313476562 665.331054688 l 1,25,-1
 254.733398438 670.93359375 l 1,26,-1
 408.1171875 697.439453125 l 1,27,-1
 453.5859375 705.296875 l 1,28,-1
 454.912109375 659.173828125 l 1,29,-1
 462.09765625 409.333984375 l 2,30,31
 463.025390625 379.20703125 463.025390625 379.20703125 470.71484375 358.645507812 c 128,-1,32
 478.404296875 338.083984375 478.404296875 338.083984375 491.99609375 325.924804688 c 128,-1,33
 505.586914062 313.765625 505.586914062 313.765625 527.002929688 306.2734375 c 1,34,35
 899.436523438 838.00390625 899.436523438 838.00390625 1246.22265625 837.900390625 c 0,36,37
 1287.41699219 837.927734375 1287.41699219 837.927734375 1325.34082031 831.818359375 c 128,-1,38
 1363.26464844 825.708984375 1363.26464844 825.708984375 1397.76855469 813.4765625 c 128,-1,39
 1432.27246094 801.244140625 1432.27246094 801.244140625 1463.15722656 782.58984375 c 128,-1,40
 1494.04101562 763.936523438 1494.04101562 763.936523438 1520.54882812 739.166992188 c 0,41,42
 1632.8125 635.705078125 1632.8125 635.705078125 1634.65039062 464.01171875 c 0,43,44
 1636.14355469 250.615234375 1636.14355469 250.615234375 1457.44433594 121.94140625 c 0,45,46
 1288.95605469 0 1288.95605469 0 905.915039062 0 c 2,47,-1
 753.72265625 0 l 2,48,49
 487.736328125 0 487.736328125 0 343.671875 115.75390625 c 1,50,51
 234.307617188 0 234.307617188 0 47.830078125 0 c 2,52,-1
 -4 0 l 2,53,54
 -29.490234375 0 -29.490234375 0 -49.1357421875 12.5048828125 c 0,55,56
 -91.6240234375 39.548828125 -91.6240234375 39.548828125 -91.6240234375 114 c 2,57,-1
 -91.6240234375 147.895507812 l 2,58,59
 -91.994140625 218.715820312 -91.994140625 218.715820312 -51.494140625 246.338867188 c 0,60,61
 -31.158203125 260.208984375 -31.158203125 260.208984375 -3.822265625 260.479492188 c 2,19,-1
EndSplineSet
EndChar

StartChar: uniFEBC
Encoding: 65212 65212 198
Width: 1789
VWidth: 2351
GlyphClass: 2
Flags: W
AnchorPoint: "Anchor-7" 680.518 -225 basechar 0
AnchorPoint: "Anchor-10" 934.378 1137.17 basechar 0
LayerCount: 2
Fore
SplineSet
790.143554688 260.62890625 m 1,0,-1
 889.15625 260.62890625 l 2,1,2
 1152.25976562 260.993164062 1152.25976562 260.993164062 1264.17871094 305.66796875 c 0,3,4
 1324.62207031 329.794921875 1324.62207031 329.794921875 1351.23632812 364.830078125 c 128,-1,5
 1377.8515625 399.865234375 1377.8515625 399.865234375 1377.75195312 451.12890625 c 0,6,7
 1377.85253906 475.869140625 1377.85253906 475.869140625 1371.83886719 495.112304688 c 128,-1,8
 1365.82421875 514.35546875 1365.82421875 514.35546875 1353.60839844 530.31640625 c 0,9,10
 1346.41894531 539.734375 1346.41894531 539.734375 1338.06054688 547.166992188 c 128,-1,11
 1329.70214844 554.599609375 1329.70214844 554.599609375 1319.3828125 560.48046875 c 128,-1,12
 1309.06445312 566.361328125 1309.06445312 566.361328125 1297.02929688 570.24609375 c 128,-1,13
 1284.99414062 574.129882812 1284.99414062 574.129882812 1270.51757812 576.1875 c 128,-1,14
 1256.04101562 578.245117188 1256.04101562 578.245117188 1239.30078125 578.295898438 c 0,15,16
 1077.80394754 577.915013094 1077.80394754 577.915013094 886.105947982 371 c 4,17,18
 842.055237591 323.452538167 842.055237591 323.452538167 790.143554688 260.62890625 c 1,0,-1
-3.822265625 260.479492188 m 2,19,-1
 48.5576171875 260.478515625 l 2,20,21
 137.329101562 260.26953125 137.329101562 260.26953125 175.963867188 295.3828125 c 128,-1,22
 214.598632812 330.495117188 214.598632812 330.495117188 216.4375 410.306640625 c 2,23,-1
 221.555664062 632.439453125 l 1,24,-1
 222.313476562 665.331054688 l 1,25,-1
 254.733398438 670.93359375 l 1,26,-1
 408.1171875 697.439453125 l 1,27,-1
 453.5859375 705.296875 l 1,28,-1
 454.912109375 659.173828125 l 1,29,-1
 462.09765625 409.333984375 l 2,30,31
 463.025390625 379.19921875 463.025390625 379.19921875 470.709960938 358.643554688 c 128,-1,32
 478.39453125 338.088867188 478.39453125 338.088867188 491.993164062 325.926757812 c 128,-1,33
 505.590820312 313.763671875 505.590820312 313.763671875 527.037109375 306.26171875 c 1,34,35
 900.446289062 838.00390625 900.446289062 838.00390625 1246.22265625 837.900390625 c 0,36,37
 1329.05664062 837.954101562 1329.05664062 837.954101562 1398.37402344 813.255859375 c 128,-1,38
 1467.69140625 788.557617188 1467.69140625 788.557617188 1520.5546875 739.161132812 c 0,39,40
 1633.92578125 634.590820312 1633.92578125 634.590820312 1634.65234375 463.793945312 c 0,41,42
 1634.93164062 354.063476562 1634.93164062 354.063476562 1591.64746094 260.901367188 c 1,43,-1
 1751.66894531 260.90234375 l 1,44,-1
 1797.10839844 260.474609375 l 2,45,46
 1809.20019531 260.145507812 1809.20019531 260.145507812 1818.71386719 256.134765625 c 128,-1,47
 1828.2265625 252.124023438 1828.2265625 252.124023438 1834.26269531 246.609375 c 128,-1,48
 1840.29980469 241.095703125 1840.29980469 241.095703125 1844.54785156 231.833984375 c 128,-1,49
 1848.79492188 222.571289062 1848.79492188 222.571289062 1850.81835938 215.1171875 c 128,-1,50
 1852.84082031 207.662109375 1852.84082031 207.662109375 1853.83496094 196.16796875 c 128,-1,51
 1854.83007812 184.673828125 1854.83007812 184.673828125 1854.85058594 178.296875 c 128,-1,52
 1854.87207031 171.919921875 1854.87207031 171.919921875 1854.62402344 161.211914062 c 128,-1,53
 1854.37597656 150.504882812 1854.37597656 150.504882812 1854.37597656 148 c 2,54,-1
 1854.37597656 113.8984375 l 2,55,56
 1854.08789062 57.248046875 1854.08789062 57.248046875 1848.82617188 40.3037109375 c 0,57,58
 1834.828125 0.8544921875 1834.828125 0.8544921875 1795.62011719 -0 c 2,59,-1
 1739.40527344 0 l 2,60,61
 1470.57910156 0 1470.57910156 0 1373.4140625 74.0302734375 c 1,62,63
 1212.54003906 0 1212.54003906 0 905.915039062 0 c 2,64,-1
 752.72265625 0 l 2,65,66
 487.034179688 0 487.034179688 0 343.668945312 115.749023438 c 1,67,68
 233.696289062 0 233.696289062 0 47.830078125 0 c 2,69,-1
 -4 0 l 2,70,71
 -29.490234375 0 -29.490234375 0 -49.1357421875 12.5048828125 c 0,72,73
 -91.6240234375 39.548828125 -91.6240234375 39.548828125 -91.6240234375 114 c 2,74,-1
 -91.6240234375 147.895507812 l 2,75,76
 -91.994140625 218.715820312 -91.994140625 218.715820312 -51.494140625 246.338867188 c 0,77,78
 -31.158203125 260.208984375 -31.158203125 260.208984375 -3.822265625 260.479492188 c 2,19,-1
EndSplineSet
EndChar

